<svg xmlns="http://www.w3.org/2000/svg" width="317.815" height="195.395" viewBox="0 0 317.815 195.395"><defs><style>.a{fill:#d4edfc;}.b{fill:#fff5f5;}.c{fill:#8fb1d9;}.d{fill:#4987aa;}.e{fill:#465468;}</style></defs><g transform="matrix(0.087, 0.996, -0.996, 0.087, 701.3, -7393.715)"><g transform="translate(7331.582 1134.294)"><path class="a" d="M7424,1688.825q-3.867-.993-7.644-2.3-1.1-.378-2.186-.785-.639-.236-1.27-.483a10.741,10.741,0,0,1-6.066-5.964c-4.476-11.022-4.926-23.736-.069-34.568,3.374-7.529,8.765-13.971,12.694-21.222l-.157-.085a12.524,12.524,0,0,0,1.141-3.174q.648.49,1.322.941a8,8,0,0,1,.589,2l-.136.021a15.691,15.691,0,0,0,5.22,11.106,15.074,15.074,0,0,0,2.424,1.747,6.98,6.98,0,0,0,.124,2.167,10.884,10.884,0,0,1,4.3-.02,8.3,8.3,0,0,1,2.452.938c2.986,1.727,5.067,5.436,8.516,5.529,2.374.066,4.378-1.686,6.652-2.379,3.325-1.014,6.857.312,10.14,1.458s7.046,2.1,10.111.452l.014-.014a9.465,9.465,0,0,0,9,2.176,6.361,6.361,0,0,0,3.819-2.829,3.951,3.951,0,0,0-.4-4.537,5.315,5.315,0,0,0-1.409-.98,14.381,14.381,0,0,0-2.519-1.028l.021-.066.9-.633-.019-.026a15.817,15.817,0,0,1,2.863-2,10.875,10.875,0,0,1,8.1-1.216,14.724,14.724,0,0,1,3.674,1.757,46.59,46.59,0,0,1,5.727,4.177q1.347,1.145,2.6,2.394a12.894,12.894,0,0,1,1.234,1.419c5.436,7.251,2.164,18.958-2.034,28.439-.818,1.849-1.671,3.613-2.5,5.243-2.132,4.183-8.366,5.755-12.683,7.6q-3.347,1.432-6.794,2.606a98.063,98.063,0,0,1-9.76,2.768,102.156,102.156,0,0,1-39.969,1.082q-2.092-.358-4.168-.808Q7425.916,1689.32,7424,1688.825Z" transform="translate(-7403.294 -1620.242)"/></g><g transform="translate(7344.639 1200.576)"><path class="b" d="M7480.417,2011.742q3.774,1.308,7.645,2.3a4.439,4.439,0,0,1,.145.743l-.157.044c.4,1.449.862,2.5,1.253,4.026,1.055.521,4.11,3.97,5.781,5.311q-.081-.069-.159-.142a17.8,17.8,0,0,1-2.914-3.814c-.919-1.41-1.354-3.516-.449-4.92l.024.015c.1-.124.213-.24.329-.354q2.075.45,4.167.808l-.008.049a23.793,23.793,0,0,0,7.886,6.083c2.988,1.412,6.185,2.553,8.662,4.741a33.77,33.77,0,0,1,8.953,13.48c.347.908.67,1.85,1.038,2.767a10.165,10.165,0,0,0,2.934,4.41l.031.01a17.87,17.87,0,0,1-2.824,4.715,42.355,42.355,0,0,1-6.87,7.687l-.169-.212a14.639,14.639,0,0,0-5.47-5.619c-2.729-1.79-5.663-3.081-7.219-4.114a40.571,40.571,0,0,1-12.76-13.651,30.808,30.808,0,0,1-1.869-3.22l.032-.022a37.4,37.4,0,0,0-3.716-4.646,18.8,18.8,0,0,1-2.846-3.42c-1.562-2.754-1.236-6.146-.865-9.29l.3-.054c-.166-.921-.342-1.845-.584-2.75l-.1.027A2.006,2.006,0,0,1,7480.417,2011.742Z" transform="translate(-7480.415 -2011.742)"/></g><g transform="translate(7388.826 1140.647)"><path class="a" d="M7753.132,1769.534l-.2-.313c2.7-4.273,4.2-8.8,2.617-13.6l-.156.03q-1.892-.927-3.785-1.852l.12-.247c2.581-1.837,5.526-3.576,8.684-3.335a9.592,9.592,0,0,1,6.193,3.283,13.338,13.338,0,0,1,.994,1.234c.165,0,.327,0,.491-.014l0-.069a8.652,8.652,0,0,1,5.621.938v-.278a24.629,24.629,0,0,0,8.789-1.595,9.385,9.385,0,0,0,3.611-2.181,4.258,4.258,0,0,0,1.167-3.9,2.794,2.794,0,0,0-3.239-2.032l-.039-.08-.578.284a5.666,5.666,0,0,0-1.329-3.33,11.858,11.858,0,0,0-4.1-2.927,35.082,35.082,0,0,0-12.584-3.415,3.183,3.183,0,0,1,.019-.462l.042,0a39.562,39.562,0,0,0,.466-9.447c-.307-2.922-.718-5.5-2.507-7.7l-.034.027a6.824,6.824,0,0,1-.77-.7q3.443-1.173,6.794-2.606c4.317-1.847,10.551-3.418,12.683-7.6.831-1.63,1.685-3.395,2.5-5.243l.066.029q1.49.061,2.981.049a16.841,16.841,0,0,0,5.546,8.36c-.125,3.032.4,6.513,2.17,8.978l.1.088c-.548.613-1.092,1.224-1.61,1.839a11.714,11.714,0,0,0-5.844,2.075c-.958.671-1.893,1.708-1.674,2.855a1.874,1.874,0,0,0,3.051.814l.071.041a2.155,2.155,0,0,1,.967-.628,5.119,5.119,0,0,0-.165.582,3.365,3.365,0,0,0,1.61,3.85c.542.225.926-.069,1.3-.486-.049.142-.1.284-.149.425a.552.552,0,0,0,.049.807,1.4,1.4,0,0,0,1.173.01l7.757-2.279a6.453,6.453,0,0,0,2.225-.972,6.187,6.187,0,0,0,1.643-2.458q1.328-2.961,2.4-6.025l-.051-.037a13.843,13.843,0,0,0,1.774-4.336q1.1-3.929,2.2-7.856l.267.044a29.212,29.212,0,0,0,.342-3.142c.652-2.685.855-5.964-.047-7.972a21.876,21.876,0,0,0-3.923-5.414c-.2-.227-.4-.447-.6-.664a9.014,9.014,0,0,0,7.329-2.412c.175-.154.346-.315.509-.479,2.215-2.221,3.552-5.145,4.846-8q.909-2.009,1.818-4.016a9.7,9.7,0,0,0,5.4-4.583l-.012-.007q.96-2.7,1.919-5.4l-.292-.161a9.117,9.117,0,0,1-10.217-2.519,11.541,11.541,0,0,1-2.289-5.6l.268-.042c14.221,2.37,23.621,7.236,28.881,18,2.31,4.722,3.43,9.921,4.531,15.061.984,4.588,3.044,12.093,3.834,16.719,2.371,13.883,2.042,21.132.8,29.367s-3.958,16.17-6.811,23.994c-6.42,17.606-16.022,35-30.521,46.871a26.7,26.7,0,0,1-2.843,2.032c-7.6,4.727-17.318,5.663-26.226,4.1-10.063-1.762-19.377-6.351-28.533-10.884l-9.377-4.644c-4.6-2.28-10.4-6.225-9.8-11.328.006-.059.013-.12.022-.179a23.266,23.266,0,0,1,8.694-15.264C7751.113,1770.871,7752.121,1770.2,7753.132,1769.534Z" transform="translate(-7741.412 -1657.762)"/></g><g transform="translate(7440.949 1105.425)"><path class="c" d="M8078.477,1503.257q-.912,2.009-1.818,4.016c-1.293,2.858-2.631,5.782-4.846,8-.164.164-.335.325-.509.479l-.342-.257c1.591-1.778,1.252-4.686-.159-6.611s-3.627-3.069-5.806-4.039a22.052,22.052,0,0,1-6.21-3.489c-3.2-2.956-4.014-7.715-3.819-12.069s1.208-8.685.872-13.031-2.429-8.963-6.479-10.576l-.082-.01a65.375,65.375,0,0,0,.029-15.948l.157.337.143-.012c.742,5.14,5.436,8.678,9.914,11.3s9.458,5.264,11.585,10c1.864,4.151,1.168,9.2,1.883,13.636a11.546,11.546,0,0,0,2.289,5.6,9.118,9.118,0,0,0,10.218,2.519l.292.161q-.959,2.7-1.92,5.4l.012.007A9.7,9.7,0,0,1,8078.477,1503.257Z" transform="translate(-8049.279 -1449.722)"/></g><g transform="translate(7317.766 1199.791)"><path class="a" d="M7378.587,2051.419l-.105-.012a3.331,3.331,0,0,1-.091-1.392,14.645,14.645,0,0,1,5.47,5.619l.17.212a17.393,17.393,0,0,1-3.248,2.093,4.542,4.542,0,0,0,2.2,3.611q3.864,2.407,7.772,4.749a16.935,16.935,0,0,0-.767,5.551,7.311,7.311,0,0,0,2.359,5.155l.472.06c-.009.059-.016.12-.022.179-.6,5.1,5.192,9.048,9.8,11.328l9.377,4.644c9.156,4.534,18.47,9.122,28.533,10.884,8.908,1.56,18.63.623,26.227-4.1l.079.127a265.858,265.858,0,0,1,1.306,50.146H7321.689c5.038-14.384,4.481-30.051,5.345-45.287,1.853-32.65,10.468-64.487,19.109-96.035l-.244-.066a12.578,12.578,0,0,1,.479-1.779q1.087.409,2.186.786a1.99,1.99,0,0,0,.205.989l.1-.027c.243.9.419,1.829.584,2.75l-.3.054c-.371,3.144-.7,6.535.865,9.289a18.86,18.86,0,0,0,2.846,3.42,37.309,37.309,0,0,1,3.716,4.646l-.031.022a30.722,30.722,0,0,0,1.869,3.22,40.475,40.475,0,0,0,5.978,7.986l-.167.161c.714,16.824-3.107,34.849-11.1,49.673-1.2,2.227-2.511,4.463-2.922,6.958s.295,5.362,2.405,6.752a6.4,6.4,0,0,0,6.359-.019,15.118,15.118,0,0,0,4.813-4.537C7373.939,2085.729,7376.643,2068.217,7378.587,2051.419Z" transform="translate(-7321.689 -2007.102)"/></g><g transform="translate(7437.13 1121.373)"><path class="c" d="M8052.226,1593.749l.342.257a9.013,9.013,0,0,1-7.329,2.413c-2.343-2.516-4.6-4.368-6.909-6.65,1.608-4.651.645-8.052-1.727-10.568a54.926,54.926,0,0,0-4.341-3.569,16.467,16.467,0,0,1-4.91-16.754l-.473-.179a63.435,63.435,0,0,0,3.664-14.777l.081.01c4.05,1.613,6.144,6.229,6.48,10.576s-.676,8.675-.873,13.031.617,9.114,3.819,12.07a22.061,22.061,0,0,0,6.21,3.489c2.179.97,4.4,2.116,5.806,4.04S8053.817,1591.972,8052.226,1593.749Z" transform="translate(-8026.726 -1543.922)"/></g><g transform="translate(7437.583 1165.026)"><path class="b" d="M8040.553,1803.956c2.311,2.282,4.566,4.134,6.909,6.65.2.217.4.437.6.664a21.837,21.837,0,0,1,3.923,5.414c.9,2.008.7,5.287.048,7.972a29.34,29.34,0,0,1-.342,3.142l-.268-.044q-1.1,3.929-2.2,7.856a13.88,13.88,0,0,1-1.775,4.336,6.219,6.219,0,0,1-.406.513,12.036,12.036,0,0,1-3.98,2.621c-1.842.887-4.666,2.1-6.538,2.993q-1.737,1.821-3.473,3.643c-.232.242-.44.522-.652.758-.371.417-.755.711-1.3.486a3.366,3.366,0,0,1-1.61-3.85,5.326,5.326,0,0,1,.164-.582,13.344,13.344,0,0,1,2.008-3.357c.438-.606.919-1.2,1.422-1.8.518-.615,1.062-1.226,1.61-1.839,2.823-3.164,5.765-6.386,6.083-10.349.137-1.691,1.178-3.848,1.315-5.54q-3.352-1.422-6.587-3.1l-.041-.052c1.85-1.5,2.549-4.112,2.959-6.515.683-4.018.953-8.279-.252-12.12l.286-.09C8039.165,1802.551,8039.863,1803.272,8040.553,1803.956Z" transform="translate(-8029.402 -1801.762)"/></g><g transform="translate(7440.28 1203.211)"><path class="b" d="M8045.482,2038.256c.05-.141.1-.283.148-.425.212-.237.42-.516.652-.758q1.736-1.824,3.472-3.643c1.873-.9,4.7-2.106,6.539-2.993a12.032,12.032,0,0,0,3.98-2.621,6.1,6.1,0,0,0,.406-.513l.051.037q-1.072,3.063-2.4,6.026a6.19,6.19,0,0,1-1.642,2.458,6.459,6.459,0,0,1-2.225.972l-7.757,2.279a1.4,1.4,0,0,1-1.173-.01A.552.552,0,0,1,8045.482,2038.256Z" transform="translate(-8045.33 -2027.302)"/></g><g transform="translate(7435.062 1183.751)"><path class="b" d="M8029.724,1915.52c-.137,1.691-1.178,3.848-1.315,5.54-.318,3.963-3.259,7.185-6.083,10.35l-.1-.088c-1.768-2.465-2.3-5.946-2.17-8.978a16.838,16.838,0,0,1-5.547-8.36q1.813-.015,3.625-.137a9.441,9.441,0,0,0,4.422-1.1,5.175,5.175,0,0,0,.54-.386l.041.052Q8026.366,1914.1,8029.724,1915.52Z" transform="translate(-8014.509 -1912.362)"/></g><g transform="translate(7428.767 1136.15)"><path class="c" d="M7995.568,1651.7c2.372,2.516,3.335,5.917,1.727,10.568-.691-.684-1.388-1.405-2.092-2.194l-.287.09a15.175,15.175,0,0,0-.789-2c-2.052-4.272-6.957-7.468-11.52-6.257a12.893,12.893,0,0,0-1.234-1.419q-1.255-1.247-2.6-2.394l.021-.025a6.25,6.25,0,0,1-.894-6.63l-.023-.156a6.768,6.768,0,0,0,2.909-1.038,8.934,8.934,0,0,0,2.636-3.523q1.351-2.7,2.424-5.519l.473.179a16.467,16.467,0,0,0,4.91,16.754A54.812,54.812,0,0,1,7995.568,1651.7Z" transform="translate(-7977.327 -1631.202)"/></g><g transform="translate(7432.014 1156.595)"><path class="a" d="M7999.557,1780.74q-1.49.01-2.981-.049l-.066-.029c4.2-9.481,7.469-21.188,2.033-28.439,4.563-1.21,9.468,1.986,11.52,6.257a15.175,15.175,0,0,1,.789,2c1.206,3.841.934,8.1.252,12.12-.41,2.4-1.109,5.011-2.96,6.515a5.186,5.186,0,0,1-.54.386,9.444,9.444,0,0,1-4.422,1.1Q8001.371,1780.722,7999.557,1780.74Z" transform="translate(-7996.509 -1751.964)"/></g><g transform="translate(7386.003 1074.694)"><path class="b" d="M7779.714,1298.939a65.373,65.373,0,0,1-.029,15.948,63.41,63.41,0,0,1-3.664,14.777q-1.074,2.816-2.424,5.519a8.939,8.939,0,0,1-2.636,3.523,6.77,6.77,0,0,1-2.909,1.038c-.513.076-1.032.119-1.544.147a46.4,46.4,0,0,1-19.392-3.361l-.067.085a23.454,23.454,0,0,0-5.811-3.425c-1.781-.738-3.691-1.321-5.136-2.6a12.81,12.81,0,0,1-2.087-2.6q-1.976-2.984-3.837-6.041l-.122.021a23.96,23.96,0,0,0-1.512-5.184l.244-.085a13.2,13.2,0,0,0-3.238-5.209,52.929,52.929,0,0,0-.812-5.365l.308-.062c2.437-3.442,2.6-7.995,2.108-12.183s-1.558-8.359-1.241-12.564c.29-3.854,2.071-7.9,5.384-9.742q1.866-.259,3.733-.515a3.665,3.665,0,0,0,1-.235,3.707,3.707,0,0,0,.74-.486l2.539-1.979-.008-.132a12.2,12.2,0,0,1,7.394,2.423c2.313,1.558,4.334,3.52,6.644,5.084a24.262,24.262,0,0,0,20.419,3.01q.284.6.569,1.211A62.693,62.693,0,0,1,7779.714,1298.939Z" transform="translate(-7724.739 -1268.208)"/></g><g transform="translate(7350.95 1035.847)"><path class="c" d="M7539.225,1045.023l-.008-.02a11.922,11.922,0,0,0,3.706-2.369c.366-.344.843-.743,1.307-.564,9.977-4.744,22.121-4.25,32.1.533,10.234,4.906,18.41,14.653,22.839,25.1l-.019.267q1.033.071,2.05.071l.078-.11a9.353,9.353,0,0,1,1.786,1.585,5.429,5.429,0,0,1,.933,7.053,8.226,8.226,0,0,1,1.419,7.707l.155.03a6.92,6.92,0,0,1-1.828,3.237l-.082-.083c-.62.252-1.251.478-1.89.672a24.263,24.263,0,0,1-20.419-3.01c-2.309-1.564-4.329-3.526-6.643-5.084a12.2,12.2,0,0,0-7.394-2.423l.009.132-2.54,1.979a3.7,3.7,0,0,1-.74.486,3.665,3.665,0,0,1-1,.235q-1.864.259-3.733.515c-3.313,1.842-5.094,5.888-5.383,9.742-.317,4.206.745,8.375,1.24,12.564s.329,8.741-2.108,12.183l-.308.063a52.367,52.367,0,0,0-1.326-5.165c-.187-.594-.471-1.271-1.074-1.421a1.838,1.838,0,0,0-1.284.337,37.819,37.819,0,0,0-8.02,6.052q-1.344.064-2.687.125a26.755,26.755,0,0,0-7.706,1.226l-.031-.1a49.8,49.8,0,0,1-4.532-61.15C7529.145,1050.851,7534.191,1047.236,7539.225,1045.023Z" transform="translate(-7517.696 -1038.755)"/></g><g transform="translate(7386.836 1228.403)"><path class="d" d="M7763.943,2185.893v.277a8.652,8.652,0,0,0-5.621-.937l.005.069c-.164.012-.327.017-.491.013a13.3,13.3,0,0,0-.994-1.234,9.587,9.587,0,0,0-6.193-3.283c-3.158-.241-6.1,1.5-8.683,3.335l-.12.247-6.8-3.327c-.742-.362-1.983-.076-2.019.747a7.17,7.17,0,0,1-.4,2.032l-.031-.01a10.161,10.161,0,0,1-2.934-4.41,68.771,68.771,0,0,1,32.546.7,19.241,19.241,0,0,0,6.273,1.05c2.124-.154,4.339-1.337,4.991-3.368a3.994,3.994,0,0,0,.162-.757,3.877,3.877,0,0,0,.022-.643l.577-.285.039.08a2.8,2.8,0,0,1,3.239,2.032,4.258,4.258,0,0,1-1.167,3.9,9.389,9.389,0,0,1-3.611,2.181A24.641,24.641,0,0,1,7763.943,2185.893Z" transform="translate(-7729.66 -2176.102)"/></g><g transform="translate(7360.298 1203.512)"><path class="d" d="M7625.432,2044.589a35.075,35.075,0,0,1,12.584,3.415,11.86,11.86,0,0,1,4.1,2.927,5.675,5.675,0,0,1,1.329,3.33c-.09.044-.18.09-.269.132a5.41,5.41,0,0,1,.247.511,4.028,4.028,0,0,1-.163.757c-.652,2.03-2.867,3.213-4.991,3.367a19.227,19.227,0,0,1-6.273-1.05,68.77,68.77,0,0,0-32.547-.7c-.367-.916-.691-1.859-1.038-2.767a33.765,33.765,0,0,0-8.952-13.48c-2.478-2.187-5.674-3.328-8.662-4.741a23.8,23.8,0,0,1-7.886-6.083l.008-.049a102.159,102.159,0,0,0,39.969-1.082,9.983,9.983,0,0,1,5.111,5.763,20.263,20.263,0,0,1,.929,8.248c-.095,1.657,2.2,1.387,3.861,1.388Q7624.11,2044.484,7625.432,2044.589Z" transform="translate(-7572.909 -2029.082)"/></g><g transform="translate(7408.312 1143.017)"><path class="b" d="M7878.43,1681.761l-.022.025a46.65,46.65,0,0,0-5.727-4.177,14.732,14.732,0,0,0-3.674-1.758,10.875,10.875,0,0,0-8.1,1.216,17.51,17.51,0,0,0-4.4-5.221l.068-.085a46.387,46.387,0,0,0,19.392,3.361c.511-.029,1.031-.071,1.544-.147l.023.156A6.25,6.25,0,0,0,7878.43,1681.761Z" transform="translate(-7856.509 -1671.762)"/></g><g transform="translate(7400.275 1200.744)"><path class="d" d="M7821.6,2030.544a3.325,3.325,0,0,0-.019.462q-1.321-.1-2.645-.107c-1.662,0-3.955.269-3.86-1.388a20.272,20.272,0,0,0-.929-8.248,9.986,9.986,0,0,0-5.112-5.763,98.064,98.064,0,0,0,9.761-2.768,6.83,6.83,0,0,0,.77.7l.034-.027c1.79,2.2,2.2,4.778,2.508,7.7a39.536,39.536,0,0,1-.466,9.447Z" transform="translate(-7809.039 -2012.732)"/></g><g transform="translate(7362.572 1128.433)"><path class="d" d="M7632.712,1608.234a14.385,14.385,0,0,1,2.519,1.028,5.294,5.294,0,0,1,1.409.98,3.952,3.952,0,0,1,.4,4.537,6.362,6.362,0,0,1-3.82,2.829,9.465,9.465,0,0,1-9-2.176l-.014.014c-3.064,1.646-6.829.7-10.111-.452s-6.814-2.472-10.139-1.458c-2.273.693-4.279,2.445-6.652,2.379-3.45-.093-5.529-3.8-8.517-5.529a8.287,8.287,0,0,0-2.451-.938l.083-.383a15.363,15.363,0,0,0,4.728.318,12.633,12.633,0,0,0,8.589,1.048,8.077,8.077,0,0,0,5.912-5.247,21.207,21.207,0,0,0,8.9-11.084,17.862,17.862,0,0,0,.541-8.458l.122-.02q1.858,3.057,3.836,6.041a12.8,12.8,0,0,0,2.087,2.6c1.444,1.278,3.354,1.861,5.135,2.6a23.434,23.434,0,0,1,5.811,3.425,17.528,17.528,0,0,1,4.4,5.222,15.82,15.82,0,0,0-2.864,2l.019.026-.9.633Z" transform="translate(-7586.339 -1585.622)"/></g><g transform="translate(7376.859 1233.201)"><path class="a" d="M7680.7,2230.227q-3.905-2.341-7.772-4.749a4.539,4.539,0,0,1-2.2-3.611,17.317,17.317,0,0,0,3.247-2.093,42.325,42.325,0,0,0,6.87-7.686,17.866,17.866,0,0,0,2.824-4.715,7.173,7.173,0,0,0,.4-2.032c.036-.823,1.276-1.109,2.018-.747l6.8,3.327,3.786,1.852.156-.03c1.582,4.8.086,9.328-2.618,13.6l.2.313c-1.011.667-2.021,1.338-2.961,2.071a23.063,23.063,0,0,0-6.105,7.253l-.125-.069Q7682.955,2231.582,7680.7,2230.227Z" transform="translate(-7670.729 -2204.44)"/></g><g transform="translate(7386.038 1258.987)"><path class="a" d="M7730.261,2359.437l.125.07a22.97,22.97,0,0,0-2.588,8.011l-.471-.059a7.311,7.311,0,0,1-2.36-5.155,16.936,16.936,0,0,1,.767-5.552Q7727.992,2358.105,7730.261,2359.437Z" transform="translate(-7724.944 -2356.752)"/></g><g transform="translate(7340.612 1105.996)"><path class="d" d="M7493.591,1484.363a1.4,1.4,0,0,1-.987.911,1.682,1.682,0,0,0,.859,2.065,1.662,1.662,0,0,0,2.155-1.556A1.682,1.682,0,0,0,7493.591,1484.363Zm-11.312,5.1a4.355,4.355,0,0,0-.975-.643,4.1,4.1,0,0,0-1.306-.383l-.056.484.071.031a1.6,1.6,0,1,0,2.052.657Zm5.352-29.828q1.344-.061,2.687-.125a37.836,37.836,0,0,1,8.02-6.053,1.839,1.839,0,0,1,1.285-.337c.6.149.888.826,1.074,1.42a52.089,52.089,0,0,1,1.326,5.166,52.644,52.644,0,0,1,.811,5.365,13.2,13.2,0,0,1,3.239,5.209l-.244.085a24.019,24.019,0,0,1,1.512,5.184,17.868,17.868,0,0,1-.54,8.458,21.206,21.206,0,0,1-8.9,11.084,8.078,8.078,0,0,1-5.912,5.247,12.631,12.631,0,0,1-8.588-1.048,15.351,15.351,0,0,1-4.728-.318,15.852,15.852,0,0,1-4.507-1.764,15.092,15.092,0,0,1-2.424-1.747,15.692,15.692,0,0,1-5.22-11.106l.136-.02a8.014,8.014,0,0,0-.589-2q-.676-.45-1.322-.941a28.8,28.8,0,0,1-7.742-8.9,1.651,1.651,0,0,1-.238-1.615,1.678,1.678,0,0,1,.912-.581l10-3.615a18.347,18.347,0,0,1,3.714-1.915s0,0,0,0a32.137,32.137,0,0,1,8.527-3.908A26.764,26.764,0,0,1,7487.631,1459.638Z" transform="translate(-7456.63 -1453.095)"/></g><g transform="translate(7376.498 1137.22)"><path class="b" d="M7671.693,1638.987a1.662,1.662,0,0,1-2.155,1.556,1.683,1.683,0,0,1-.858-2.066,1.4,1.4,0,0,0,.987-.911A1.681,1.681,0,0,1,7671.693,1638.987Z" transform="translate(-7668.593 -1637.522)"/></g><g transform="translate(7346.167 1232.925)"><path class="d" d="M7517.836,2213.983l.1.012c-1.943,16.8-4.647,34.311-14.8,47.806a15.138,15.138,0,0,1-4.813,4.537,6.4,6.4,0,0,1-6.359.019c-2.111-1.39-2.819-4.258-2.405-6.752s1.723-4.732,2.922-6.958c7.989-14.824,11.811-32.85,11.1-49.673l.168-.161a40.435,40.435,0,0,0,6.782,5.665c1.556,1.033,4.49,2.324,7.219,4.114A3.332,3.332,0,0,0,7517.836,2213.983Z" transform="translate(-7489.445 -2202.812)"/></g><g transform="translate(7363.071 1141.723)"><path class="b" d="M7592.48,1664.765l-.214.146a1.6,1.6,0,1,1-2.052-.657,2.125,2.125,0,0,0,1.114.136l.176-.268A4.361,4.361,0,0,1,7592.48,1664.765Z" transform="translate(-7589.29 -1664.122)"/></g><g transform="translate(7352.273 1202.877)"><path class="a" d="M7529.022,2026.58c-.905,1.4-.47,3.51.449,4.92a17.812,17.812,0,0,0,2.914,3.814q.078.074.159.142c-1.67-1.341-4.727-4.79-5.781-5.311-.391-1.522-.852-2.577-1.253-4.026l.157-.044a4.434,4.434,0,0,0-.145-.743q1.917.495,3.853.909c-.115.114-.226.23-.329.354Z" transform="translate(-7525.509 -2025.332)"/></g><g transform="translate(7316.966 1035.255)"><g transform="translate(55.439 70.149)"><path class="e" d="M7659.08,1468.873h-.011a.591.591,0,0,1-.581-.6,52.09,52.09,0,0,0-2.357-16.455c-.125-.4-.328-.941-.649-1.021a1.429,1.429,0,0,0-.853.278,37.159,37.159,0,0,0-9.174,7.283.592.592,0,1,1-.874-.8,38.322,38.322,0,0,1,9.466-7.516,2.393,2.393,0,0,1,1.718-.4,2.365,2.365,0,0,1,1.5,1.818,53.288,53.288,0,0,1,2.409,16.829A.592.592,0,0,1,7659.08,1468.873Z" transform="translate(-7644.425 -1449.598)"/></g><g transform="translate(59.095 74.747)"><path class="e" d="M7666.64,1489.044a.593.593,0,0,1-.591-.555,15.605,15.605,0,0,1,4.181-11.549.592.592,0,1,1,.859.815,14.4,14.4,0,0,0-3.857,10.658.592.592,0,0,1-.553.63Z" transform="translate(-7666.019 -1476.755)"/></g><g transform="translate(37.576 76.691)"><path class="e" d="M7539.507,1494.722a.593.593,0,0,1-.339-1.079c4.67-3.249,11.832-5.523,17.027-5.4a.593.593,0,0,1-.027,1.185c-4.971-.116-11.838,2.071-16.323,5.192A.591.591,0,0,1,7539.507,1494.722Z" transform="translate(-7538.914 -1488.235)"/></g><g transform="translate(23.051 83.402)"><path class="e" d="M7463.21,1545.089a.593.593,0,0,1-.328-.1,29.384,29.384,0,0,1-9.312-10.082,2.171,2.171,0,0,1-.225-2.217,2.207,2.207,0,0,1,1.213-.825l10.941-3.954a.593.593,0,0,1,.4,1.115l-10.941,3.954a1.327,1.327,0,0,0-.61.338c-.075.12-.092.393.253,1.012a28.2,28.2,0,0,0,8.936,9.674.593.593,0,0,1-.33,1.086Z" transform="translate(-7453.119 -1527.876)"/></g><g transform="translate(27.501 88.224)"><path class="e" d="M7490.3,1561.776a.592.592,0,0,1-.407-.161,15.155,15.155,0,0,0-9.908-4.074.593.593,0,1,1,.029-1.185,16.358,16.358,0,0,1,10.692,4.4.593.593,0,0,1-.407,1.024Z" transform="translate(-7479.404 -1556.355)"/></g><g transform="translate(32.945 86.514)"><path class="e" d="M7534.746,1578.64a12.452,12.452,0,0,1-5.853-1.352,16.09,16.09,0,0,1-17.337-15.521.593.593,0,0,1,1.185-.038,14.9,14.9,0,0,0,16.232,14.364.6.6,0,0,1,.353.079,11.939,11.939,0,0,0,8.157.984,7.465,7.465,0,0,0,5.479-4.844.593.593,0,0,1,.263-.335,20.556,20.556,0,0,0,8.637-10.755c1.385-4.34.934-9.093-1.339-14.126a.593.593,0,1,1,1.08-.488c2.4,5.309,2.865,10.347,1.388,14.974a21.828,21.828,0,0,1-8.968,11.3,8.7,8.7,0,0,1-6.273,5.431A13.371,13.371,0,0,1,7534.746,1578.64Z" transform="translate(-7511.556 -1546.257)"/></g><g transform="translate(58.348 99.882)"><path class="e" d="M7662.234,1631.022a.592.592,0,0,1-.584-.5,4.632,4.632,0,0,1,7.173-4.529.592.592,0,0,1-.663.982,3.447,3.447,0,0,0-5.338,3.37.594.594,0,0,1-.5.674A.635.635,0,0,1,7662.234,1631.022Z" transform="translate(-7661.603 -1625.219)"/></g><g transform="translate(58.938 101.372)"><path class="e" d="M7667.12,1638.314a1.944,1.944,0,0,1-.71-.133,2.25,2.25,0,0,1-.714-3.584,1.275,1.275,0,0,0,.5-.361,2.138,2.138,0,0,1,2.246,3.633A2.265,2.265,0,0,1,7667.12,1638.314Zm-.51-2.977a.6.6,0,0,1-.091.113.888.888,0,1,0,.227-.164A.567.567,0,0,1,7666.61,1635.337Z" transform="translate(-7665.087 -1634.015)"/></g><g transform="translate(42.338 105.465)"><path class="e" d="M7575.173,1662.089a.593.593,0,0,1-.554-.38,3.633,3.633,0,0,0-6.482-.606.593.593,0,1,1-1.008-.623,4.818,4.818,0,0,1,8.6.8.593.593,0,0,1-.553.805Z" transform="translate(-7567.04 -1658.194)"/></g><g transform="translate(45.513 105.993)"><path class="e" d="M7588.021,1665.554a2.314,2.314,0,0,1-.731-.119,2.194,2.194,0,0,1-.183-4.075.592.592,0,1,1,.467,1.089.984.984,0,1,0,1.274.424.593.593,0,0,1,1.027-.592,2.259,2.259,0,0,1-.88,3.04A2.093,2.093,0,0,1,7588.021,1665.554Z" transform="translate(-7585.795 -1661.311)"/></g><g transform="translate(54.057 111.906)"><path class="e" d="M7638.612,1699.462a2.4,2.4,0,0,1-.831-.145,4.744,4.744,0,0,1-1.3-.812.592.592,0,1,1,.738-.927,3.793,3.793,0,0,0,.968.627,1.621,1.621,0,0,0,2.034-1.385.592.592,0,1,1,1.185.027,2.674,2.674,0,0,1-1.216,2.113A2.824,2.824,0,0,1,7638.612,1699.462Z" transform="translate(-7636.26 -1696.24)"/></g><g transform="translate(56.72 114.13)"><path class="e" d="M7654.129,1713.791a.593.593,0,0,1-.482-.246,10.65,10.65,0,0,1-1.635-3.424.592.592,0,0,1,1.143-.312,9.463,9.463,0,0,0,1.453,3.043.592.592,0,0,1-.479.939Z" transform="translate(-7651.991 -1709.371)"/></g><g transform="translate(73.885 92.586)"><path class="e" d="M7775.252,1603.226a.592.592,0,0,1-.522-.312,19.567,19.567,0,0,0-9.933-8.408c-.336-.14-.678-.274-1.02-.408a13.854,13.854,0,0,1-4.282-2.294,13.239,13.239,0,0,1-2.188-2.722c-1.316-1.987-2.611-4.026-3.849-6.06a.593.593,0,0,1,1.013-.616c1.229,2.021,2.516,4.047,3.824,6.021a12.331,12.331,0,0,0,1.985,2.489,12.77,12.77,0,0,0,3.93,2.079c.349.137.7.274,1.041.416a20.749,20.749,0,0,1,10.523,8.942.593.593,0,0,1-.522.873Z" transform="translate(-7753.373 -1582.122)"/></g><g transform="translate(28.067 116.206)"><path class="e" d="M7534.369,1729.911a20.345,20.345,0,0,1-6.521-1.369l-.38-.133c-3.137-1.1-6.379-2.235-9.392-1.317a15.477,15.477,0,0,0-2.376,1.032,9.5,9.5,0,0,1-4.465,1.373c-2.409-.066-4.169-1.693-5.873-3.267a17.436,17.436,0,0,0-2.923-2.342c-2.383-1.379-6.7-2.106-13.715,2.258-2.628,1.634-4.583,1.823-5.81.56a.592.592,0,1,1,.849-.826c.978,1.007,2.9.153,4.334-.74,7.518-4.673,12.271-3.818,14.936-2.277a18.291,18.291,0,0,1,3.133,2.5c1.614,1.491,3.138,2.9,5.1,2.953a8.487,8.487,0,0,0,3.9-1.248,16.614,16.614,0,0,1,2.561-1.107c3.383-1.031,6.967.225,10.128,1.333l.379.133c3.16,1.1,6.776,2.026,9.634.49a.593.593,0,1,1,.562,1.044A8.456,8.456,0,0,1,7534.369,1729.911Z" transform="translate(-7482.747 -1721.638)"/></g><g transform="translate(75.531 114.529)"><path class="e" d="M7777.547,1723.319a10.079,10.079,0,0,1-7.626-3.466.592.592,0,0,1,.907-.763,8.837,8.837,0,0,0,9.061,2.708,5.713,5.713,0,0,0,3.472-2.547,3.379,3.379,0,0,0-.311-3.84,4.868,4.868,0,0,0-1.257-.867,15.519,15.519,0,0,0-17.68,2.723.593.593,0,1,1-.84-.836,16.7,16.7,0,0,1,19.07-2.937,5.943,5.943,0,0,1,1.561,1.1,4.539,4.539,0,0,1,.494,5.233,6.88,6.88,0,0,1-4.17,3.111A9.35,9.35,0,0,1,7777.547,1723.319Z" transform="translate(-7763.1 -1711.731)"/></g><g transform="translate(88.072 120.318)"><path class="e" d="M7840.52,1750.737a.592.592,0,0,1-.589-.532,3.862,3.862,0,0,0-2.381-3.133.593.593,0,0,1,.431-1.1,5.074,5.074,0,0,1,3.129,4.117.592.592,0,0,1-.529.65A.581.581,0,0,1,7840.52,1750.737Z" transform="translate(-7837.172 -1745.927)"/></g><g transform="translate(90.844 118.006)"><path class="e" d="M7858.095,1737.366a.592.592,0,0,1-.591-.551,3.779,3.779,0,0,0-3.4-3.363.593.593,0,1,1,.071-1.183,4.949,4.949,0,0,1,4.511,4.462.594.594,0,0,1-.55.633Z" transform="translate(-7853.547 -1732.268)"/></g><g transform="translate(14.015 101.199)"><path class="e" d="M7446.4,1703.2a101.913,101.913,0,0,1-36.656-6.8,11.386,11.386,0,0,1-6.4-6.294c-4.762-11.727-4.785-24.5-.061-35.033a89.943,89.943,0,0,1,7.25-12.419c1.981-3.011,4.03-6.125,5.735-9.345a.592.592,0,1,1,1.047.555c-1.731,3.269-3.8,6.407-5.792,9.441a89.067,89.067,0,0,0-7.158,12.253c-4.592,10.244-4.564,22.674.077,34.1a10.2,10.2,0,0,0,5.733,5.636,100.67,100.67,0,0,0,75.2-1.163c.849-.363,1.752-.709,2.709-1.075,3.779-1.446,8.064-3.084,9.679-6.252,3.516-6.9,5.793-13.028,6.768-18.218,1.35-7.191.22-12.64-3.357-16.193a46.052,46.052,0,0,0-8.224-6.487,14.2,14.2,0,0,0-3.522-1.691c-3.259-.92-7.149.234-10.408,3.089a.592.592,0,1,1-.781-.891c3.561-3.12,7.865-4.368,11.51-3.338a15.24,15.24,0,0,1,3.824,1.824,47.234,47.234,0,0,1,8.436,6.655c3.873,3.847,5.113,9.652,3.686,17.253-.995,5.3-3.309,11.539-6.876,18.538-1.822,3.574-6.333,5.3-10.312,6.821-.945.362-1.838.7-2.666,1.057a101.128,101.128,0,0,1-37.931,7.962C7447.4,1703.2,7446.9,1703.2,7446.4,1703.2Z" transform="translate(-7399.75 -1632.998)"/></g><g transform="translate(80.177 116.448)"><path class="e" d="M7791.135,1758.529a.592.592,0,0,1-.39-1.04,63.8,63.8,0,0,0,17.273-24.349c2.145-5.371,1.375-7.82.609-9.195a.593.593,0,0,1,1.036-.577c1.844,3.312.572,7.413-.544,10.211a65,65,0,0,1-17.6,24.8A.593.593,0,0,1,7791.135,1758.529Z" transform="translate(-7790.542 -1723.064)"/></g><g transform="translate(90.821 49.882)"><path class="e" d="M7871.325,1391.782a47.464,47.464,0,0,1-17.559-3.468.593.593,0,0,1,.466-1.09,45.742,45.742,0,0,0,19.124,3.315,8.074,8.074,0,0,0,4.15-1.082,8.424,8.424,0,0,0,2.444-3.3,63.807,63.807,0,0,0,.392-55.417.593.593,0,0,1,1.067-.516,64.987,64.987,0,0,1-.4,56.463,9.539,9.539,0,0,1-2.829,3.744,9.09,9.09,0,0,1-4.756,1.29C7872.742,1391.762,7872.041,1391.782,7871.325,1391.782Z" transform="translate(-7853.407 -1329.889)"/></g><g transform="translate(76.669 79.287)"><path class="e" d="M7770.41,1512.7a.593.593,0,0,1-.511-.892,16.94,16.94,0,0,1,13.258-8.237.593.593,0,1,1,.084,1.182,15.74,15.74,0,0,0-12.319,7.654A.592.592,0,0,1,7770.41,1512.7Z" transform="translate(-7769.817 -1503.569)"/></g><g transform="translate(105.419 63.764)"><path class="e" d="M7940.224,1420.572a.593.593,0,0,1-.532-.853,14.344,14.344,0,0,1,11.964-7.834.593.593,0,1,1,.05,1.184,13.129,13.129,0,0,0-10.95,7.17A.591.591,0,0,1,7940.224,1420.572Z" transform="translate(-7939.631 -1411.885)"/></g><g transform="translate(100.187 66.913)"><path class="e" d="M7909.952,1438.134a.594.594,0,0,1-.532-.33,7.105,7.105,0,0,1,.56-7.074.593.593,0,0,1,.967.685,5.888,5.888,0,0,0-.463,5.864.593.593,0,0,1-.531.855Z" transform="translate(-7908.73 -1430.48)"/></g><g transform="translate(105.358 85.495)"><path class="e" d="M7939.866,1547.137a.593.593,0,0,1-.255-1.128,5.113,5.113,0,0,0,2.764-5.1.593.593,0,0,1,1.175-.156,6.258,6.258,0,0,1-3.429,6.326A.592.592,0,0,1,7939.866,1547.137Z" transform="translate(-7939.273 -1540.24)"/></g><g transform="translate(97.582 88.588)"><path class="e" d="M7896.672,1571.168a12.759,12.759,0,0,1-2.87-.31.593.593,0,1,1,.267-1.155c3.392.785,7.978-.155,11.411-2.34a12.445,12.445,0,0,0,6.012-8.4.593.593,0,1,1,1.152.28,13.514,13.514,0,0,1-6.527,9.121A18.141,18.141,0,0,1,7896.672,1571.168Z" transform="translate(-7893.343 -1558.509)"/></g><g transform="translate(71.471 71.874)"><path class="e" d="M7739.709,1468.455a.593.593,0,0,1-.436-.994,24.6,24.6,0,0,1,14.612-7.669.593.593,0,1,1,.166,1.174,23.735,23.735,0,0,0-13.906,7.3A.593.593,0,0,1,7739.709,1468.455Z" transform="translate(-7739.117 -1459.786)"/></g><g transform="translate(100.764 55.773)"><path class="e" d="M7912.728,1373.774a.592.592,0,0,1-.452-.975c4.081-4.825,8.5-7.553,13.14-8.109a.593.593,0,1,1,.141,1.177c-4.331.519-8.5,3.109-12.376,7.7A.592.592,0,0,1,7912.728,1373.774Z" transform="translate(-7912.136 -1364.685)"/></g><g transform="translate(68.752 41.763)"><path class="e" d="M7723.649,1318.054a.593.593,0,0,1-.483-.935c1.957-2.764,2.612-6.615,2-11.771-.143-1.211-.338-2.447-.526-3.642a39.249,39.249,0,0,1-.717-9.037c.289-3.825,2.216-8.922,6.7-10.7a.593.593,0,1,1,.437,1.1c-3.977,1.573-5.694,6.2-5.956,9.684a38.337,38.337,0,0,0,.705,8.763c.19,1.206.388,2.453.533,3.688.645,5.46-.079,9.58-2.212,12.594A.6.6,0,0,1,7723.649,1318.054Z" transform="translate(-7723.057 -1281.931)"/></g><g transform="translate(80.422 41.027)"><path class="e" d="M7803.453,1312.438a.593.593,0,0,1-.577-.731,34.135,34.135,0,0,0-10.681-33.081.592.592,0,1,1,.773-.9,35.347,35.347,0,0,1,11.06,34.256A.593.593,0,0,1,7803.453,1312.438Z" transform="translate(-7791.989 -1277.584)"/></g><g transform="translate(82.568 38.846)"><path class="e" d="M7833.174,1277.458a25.22,25.22,0,0,1-2.635-.138,24.429,24.429,0,0,1-11.138-4.008c-1.165-.79-2.266-1.685-3.33-2.551s-2.166-1.761-3.312-2.532c-2.665-1.793-5.166-2.562-7.433-2.285a.592.592,0,0,1-.144-1.176c2.559-.312,5.329.521,8.238,2.478,1.19.8,2.312,1.714,3.4,2.6,1.045.85,2.126,1.729,3.249,2.49a23.615,23.615,0,0,0,21.753,2.28.593.593,0,0,1,.447,1.1A24.138,24.138,0,0,1,7833.174,1277.458Z" transform="translate(-7804.662 -1264.704)"/></g><g transform="translate(77.624 29.833)"><path class="e" d="M7808.459,1223.708c-3.243,0-6.571-1.764-9.746-3.774a59.137,59.137,0,0,0-10.747-5.8c-2.943-1.1-7.373-2.148-11.759-.947a.592.592,0,0,1-.312-1.143,20.469,20.469,0,0,1,12.484.979,59.985,59.985,0,0,1,10.968,5.914c3.894,2.464,8,4.547,11.658,3.12a.593.593,0,0,1,.431,1.1A8.115,8.115,0,0,1,7808.459,1223.708Z" transform="translate(-7775.458 -1211.466)"/></g><g transform="translate(54.218 37.367)"><path class="e" d="M7637.832,1281.917a.592.592,0,0,1-.591-.566,32.909,32.909,0,0,1,10.3-25.228.592.592,0,1,1,.808.866,31.712,31.712,0,0,0-9.927,24.309.592.592,0,0,1-.565.618Z" transform="translate(-7637.21 -1255.964)"/></g><g transform="translate(33.39 6.265)"><path class="e" d="M7527.706,1144.995a.591.591,0,0,1-.439-.194,50.394,50.394,0,0,1-4.585-61.877c2.843-4.253,7.726-8.122,13.4-10.614a.593.593,0,1,1,.477,1.085c-5.47,2.4-10.168,6.117-12.89,10.188a49.209,49.209,0,0,0,4.478,60.422.593.593,0,0,1-.438.991Z" transform="translate(-7514.186 -1072.258)"/></g><g transform="translate(59.158 0)"><path class="e" d="M7722.685,1065.392a.593.593,0,0,1-.546-.361c-4.658-10.993-13.088-20.263-22.548-24.8a38.889,38.889,0,0,0-16.229-3.789,34.727,34.727,0,0,0-16.112,3.625.593.593,0,1,1-.537-1.057,35.9,35.9,0,0,1,16.664-3.754,40.078,40.078,0,0,1,16.726,3.905c9.714,4.657,18.359,14.154,23.128,25.4a.593.593,0,0,1-.546.824Z" transform="translate(-7666.389 -1035.255)"/></g><g transform="translate(98.154 23.706)"><path class="e" d="M7916.057,1182.046h0a35.644,35.644,0,0,1-19.068-5.684.593.593,0,0,1,.659-.985,34.413,34.413,0,0,0,18.41,5.484.593.593,0,0,1,0,1.185Z" transform="translate(-7896.725 -1175.277)"/></g><g transform="translate(118.593 30.635)"><path class="e" d="M8020.445,1232.65a.593.593,0,0,1-.564-.775,7.693,7.693,0,0,0-1.19-7.505.593.593,0,0,1-.036-.733,4.84,4.84,0,0,0-.973-6.367.593.593,0,0,1,.716-.944,6.024,6.024,0,0,1,1.471,7.614,8.96,8.96,0,0,1,1.139,8.3A.592.592,0,0,1,8020.445,1232.65Z" transform="translate(-8017.448 -1216.205)"/></g><g transform="translate(51.579 69.924)"><path class="e" d="M7622.215,1455.925a.593.593,0,0,1-.4-1.029,8.256,8.256,0,0,0,2.621-6.032.593.593,0,0,1,.589-.6h0a.593.593,0,0,1,.593.589,9.462,9.462,0,0,1-3,6.911A.59.59,0,0,1,7622.215,1455.925Z" transform="translate(-7621.623 -1448.268)"/></g><g transform="translate(58.934 9.331)"><path class="e" d="M7681.567,1119.3a.592.592,0,0,1-.569-.429c-.348-1.206-1.474-1.969-2.667-2.776a12.039,12.039,0,0,1-2.261-1.812c-1.517-1.685-1.842-3.933-2.155-6.107-.283-1.964-.551-3.82-1.629-5.249a10.787,10.787,0,0,0-2.432-2.132,18.336,18.336,0,0,1-1.831-1.437,9.535,9.535,0,0,1-2.817-8.5.593.593,0,0,1,1.166.213,8.322,8.322,0,0,0,2.458,7.421,17.2,17.2,0,0,0,1.714,1.341,11.851,11.851,0,0,1,2.687,2.38c1.262,1.673,1.564,3.767,1.856,5.793.3,2.091.586,4.066,1.863,5.483a11.117,11.117,0,0,0,2.044,1.624c1.315.89,2.675,1.811,3.14,3.43a.593.593,0,0,1-.569.757Z" transform="translate(-7665.064 -1090.372)"/></g><g transform="translate(114.523 120.743)"><path class="e" d="M7996.47,1778.4q-1.251,0-2.5-.05a.593.593,0,0,1,.048-1.184,60.833,60.833,0,0,0,6.541-.088,8.916,8.916,0,0,0,4.149-1.008c2.1-1.311,2.831-4.161,3.228-6.5.631-3.711,1.214-9.177-.99-13.768-2.4-4.99-7.468-6.919-10.986-5.9a.593.593,0,1,1-.329-1.138c5.083-1.471,10.288,2.163,12.383,6.526,2.351,4.9,1.749,10.609,1.09,14.479-.438,2.581-1.263,5.744-3.769,7.305a10.049,10.049,0,0,1-4.7,1.185C7999.26,1778.353,7997.863,1778.4,7996.47,1778.4Z" transform="translate(-7993.405 -1748.432)"/></g><g transform="translate(120.015 146.494)"><path class="e" d="M8028.523,1933.686a1.554,1.554,0,0,1-.6-.128,3.9,3.9,0,0,1-1.962-4.524,10.685,10.685,0,0,1,2.082-3.9l.189-.261c.955-1.317,2.114-2.615,3.236-3.871,2.69-3.014,5.472-6.13,5.769-9.816a14.428,14.428,0,0,1,.681-2.9,17.539,17.539,0,0,0,.581-2.227c-2.1-.9-4.19-1.894-6.218-2.949a.593.593,0,0,1,.547-1.051c2.132,1.11,4.334,2.147,6.544,3.085a.593.593,0,0,1,.36.593,14.435,14.435,0,0,1-.682,2.9,13.663,13.663,0,0,0-.633,2.645c-.329,4.084-3.245,7.351-6.066,10.51a49.174,49.174,0,0,0-3.16,3.777l-.191.263a9.812,9.812,0,0,0-1.882,3.455,2.788,2.788,0,0,0,1.258,3.175c.209.087.343.018.878-.628.13-.158.266-.321.415-.478l5.328-5.59c1.572-1.649,3.2-3.355,4.621-5.168,3.5-4.457,5.907-9.714,8.238-14.8a3.487,3.487,0,0,0-.9-4.206.592.592,0,1,1,.723-.939,4.679,4.679,0,0,1,1.25,5.639c-2.36,5.146-4.8,10.467-8.384,15.034-1.458,1.859-3.1,3.585-4.695,5.255l-5.327,5.59c-.122.127-.243.274-.361.416A2.326,2.326,0,0,1,8028.523,1933.686Z" transform="translate(-8025.848 -1900.533)"/></g><g transform="translate(129.083 129.178)"><path class="e" d="M8093.544,1822.47a.593.593,0,0,1-.575-.737c.756-3.029.765-6.058.02-7.717a21.417,21.417,0,0,0-3.824-5.261c-1.614-1.806-3.215-3.284-4.764-4.714-1.568-1.449-3.191-2.947-4.843-4.795a.593.593,0,0,1,.884-.79c1.614,1.806,3.215,3.284,4.763,4.714,1.569,1.449,3.191,2.947,4.843,4.794a22.325,22.325,0,0,1,4.022,5.565c1.028,2.29.7,5.887.049,8.49A.594.594,0,0,1,8093.544,1822.47Z" transform="translate(-8079.407 -1798.259)"/></g><g transform="translate(127.051 155.172)"><path class="e" d="M8068,1971.343a.593.593,0,0,1-.258-1.127c.942-.454,2.156-1,3.329-1.524s2.375-1.065,3.3-1.513a8.479,8.479,0,0,0,5.849-7.1l2.205-7.854a.592.592,0,1,1,1.141.32l-2.205,7.855a9.59,9.59,0,0,1-6.475,7.845c-.944.455-2.159,1-3.334,1.527s-2.371,1.064-3.3,1.511A.594.594,0,0,1,8068,1971.343Z" transform="translate(-8067.406 -1951.794)"/></g><g transform="translate(122.722 167.4)"><path class="e" d="M8043.119,2037.065a1.429,1.429,0,0,1-.824-.238,1.157,1.157,0,0,1-.385-1.337.9.9,0,0,1,.956-.609.592.592,0,0,1,.364.993,2.864,2.864,0,0,0,.4-.094l7.757-2.278a5.991,5.991,0,0,0,2.026-.87,5.724,5.724,0,0,0,1.469-2.234c.875-1.95,1.677-3.961,2.383-5.979a.592.592,0,1,1,1.118.391c-.717,2.049-1.532,4.092-2.42,6.072a6.665,6.665,0,0,1-1.818,2.682,6.969,6.969,0,0,1-2.424,1.075l-7.757,2.278A3.018,3.018,0,0,1,8043.119,2037.065Z" transform="translate(-8041.836 -2024.021)"/></g><g transform="translate(116.16 168.772)"><path class="e" d="M8005.524,2039.565a2.7,2.7,0,0,1-.549-.057,2.286,2.286,0,0,1-1.855-1.731c-.227-1.183.472-2.442,1.915-3.452a12.4,12.4,0,0,1,6.423-2.2.593.593,0,0,1,.058,1.184,11.2,11.2,0,0,0-5.8,1.986c-.493.346-1.622,1.258-1.431,2.258a1.273,1.273,0,0,0,2.1.435.592.592,0,1,1,.979.667A2.19,2.19,0,0,1,8005.524,2039.565Z" transform="translate(-8003.078 -2032.125)"/></g><g transform="translate(117.499 149.515)"><path class="e" d="M8019.3,1936.914a.591.591,0,0,1-.481-.247c-2.1-2.928-2.352-6.814-2.291-9.052a17.485,17.485,0,0,1-5.518-8.476.593.593,0,1,1,1.139-.328,16.284,16.284,0,0,0,5.354,8.073.593.593,0,0,1,.22.485,14.139,14.139,0,0,0,2.06,8.609.593.593,0,0,1-.482.938Z" transform="translate(-8010.984 -1918.381)"/></g><g transform="translate(123.719 69.904)"><path class="e" d="M8080.915,1493.013a9.551,9.551,0,0,1-7.39-3.357c-2.47-3.045-2.651-7.013-2.826-10.85-.133-2.925-.271-5.95-1.426-8.521-1.9-4.24-6.233-6.758-10.419-9.193q-.464-.27-.924-.539c-4.328-2.536-9.4-6.16-10.2-11.728a.592.592,0,1,1,1.173-.169c.73,5.067,5.529,8.473,9.627,10.875l.92.537c4.349,2.529,8.846,5.145,10.906,9.732,1.247,2.777,1.39,5.916,1.529,8.952.174,3.814.338,7.416,2.562,10.158a8.441,8.441,0,0,0,10.794,1.685.593.593,0,0,1,.649.992A9.073,9.073,0,0,1,8080.915,1493.013Z" transform="translate(-8047.722 -1448.147)"/></g><g transform="translate(134.11 87.661)"><path class="e" d="M8125.248,1590.142a10.211,10.211,0,0,1-6.591-2.4c-3.542-3.023-4.388-7.909-4.474-11.475-.044-1.816.071-3.651.182-5.424a48.727,48.727,0,0,0,.109-6.729c-.355-4.59-2.21-8.228-5.087-9.979a.592.592,0,1,1,.616-1.012c3.207,1.952,5.267,5.925,5.652,10.9a49.411,49.411,0,0,1-.108,6.894c-.109,1.749-.222,3.556-.179,5.322.146,6.023,2.287,9.09,4.059,10.6a8.886,8.886,0,0,0,14.139-3.776.593.593,0,0,1,1.116.4,10.2,10.2,0,0,1-6.888,6.35A9.887,9.887,0,0,1,8125.248,1590.142Z" transform="translate(-8109.102 -1553.035)"/></g><g transform="translate(123.471 85.536)"><path class="e" d="M8068.452,1591.484a.592.592,0,0,1-.441-.988c1.413-1.578,1.011-4.222-.194-5.865-1.375-1.874-3.6-2.97-5.57-3.85l-.711-.315a19.818,19.818,0,0,1-5.658-3.28c-3.63-3.35-4.184-8.664-4.01-12.532.075-1.665.27-3.342.458-4.964a42.094,42.094,0,0,0,.415-7.995c-.448-5.815-3.57-9.059-6.109-10.071a.593.593,0,0,1,.439-1.1,10,10,0,0,1,4.929,4.523,15.891,15.891,0,0,1,1.921,6.558,42.829,42.829,0,0,1-.419,8.222c-.186,1.6-.378,3.259-.45,4.881-.163,3.617.334,8.568,3.629,11.608a18.946,18.946,0,0,0,5.332,3.066q.36.158.717.317c2.112.942,4.5,2.124,6.042,4.232,1.464,2,2,5.253.122,7.356A.59.59,0,0,1,8068.452,1591.484Z" transform="translate(-8046.259 -1540.481)"/></g><g transform="translate(119.58 100.482)"><path class="e" d="M8035.4,1661.012a.593.593,0,0,1-.558-.792c1.482-4.152.979-7.468-1.538-10.138a19.619,19.619,0,0,0-2.556-2.154c-.579-.435-1.179-.885-1.742-1.373a17.149,17.149,0,0,1-5.091-17.372.593.593,0,0,1,1.137.337,15.93,15.93,0,0,0,4.729,16.137c.534.461,1.117.9,1.68,1.322a20.813,20.813,0,0,1,2.706,2.288c2.813,2.984,3.416,6.8,1.792,11.35A.594.594,0,0,1,8035.4,1661.012Z" transform="translate(-8023.275 -1628.76)"/></g><g transform="translate(137.023 127.003)"><path class="e" d="M8127.254,1796.759a.592.592,0,0,1-.458-.968,7.412,7.412,0,0,0-.328-9.382.593.593,0,1,1,.863-.812,8.534,8.534,0,0,1,.382,10.944A.591.591,0,0,1,8127.254,1796.759Z" transform="translate(-8126.307 -1785.411)"/></g><g transform="translate(111.212 110.539)"><path class="e" d="M7975.907,1695.978a.589.589,0,0,1-.448-.2,6.867,6.867,0,0,1-.981-7.273.593.593,0,0,1,1.069.511,5.65,5.65,0,0,0,.807,5.985.593.593,0,0,1-.447.981Z" transform="translate(-7973.852 -1688.163)"/></g><g transform="translate(42.739 168.795)"><path class="e" d="M7599.472,2064.926a.589.589,0,0,1-.365-.126c-2.01-1.575-2.9-4-3.756-6.341-.134-.367-.268-.731-.4-1.091a33.108,33.108,0,0,0-8.79-13.248,25.538,25.538,0,0,0-6.613-3.778c-.628-.281-1.279-.571-1.912-.87a24.241,24.241,0,0,1-8.078-6.229.592.592,0,1,1,.892-.78,23.109,23.109,0,0,0,7.693,5.938c.622.294,1.265.582,1.888.86a26.4,26.4,0,0,1,6.913,3.972,34.245,34.245,0,0,1,9.113,13.714c.14.364.275.734.412,1.106.8,2.187,1.629,4.448,3.374,5.816a.593.593,0,0,1-.366,1.059Z" transform="translate(-7569.407 -2032.26)"/></g><g transform="translate(37.727 168.118)"><path class="e" d="M7551.842,2046.375a.592.592,0,0,1-.562-.406c-1.14-3.418-3.024-4.67-5.02-5.994a18.563,18.563,0,0,1-2.4-1.794,15.883,15.883,0,0,1-2.66-3.389c-.113-.175-.228-.354-.348-.538a5.149,5.149,0,0,1-.316-5.757.592.592,0,1,1,.949.71c-.87,1.164-.464,3.136.36,4.4q.182.278.352.543a14.773,14.773,0,0,0,2.468,3.161,17.424,17.424,0,0,0,2.255,1.677c1.978,1.313,4.219,2.8,5.487,6.607a.593.593,0,0,1-.375.75A.6.6,0,0,1,7551.842,2046.375Z" transform="translate(-7539.805 -2028.26)"/></g><g transform="translate(27.201 165.059)"><path class="e" d="M7487.976,2029.862a.592.592,0,0,1-.46-.218l-6.459-7.928c-1.685-2.068-2.146-4.633-2.59-7.113a30.556,30.556,0,0,0-.81-3.645.593.593,0,0,1,1.132-.352,31.516,31.516,0,0,1,.844,3.787c.438,2.44.852,4.744,2.343,6.574l6.459,7.927a.592.592,0,0,1-.458.967Z" transform="translate(-7477.63 -2010.189)"/></g><g transform="translate(34.612 167.441)"><path class="e" d="M7529.787,2035.6a.59.59,0,0,1-.264-.063,21,21,0,0,1-3.518-3.112,21.883,21.883,0,0,0-2.915-2.644.594.594,0,0,1-.311-.383c-.207-.8-.43-1.462-.665-2.159s-.471-1.4-.689-2.243a.592.592,0,1,1,1.147-.3c.207.8.43,1.462.665,2.159.21.621.426,1.26.626,2a25.159,25.159,0,0,1,2.976,2.722,22.7,22.7,0,0,0,3.212,2.892.593.593,0,0,1-.266,1.123Z" transform="translate(-7521.407 -2024.259)"/></g><g transform="translate(27.358 168.494)"><path class="e" d="M7487.46,2049.894a.593.593,0,0,1-.5-.274,37.164,37.164,0,0,0-4.224-5.431q-.248-.264-.5-.527a15.574,15.574,0,0,1-2.429-3.006c-1.719-3.033-1.268-6.858-.938-9.651a.592.592,0,1,1,1.177.139c-.4,3.41-.62,6.435.792,8.927a14.471,14.471,0,0,0,2.254,2.771q.256.267.508.535a38.423,38.423,0,0,1,4.359,5.6.593.593,0,0,1-.181.818A.586.586,0,0,1,7487.46,2049.894Z" transform="translate(-7478.558 -2030.482)"/></g><g transform="translate(36.712 188.711)"><path class="e" d="M7560.069,2174.842a.593.593,0,0,1-.538-.342c-1.719-3.684-6.347-6.14-9.725-7.934-1.1-.584-2.049-1.088-2.754-1.556a41.171,41.171,0,0,1-13.167-14.238.593.593,0,1,1,1.036-.576,39.984,39.984,0,0,0,12.787,13.826c.657.436,1.583.928,2.655,1.5,3.527,1.872,8.357,4.436,10.244,8.479a.593.593,0,0,1-.537.844Z" transform="translate(-7533.81 -2149.892)"/></g><g transform="translate(69.222 167.499)"><path class="e" d="M7764.656,2055.923a19.7,19.7,0,0,1-5.143-.921l-.639-.173a68.135,68.135,0,0,0-32.319-.678.593.593,0,0,1-.258-1.157,69.33,69.33,0,0,1,32.883.689l.645.174a16.553,16.553,0,0,0,5.433.858c1.795-.13,3.873-1.095,4.47-2.957a4.573,4.573,0,0,0-1.037-4.173,11.368,11.368,0,0,0-3.9-2.771,34.518,34.518,0,0,0-14.972-3.462c-.2,0-.409,0-.621.007-1.307.024-2.656.047-3.385-.709a1.679,1.679,0,0,1-.444-1.313,19.436,19.436,0,0,0-.893-8.008,9.27,9.27,0,0,0-5.173-5.579.593.593,0,1,1,.408-1.113,10.323,10.323,0,0,1,5.875,6.278,20.561,20.561,0,0,1,.966,8.489.51.51,0,0,0,.116.424c.368.384,1.6.362,2.508.346.221,0,.436-.009.645-.007a35.71,35.71,0,0,1,15.488,3.582,12.436,12.436,0,0,1,4.3,3.084,5.761,5.761,0,0,1,1.249,5.288c-.766,2.388-3.319,3.618-5.512,3.777C7765.114,2055.915,7764.885,2055.923,7764.656,2055.923Z" transform="translate(-7725.834 -2024.603)"/></g><g transform="translate(107.764 192.475)"><path class="e" d="M7956.089,2177.4a.62.62,0,0,1-.079-.005.593.593,0,0,1-.509-.665,3.585,3.585,0,0,0-1.722-3.494.593.593,0,1,1,.592-1.026,4.8,4.8,0,0,1,2.3,4.676A.593.593,0,0,1,7956.089,2177.4Z" transform="translate(-7953.482 -2172.127)"/></g><g transform="translate(109.441 190.137)"><path class="e" d="M7967.908,2163.148a.592.592,0,0,1-.558-.394,5.284,5.284,0,0,0-3.524-3.272.593.593,0,0,1,.314-1.143,6.484,6.484,0,0,1,4.326,4.017.593.593,0,0,1-.559.792Z" transform="translate(-7963.391 -2158.318)"/></g><g transform="translate(59.3 197.353)"><path class="e" d="M7682.315,2230.6a.592.592,0,0,1-.3-.082c-4.115-2.414-8.258-4.918-12.313-7.442a5.154,5.154,0,0,1-2.475-4.1.591.591,0,0,1,.332-.544c4.218-2.065,7.24-6.07,9.906-9.6,1.641-2.176,3.007-4.16,3.1-6.415a1.412,1.412,0,0,1,.734-1.17,2.364,2.364,0,0,1,2.135-.084l10.589,5.178a.593.593,0,0,1-.521,1.065l-10.589-5.178a1.181,1.181,0,0,0-1.008.038c-.152.09-.155.172-.157.2-.12,2.806-1.906,5.175-3.342,7.078-2.671,3.541-5.689,7.542-9.97,9.772a4.042,4.042,0,0,0,1.888,2.757c4.045,2.519,8.179,5.018,12.286,7.426a.593.593,0,0,1-.3,1.1Z" transform="translate(-7667.228 -2200.941)"/></g><g transform="translate(82.786 202.656)"><path class="e" d="M7806.545,2247.047a.586.586,0,0,1-.316-.092.592.592,0,0,1-.185-.818c3.082-4.873,3.895-9.035,2.555-13.1a.593.593,0,0,1,1.126-.371c1.458,4.427.607,8.909-2.679,14.1A.6.6,0,0,1,7806.545,2247.047Z" transform="translate(-7805.952 -2232.259)"/></g><g transform="translate(71.268 104.799)"><path class="e" d="M7794.185,1812.293a46.554,46.554,0,0,1-8.027-.713c-10.227-1.791-19.615-6.441-28.694-10.938l-9.376-4.644c-9-4.459-10.475-8.948-10.122-11.927a23.714,23.714,0,0,1,8.94-15.843c.99-.771,2.063-1.479,3.1-2.164,2.56-1.691,4.976-3.289,6.378-5.786a.593.593,0,1,1,1.033.58c-1.543,2.747-4.193,4.5-6.758,6.194-1.019.673-2.071,1.369-3.026,2.111a22.529,22.529,0,0,0-8.49,15.047c-.586,4.961,5.683,8.85,9.471,10.727l9.377,4.644c9,4.46,18.314,9.071,28.373,10.833,11.125,1.948,21.547-.243,28.591-6.011,12.623-10.337,22.831-26.021,30.34-46.616,2.748-7.538,5.536-15.591,6.781-23.878,1.27-8.444,1.518-15.6-.8-29.181-.478-2.794-1.412-6.609-2.317-10.3-.579-2.361-1.125-4.592-1.512-6.4-1.079-5.035-2.193-10.241-4.483-14.925-4.824-9.867-13.332-15.152-28.447-17.672a.593.593,0,1,1,.2-1.169c15.537,2.589,24.3,8.068,29.316,18.32,2.354,4.814,3.484,10.092,4.578,15.2.383,1.787.928,4.009,1.5,6.361.909,3.71,1.851,7.546,2.334,10.381,2.347,13.743,2.094,20.99.806,29.556-1.262,8.4-4.071,16.513-6.84,24.108-7.582,20.8-17.912,36.653-30.7,47.126C7810.133,1809.881,7802.551,1812.292,7794.185,1812.293Z" transform="translate(-7737.918 -1654.26)"/></g><g transform="translate(81.583 197.229)"><path class="e" d="M7821.844,2218.039a.59.59,0,0,1-.382-.14c-1.951-1.648-2.866-4.058-3.751-6.388-.127-.336-.254-.67-.384-1a18.782,18.782,0,0,0-3.453-6.006,9.032,9.032,0,0,0-5.8-3.092c-2.993-.227-5.873,1.5-8.293,3.228a.593.593,0,0,1-.687-.965c2.594-1.847,5.7-3.7,9.071-3.445a10.087,10.087,0,0,1,6.588,3.477,20.766,20.766,0,0,1,3.679,6.37c.131.334.259.672.389,1.012.831,2.189,1.691,4.453,3.408,5.9a.593.593,0,0,1-.383,1.045Z" transform="translate(-7798.844 -2200.208)"/></g><g transform="translate(97.938 201.549)"><path class="e" d="M7920.116,2272.36a4.664,4.664,0,0,1-2.332-.639,9.041,9.041,0,0,1-3.178-3.636c-3.257-5.928-4.045-12.771-4.807-19.389-.3-2.623-.614-5.335-1.076-7.94-.532-3.006-1.436-6.835-3.715-9.788-2.3-2.984-5.78-4.526-8.859-3.931a.593.593,0,0,1-.226-1.164c3.515-.68,7.449,1.035,10.022,4.371,2.438,3.157,3.388,7.166,3.945,10.3.468,2.641.782,5.371,1.086,8.012.749,6.5,1.523,13.23,4.668,18.954a7.978,7.978,0,0,0,2.73,3.18,3.118,3.118,0,0,0,3.549-.156.592.592,0,1,1,.817.858A3.837,3.837,0,0,1,7920.116,2272.36Z" transform="translate(-7895.444 -2225.725)"/></g><g transform="translate(106.735 200.818)"><path class="e" d="M7993.7,2236.079a24.56,24.56,0,0,1-11.078-2.322,38.239,38.239,0,0,1-7.073-4.913c-1.193-.969-2.427-1.972-3.69-2.863-2.472-1.743-7.295-4.446-11.836-2.966a26.382,26.382,0,0,0-3.691,1.678c-2.81,1.445-5.715,2.94-8.506,2.077a.593.593,0,0,1,.351-1.132c2.329.72,5.016-.662,7.612-2a27.71,27.71,0,0,1,3.866-1.751c5.033-1.64,10.235,1.253,12.887,3.124,1.3.915,2.546,1.93,3.755,2.912a37.479,37.479,0,0,0,6.849,4.769c6.641,3.267,14.288,2.313,22.874.839a.593.593,0,1,1,.2,1.168A75.466,75.466,0,0,1,7993.7,2236.079Z" transform="translate(-7947.406 -2221.403)"/></g><g transform="translate(68.479 222.952)"><path class="e" d="M7724.417,2364.221a.59.59,0,0,1-.38-.139,7.9,7.9,0,0,1-2.571-5.569,17.883,17.883,0,0,1,.838-5.937.592.592,0,1,1,1.142.316,16.854,16.854,0,0,0-.8,5.543,6.722,6.722,0,0,0,2.149,4.739.592.592,0,0,1-.381,1.046Z" transform="translate(-7721.441 -2352.141)"/></g><g transform="translate(131.291 137.998)"><path class="e" d="M8093.04,1917.748a.593.593,0,0,1-.56-.788,89.086,89.086,0,0,1,13.661-25.186c2.3-2.972,4.814-5.834,7.249-8.6,2.86-3.252,5.817-6.614,8.414-10.152,5.655-7.7,8.544-15.131,8.588-22.076a.593.593,0,0,1,.593-.589h0a.593.593,0,0,1,.589.6c-.046,7.2-3.013,14.859-8.817,22.769-2.628,3.58-5.6,6.963-8.479,10.234-2.423,2.754-4.928,5.6-7.2,8.544a87.911,87.911,0,0,0-13.479,24.851A.593.593,0,0,1,8093.04,1917.748Z" transform="translate(-8092.447 -1850.355)"/></g><g transform="translate(143.542 129.819)"><path class="e" d="M8166.859,1852.36a.593.593,0,0,1-.544-.356c-3.224-7.391-.691-14.583,2.212-20.644,1.157-2.415,2.488-4.79,3.775-7.087a69.179,69.179,0,0,0,6.008-12.65,34.807,34.807,0,0,0,1.585-9.017.593.593,0,0,1,1.185.051,36.038,36.038,0,0,1-1.64,9.324,70.065,70.065,0,0,1-6.1,12.871c-1.278,2.28-2.6,4.638-3.741,7.019-2.787,5.819-5.228,12.706-2.194,19.658a.593.593,0,0,1-.542.83Z" transform="translate(-8164.811 -1802.04)"/></g><g transform="translate(92.852 165.071)"><path class="e" d="M7868.471,2029.087a.6.6,0,0,1-.081-.005.593.593,0,0,1-.507-.667,38.808,38.808,0,0,0,.463-9.305c-.316-3-.743-5.669-2.78-7.852a.593.593,0,0,1,.867-.808c2.287,2.452,2.753,5.317,3.091,8.537a39.791,39.791,0,0,1-.467,9.589A.593.593,0,0,1,7868.471,2029.087Z" transform="translate(-7865.407 -2010.26)"/></g><g transform="translate(103.347 192.556)"><path class="e" d="M7928.295,2183.577l-.312,0a.592.592,0,0,1,.007-1.185H7928a24.233,24.233,0,0,0,8.784-1.554,8.935,8.935,0,0,0,3.388-2.031,3.681,3.681,0,0,0,1.027-3.34,2.4,2.4,0,0,0-1.134-1.417,1.791,1.791,0,0,0-1.368-.2.593.593,0,0,1-.329-1.138,2.96,2.96,0,0,1,2.277.307,3.608,3.608,0,0,1,1.7,2.138,4.816,4.816,0,0,1-1.306,4.463,10.017,10.017,0,0,1-3.833,2.329A25.019,25.019,0,0,1,7928.295,2183.577Z" transform="translate(-7927.397 -2172.602)"/></g><g transform="translate(28.61 197.238)"><path class="e" d="M7492.054,2265.664a6.015,6.015,0,0,1-3.316-.931c-2.582-1.7-3.049-5.019-2.665-7.344a21.176,21.176,0,0,1,2.654-6.53q.167-.307.332-.612c7.73-14.344,11.749-32.338,11.024-49.368a.593.593,0,0,1,1.185-.05c.733,17.237-3.337,35.454-11.166,49.98l-.334.616a20.288,20.288,0,0,0-2.526,6.157c-.353,2.131.174,4.863,2.146,6.161a5.8,5.8,0,0,0,5.759-.048,14.726,14.726,0,0,0,4.615-4.37c4.6-6.118,8.025-13.557,10.458-22.743a180.5,180.5,0,0,0,4.3-25.356.593.593,0,1,1,1.177.135,181.5,181.5,0,0,1-4.331,25.523c-2.473,9.337-5.958,16.91-10.657,23.153a15.78,15.78,0,0,1-5.013,4.707A7.909,7.909,0,0,1,7492.054,2265.664Z" transform="translate(-7485.955 -2200.261)"/></g><g transform="translate(145.322 256.966)"><path class="e" d="M8177.183,2604.957l-.046,0a.593.593,0,0,1-.546-.636,263.105,263.105,0,0,0-1.259-50.6.592.592,0,1,1,1.175-.155,264.471,264.471,0,0,1,1.266,50.848A.592.592,0,0,1,8177.183,2604.957Z" transform="translate(-8175.327 -2553.047)"/></g><g transform="translate(0 164.802)"><path class="e" d="M7317.56,2152.749a.575.575,0,0,1-.2-.036.592.592,0,0,1-.356-.759c4.176-11.544,4.65-24.166,5.108-36.372.115-3.062.234-6.228.41-9.326,1.882-33.194,10.787-65.7,19.4-97.145a.593.593,0,0,1,1.144.313c-8.6,31.381-17.483,63.83-19.359,96.9-.175,3.086-.294,6.247-.408,9.3-.462,12.3-.94,25.014-5.179,36.731A.592.592,0,0,1,7317.56,2152.749Z" transform="translate(-7316.966 -2008.675)"/></g><g transform="translate(101.426 255.319)"><path class="e" d="M7932.729,2590.039a.592.592,0,0,1-.488-.256c-9.41-13.645-13.008-30.7-16.182-45.75a.593.593,0,0,1,1.16-.245c3.151,14.939,6.723,31.872,16,45.322a.593.593,0,0,1-.488.929Z" transform="translate(-7916.046 -2543.317)"/></g><g transform="translate(70.697 242.766)"><path class="e" d="M7735.136,2502.77a.6.6,0,0,1-.2-.035.593.593,0,0,1-.356-.759,91.879,91.879,0,0,0,5.46-32.2.592.592,0,0,1,.586-.6h.006a.593.593,0,0,1,.593.586,93.051,93.051,0,0,1-5.531,32.617A.592.592,0,0,1,7735.136,2502.77Z" transform="translate(-7734.544 -2469.174)"/></g></g></g></svg>