<svg xmlns="http://www.w3.org/2000/svg" width="352.861" height="275.98" viewBox="0 0 352.861 275.98"><defs><style>.a{fill:#4987aa;}.b{fill:#fff5f5;}.c{fill:#d4edfc;}.d{fill:#8fb1d9;}.e{fill:#465468;}</style></defs><g transform="translate(-0.85 145.422) rotate(-60)"><g transform="translate(147.065 161.783)"><path class="a" d="M4072.554,1710.825a67.912,67.912,0,0,1,7.607,9.835c.142.231.282.465.421.7,3.036,5.154,5.02,11.064,4.628,17.022-.5,7.558-4.912,14.606-11.112,18.955a32.076,32.076,0,0,1-15.121,5.456,37.035,37.035,0,0,1-6.458.1,24.6,24.6,0,0,1-7.32-1.529c-4.732-1.882-8.3-6.276-11.639-10.119-5.468-6.295-9.15-13.92-13.28-21.194a68.7,68.7,0,0,0-9.636-13.714,27.026,27.026,0,0,1-4.567-5.417c-2.682-4.948-1.371-12.583,3.772-14.864l0-.1a1.607,1.607,0,0,0,.379-.046q2.31,4.435,4.392,8.985l.024-.005c.073.364.147.729.221,1.094a18.347,18.347,0,0,0,3.9-1.36,35.477,35.477,0,0,0,13.588-10.612,24.164,24.164,0,0,0,4.8-12.524c-.266-.144-.532-.291-.8-.436l.128-.36q-2.1-2.839-4.067-5.781l.091-.06a4.494,4.494,0,0,1,4.791-.431,13.231,13.231,0,0,1,3.919,3.2l8.317,8.8q9.373,9.911,18.744,19.823C4069.716,1707.75,4071.155,1709.271,4072.554,1710.825Z" transform="translate(-4004.719 -1673.931)"/></g><g transform="translate(81.503 126.997)"><path class="b" d="M3645,1538.9a9.282,9.282,0,0,0-2.425-6.006q-2.078-2.349-4.157-4.7c-1.387-1.568-2.829-3.241-3.226-5.3,0-.021-.007-.041-.011-.062-.41-2.226.47-4.464,1.169-6.621,1.845-5.69,2.506-11.685,3.157-17.632.2-1.776,1.618-2.868,2.747-4.253l9.3-11.421q1.03-1.266,2.063-2.533c1.015-1.245,2.489-2.6,3.943-2.575a2.188,2.188,0,0,1,1.025.268,2.569,2.569,0,0,1,1.222,1.7,3.507,3.507,0,0,1,.091,1.151,7.781,7.781,0,0,1-1.176,3.079c-.055.1-.11.192-.165.286-2.513,4.354-5.594,8.372-7.955,12.809-2.414,4.537-4.073,9.716-3.255,14.789l.222.055a35.259,35.259,0,0,1,3.131-8.388,50.305,50.305,0,0,1,5.386-7.485q3.19-3.911,6.384-7.818,1.718-2.11,3.441-4.216c.119-.145.241-.294.369-.435a2.783,2.783,0,0,1,.727-.594c1.431-.759,3.23.686,3.455,2.293s-.58,3.157-1.358,4.578c-.463.846-.928,1.694-1.41,2.531-.635,1.105-1.3,2.192-2.043,3.232-1.378,1.935-3,3.7-4.3,5.683-3.03,4.617-4.19,10.158-5.162,15.614l.319.057a5.393,5.393,0,0,0,4.209.1l.02.011a86.067,86.067,0,0,1,7.716-12.017q2.3-3.182,4.6-6.362,1.351-1.865,2.7-3.732a3.379,3.379,0,0,1,1.882-1.565,2.267,2.267,0,0,1,2.381,1.763,6.019,6.019,0,0,1-.264,3.205,43.528,43.528,0,0,1-5.967,12.7c-2.624,3.817-5.991,7.556-6.621,12.061l-.131-.018a12.377,12.377,0,0,0,.032,3.746c2.511,5.521,4.975,11.63,3.379,17.409-.043.156-.087.31-.137.467a26.009,26.009,0,0,1-3.315,6.249l-5.174,7.912q-6.04,9.235-12.077,18.469l.1.062q-.657,1.179-1.318,2.359a23.414,23.414,0,0,1-5.67-7.831,38.144,38.144,0,0,1-4.269-15,22.676,22.676,0,0,1,2.9-12.469l.238.113a20.948,20.948,0,0,0,3.18-4.908A5.425,5.425,0,0,0,3645,1538.9Z" transform="translate(-3635.081 -1477.808)"/></g><g transform="translate(113.341 152.957)"><path class="c" d="M3853.437,1655.016l0,.1c-5.144,2.281-6.455,9.915-3.773,14.864a27.025,27.025,0,0,0,4.567,5.417,68.7,68.7,0,0,1,9.636,13.714c-.094,3.95-1.906,8.824-4.351,11.41a3.383,3.383,0,0,1-2.222,1.273c-.878.021-1.779-.871-1.448-1.681a15.692,15.692,0,0,0-2.511,7.786,8.9,8.9,0,0,1-8.432-2.258c-.17.715-1.11.873-1.841.814a11.616,11.616,0,0,1-9.913-15.72c-.442.99-2.056.793-2.666-.1a4.654,4.654,0,0,1-.4-3.15c.3-2.783.67-5.729,2.414-7.916a8.891,8.891,0,0,1-6.949-.752,10.141,10.141,0,0,0,7.861-4.693v0a12.027,12.027,0,0,0,.266-3.748,6.042,6.042,0,0,0-.184-.919,4.8,4.8,0,0,0-1.728-2.634,11.231,11.231,0,0,1-1.884.213,3.5,3.5,0,0,1-2.817-.9,1.678,1.678,0,0,1,.094-2.2c.172-.074.344-.154.513-.236a1,1,0,0,0-.513.236,14.22,14.22,0,0,1-8.858.816l-.179-.05c1.6-5.779-.868-11.887-3.379-17.409a12.384,12.384,0,0,1-.032-3.746l.131.018c.63-4.505,4-8.244,6.622-12.061a43.273,43.273,0,0,0,4.049-7.327,1.37,1.37,0,0,0,.821.239,50.919,50.919,0,0,0,12.41,8.083l.126-.135,3.31,3.1q.308.449.608.9a196.759,196.759,0,0,1,11.027,18.615A1.617,1.617,0,0,1,3853.437,1655.016Z" transform="translate(-3814.585 -1624.17)"/></g><g transform="translate(102.317 107.368)"><path class="b" d="M3791.049,1424.012l-3.31-3.1-.126.135a50.93,50.93,0,0,1-12.41-8.083,1.371,1.371,0,0,1-.821-.24,42.877,42.877,0,0,0,1.917-5.369,6.015,6.015,0,0,0,.265-3.205,2.267,2.267,0,0,0-2.38-1.763,3.377,3.377,0,0,0-1.882,1.564q-1.351,1.865-2.7,3.732c-.2-.2-.4-.41-.6-.614l.126-.128a40.935,40.935,0,0,1-4.693-5.463l-.2-.115c.482-.837.947-1.685,1.41-2.531.779-1.421,1.584-2.973,1.359-4.578s-2.024-3.052-3.455-2.293a2.78,2.78,0,0,0-.727.594l-.044-.161a46.086,46.086,0,0,0-6.245-3.712l-.183.046a2.569,2.569,0,0,0-1.222-1.7,2.189,2.189,0,0,0-1.025-.268l.009-.333a2.986,2.986,0,0,1,2.126-4.69l.16-.273q-.575-.33-1.125-.7a7.275,7.275,0,0,1-2.334-2.327,3.446,3.446,0,0,1-.213-3.184l-.025-.192v0c.333-.039.665-.094.991-.158a18.159,18.159,0,0,0,3.915-1.242,66.983,66.983,0,0,0,19.95,4.406,34.834,34.834,0,0,0-3.411-10.4l-.185.025a1.233,1.233,0,0,1-.007-.5l.073-.055c.142.183.284.364.428.545a10.58,10.58,0,0,0,3.1,2.916,3.968,3.968,0,0,0,4.067,0,1.933,1.933,0,0,0,1.761,1.476,5.669,5.669,0,0,0,2.412-.44,8.664,8.664,0,0,0,5.176,3.984l-.034.378q.367.354.738.708l-.017.02a11.954,11.954,0,0,0,2.1,2.249l.14-.2a21.766,21.766,0,0,0,7.352,3.688,9.642,9.642,0,0,0,7.975-1.323,7.889,7.889,0,0,0,.874-.768c.124.34.25.679.376,1.02l.015,0a79.561,79.561,0,0,1,2.715,12.725,71.905,71.905,0,0,0,1,7.98,36.209,36.209,0,0,0,3.758,8.986q3.193,5.883,6.921,11.453,1.961,2.94,4.067,5.78l-.128.36c.264.145.531.293.8.436a24.167,24.167,0,0,1-4.8,12.524,35.479,35.479,0,0,1-13.588,10.612,18.357,18.357,0,0,1-3.9,1.36q-.112-.548-.222-1.094l-.023.005q-2.08-4.547-4.391-8.985a196.744,196.744,0,0,0-11.027-18.615l0,0c.034.048.142.085.176.013.05-.107-.044-.22-.129-.3Z" transform="translate(-3752.429 -1367.14)"/></g><g transform="translate(61.898 12.558)"><path class="c" d="M3609.651,871.816a5.054,5.054,0,0,0-2.54.766l.059.089a2.221,2.221,0,1,0,2.494-.424Zm-17.377-4.035a2.293,2.293,0,0,0-1.568,4.294,2.475,2.475,0,0,0,3.069-.954l.316.1c.937-1.291-.218-3.207-1.745-3.684Zm-46.682,91.334c-.287.539-.56,1.087-.835,1.632a30.109,30.109,0,0,1-4.984,7.6,14.8,14.8,0,0,1-1.508,1.357c-2.93,2.29-7.164,3.287-10.426,1.5-3.209-1.756-4.482-6.68-1.949-9.262a14.464,14.464,0,0,0,1.086-3.572l-.092-.016a14.538,14.538,0,0,1,4.149-11.13,2.749,2.749,0,0,1-.234-3.04,4.487,4.487,0,0,1,.42-.685,10.976,10.976,0,0,1,1.724-1.719l-1.227-1.075a31.76,31.76,0,0,0,7.02-9.145c1.321-2.591,2.418-5.527,4.762-7.2l-.064-.089a9.6,9.6,0,0,0,1.717-3.092c-.25-2.409.635-4.842.76-7.286a13.754,13.754,0,0,0-.75-5.057,3.024,3.024,0,0,1-.255-1.616c.126-.539.754-.992,1.234-.717.5-.936-.63-1.974-.589-3.033a3.288,3.288,0,0,1,.977-1.793c3.42-4.237,3.428-10.827,7.393-14.409a19.867,19.867,0,0,0,2.767-4.789l-.119-.048a31.775,31.775,0,0,1,.3-3.477,40.27,40.27,0,0,1,1.307-5.9,52.344,52.344,0,0,1,10.062-18.48l-.107-.09q1.3-1.5,2.592-3a47.032,47.032,0,0,1,1.784-8.045c.546-1.919,1.151-3.939,2.606-5.305.532-.5,1.16-.894,1.671-1.415.429-.436.766-.958,1.206-1.384a4.109,4.109,0,0,1,4.1-.91,1.572,1.572,0,0,1,1.261-1.747,4.6,4.6,0,0,1,2.359.261l10.333,3.042-.016.085a13.088,13.088,0,0,1,4.583,1.85l.018-.027a37.019,37.019,0,0,0,15.631,5.782l.093-.009a28.96,28.96,0,0,1,6.128-1.559l.036.161q2.591-.58,5.229-.937c2.677-.362,5.848-.358,7.529,1.756,2.26,2.841.158,7.26,1.651,10.568.492,1.084,1.348,2.371.616,3.311-.231.3-.609.516-.666.887a2.43,2.43,0,0,0,.174.814c.305,1.462-2.118,2.253-2.261,3.664l-.1-.009q-.189,2.4-.38,4.791.447,3.272.891,6.543a13.356,13.356,0,0,1-.071,5.821,23.3,23.3,0,0,0-.949,2.694,2.387,2.387,0,0,0,.884,2.529q-.876.3-1.749.589a2.663,2.663,0,0,1-1.249,2.854,17.779,17.779,0,0,1-1.04,4.195q-.231.692-.463,1.38a12.909,12.909,0,0,1-1.645,3.586q.926,2.554,1.856,5.108a2.578,2.578,0,0,1,.163.662,13.5,13.5,0,0,1,1.907,9.938l-2.343.294a6.42,6.42,0,0,1,.107,4.1q-.248,1.275-.5,2.547l-1.261,6.458-1.469,7.524-1.32.09c-.777,2.38-1.688,4.867-3.416,6.623a7.871,7.871,0,0,1-.874.768,9.642,9.642,0,0,1-7.975,1.323,21.767,21.767,0,0,1-7.352-3.687l-.14.2a11.963,11.963,0,0,1-2.1-2.249l.018-.019q-.37-.354-.738-.708l.034-.378a8.665,8.665,0,0,1-5.176-3.984,5.668,5.668,0,0,1-2.412.44,1.934,1.934,0,0,1-1.761-1.476,3.967,3.967,0,0,1-4.067,0,10.582,10.582,0,0,1-3.1-2.916q-.215-.271-.427-.544l-.073.055a1.228,1.228,0,0,0,.007.5l.184-.025a34.827,34.827,0,0,1,3.411,10.4,66.981,66.981,0,0,1-19.95-4.406,18.158,18.158,0,0,1-3.915,1.242c-.326.064-.658.119-.991.158v0l.025.192a3.446,3.446,0,0,0,.213,3.184,7.279,7.279,0,0,0,2.334,2.327q.551.375,1.125.7l-.16.273a2.986,2.986,0,0,0-2.126,4.69l-.009.333c-1.454-.025-2.928,1.33-3.943,2.575q-1.032,1.266-2.063,2.533l-.319-.261c.192-1.015-1.027-1.829-2.049-1.673a5.39,5.39,0,0,0-2.593,1.607,38.008,38.008,0,0,1-6.382,4.651,9.585,9.585,0,0,0-3.514,2.737Zm56.806-75.573a3.457,3.457,0,0,0-.465-4.941l.034-.048a4.59,4.59,0,0,0-3.955-.755l.005.044a2.879,2.879,0,0,0-2.281,1.775,3.728,3.728,0,0,0,1,3.854A4.122,4.122,0,0,0,3602.4,883.542Z" transform="translate(-3524.547 -832.604)"/></g><g transform="translate(6.513 103.029)"><path class="a" d="M3282.9,1387.952a5.125,5.125,0,0,0,.28.828c.023,4.725-.209,9.005-.167,13.767a17.177,17.177,0,0,0,.615,5.349,5.8,5.8,0,0,0,3.531,3.828l.223-.041.011.062c.4,2.056,1.839,3.728,3.226,5.3s2.772,3.131,4.158,4.7a9.282,9.282,0,0,1,2.425,6.006,5.5,5.5,0,0,1-.093.809,20.963,20.963,0,0,1-3.18,4.908l-.238-.114a22.678,22.678,0,0,0-2.9,12.469,38.145,38.145,0,0,0,4.269,15,23.41,23.41,0,0,0,5.67,7.831q.662-1.178,1.318-2.359l-.1-.062q6.037-9.235,12.077-18.47a14.268,14.268,0,0,1,1.455,4.259l.1-.018c1.532,4.376,2.865,8.916,2.794,13.553s-1.726,9.436-5.291,12.4c-3.322,2.76-7.781,3.6-11.765,5.268-5.553,2.325-10.223,6.3-15.076,9.864a122.246,122.246,0,0,1-21.206,12.506c-1.252.578-2.52,1.135-3.8,1.653a40.625,40.625,0,0,1-11.5,3.017c-14.915,1.348-29.2-9.677-34.427-23.713-7.754-20.848,1.925-44.2,1.4-66.435-.176-7.517-1.068-15.154.655-22.474,1.834-7.8,6.573-14.7,12.473-20.126s13.647-9.644,20.846-13.13q1.868-9.647,4.274-19.181l.19,0a8.915,8.915,0,0,1,.364-2.522,52.817,52.817,0,0,0,10.787,3.359l-.067.332c4.432,4.237,3.366,12.12,7.723,16.433l.385.3a4.479,4.479,0,0,0-.42.685,2.748,2.748,0,0,0,.234,3.04,14.538,14.538,0,0,0-4.148,11.13l.092.016a14.461,14.461,0,0,1-1.085,3.572c-2.533,2.583-1.26,7.506,1.949,9.262,3.262,1.784,7.5.787,10.426-1.5A14.829,14.829,0,0,0,3282.9,1387.952Z" transform="translate(-3212.292 -1342.68)"/></g><g transform="translate(77.123 130.153)"><path class="b" d="M3610.67,1514.578a5.1,5.1,0,0,1-.28-.828,30.1,30.1,0,0,0,4.984-7.6c.275-.545.548-1.093.835-1.632l.186.1a9.585,9.585,0,0,1,3.514-2.737,37.98,37.98,0,0,0,6.382-4.651,5.392,5.392,0,0,1,2.593-1.607c1.022-.156,2.24.658,2.049,1.673l.319.261-9.305,11.421c-1.13,1.385-2.552,2.478-2.747,4.253-.651,5.947-1.312,11.942-3.157,17.632-.7,2.157-1.578,4.4-1.169,6.621l-.223.041a5.8,5.8,0,0,1-3.531-3.828,17.2,17.2,0,0,1-.616-5.349C3610.461,1523.583,3610.693,1519.3,3610.67,1514.578Z" transform="translate(-3610.39 -1495.601)"/></g><g transform="translate(191.849 152.32)"><path class="a" d="M4257.591,1641.65q-.19-1.453-.381-2.905a5.277,5.277,0,0,0,5.167.4,11.473,11.473,0,0,1-.986-.768,25.963,25.963,0,0,0,4.846-11.623l.218.034a9.534,9.534,0,0,0-.66-6.208q2.221,2.559,4.443,5.117l-.026.023,4.347,8.84c2.188,4.448,4.378,8.9,6.987,13.116,1.634,2.636,3.43,5.179,4.821,7.951a31.144,31.144,0,0,1,2.256,21.646l-.333.2c-.138-.234-.278-.468-.42-.7a67.982,67.982,0,0,0-7.607-9.835c-1.4-1.554-2.837-3.076-4.272-4.592l-18.745-19.823c.113-.291.227-.58.34-.871Z" transform="translate(-4257.21 -1620.58)"/></g><g transform="translate(55.461 192.716)"><path class="a" d="M3565.048,1853.859a6.04,6.04,0,0,1,.185.919,12.034,12.034,0,0,1-.266,3.748v0a10.141,10.141,0,0,1-7.861,4.693,8.891,8.891,0,0,0,6.949.752c-1.743,2.187-2.111,5.133-2.414,7.916a4.654,4.654,0,0,0,.4,3.15c.61.894,2.224,1.091,2.666.1a11.616,11.616,0,0,0,9.913,15.72c.731.058,1.671-.1,1.841-.814a8.9,8.9,0,0,0,8.432,2.258,15.7,15.7,0,0,1,2.512-7.787c-.332.811.569,1.7,1.447,1.681a3.382,3.382,0,0,0,2.223-1.273c2.444-2.586,4.257-7.46,4.351-11.41,4.129,7.274,7.811,14.9,13.279,21.194,3.34,3.843,6.907,8.237,11.639,10.119a24.591,24.591,0,0,0,7.32,1.529,37.05,37.05,0,0,0,6.458-.1l.034.305q2.964,18.469,4.539,37.127H3490.027a171.7,171.7,0,0,1-1.745-20.429l-.021-.051c1.282-.518,2.551-1.075,3.8-1.653a122.237,122.237,0,0,0,21.206-12.506c4.853-3.565,9.523-7.538,15.076-9.863,3.984-1.669,8.443-2.508,11.765-5.268,3.565-2.966,5.22-7.765,5.291-12.4s-1.261-9.177-2.793-13.553l-.1.018a14.269,14.269,0,0,0-1.455-4.259l5.174-7.912a26.008,26.008,0,0,0,3.315-6.249c.05-.156.094-.31.136-.466l.179.05a14.221,14.221,0,0,0,8.858-.816,1.677,1.677,0,0,0-.094,2.2,3.5,3.5,0,0,0,2.817.9,11.24,11.24,0,0,0,1.884-.213A4.8,4.8,0,0,1,3565.048,1853.859Z" transform="translate(-3488.26 -1848.33)"/></g><g transform="translate(159.983 106.362)"><path class="c" d="M4116.513,1420.229a25.644,25.644,0,0,1-2.916,5,11.408,11.408,0,0,0,.987.768,5.28,5.28,0,0,1-5.167-.4q.193,1.453.381,2.905l-.007,0-.341.871-8.316-8.8a13.226,13.226,0,0,0-3.92-3.2,4.5,4.5,0,0,0-4.791.431l-.09.06q-3.725-5.563-6.921-11.453a36.221,36.221,0,0,1-3.758-8.986,71.849,71.849,0,0,1-1-7.98,79.488,79.488,0,0,0-2.716-12.725l-.014,0c-.126-.341-.252-.679-.376-1.02,1.728-1.756,2.639-4.243,3.416-6.623l1.32-.09,1.469-7.524.11.021a6.16,6.16,0,0,0,8.751.9,18.112,18.112,0,0,0,1.63,3.106,6.735,6.735,0,0,1-5.6,3.84,15.364,15.364,0,0,0,3.718-.048,3.076,3.076,0,0,1,2.783,1.376l-.364.124a2.105,2.105,0,0,0,1.24,1.894,11.89,11.89,0,0,0,5.99-2.714l.312.11a61.278,61.278,0,0,1,5.517,5.122q1.668,1.748,3.194,3.627c.066.08.131.161.2.245a5.438,5.438,0,0,1,1.335,2.673,2.172,2.172,0,0,1-1.687,2.472l-.158-.236a16.709,16.709,0,0,0-3.067,2.677,6.171,6.171,0,0,1,5.579,1.515,1.106,1.106,0,0,1,.374.571c.1.543-.538.926-1.082,1s-1.169.059-1.551.456c2,.252,3.044,2.478,3.549,4.425a3.58,3.58,0,0,1,.05,2.32,1.328,1.328,0,0,1-1.926.655,10.127,10.127,0,0,1,2.157,3.737,10.616,10.616,0,0,0,.561,2.387,7.257,7.257,0,0,0,1.167,1.456,9.134,9.134,0,0,1,1.468,2.238,9.534,9.534,0,0,1,.66,6.208l-.218-.034A25.86,25.86,0,0,1,4116.513,1420.229Z" transform="translate(-4077.55 -1361.47)"/></g><g transform="translate(143.897 51.77)"><path class="b" d="M3989.976,1054.111a2.221,2.221,0,1,1-2.494.424l-.059-.089a5.056,5.056,0,0,1,2.54-.766Z" transform="translate(-3986.86 -1053.68)"/></g><g transform="translate(132.891 57.588)"><path class="d" d="M3927.283,1086.693l-.005-.044a4.591,4.591,0,0,1,3.955.755l-.034.048a3.458,3.458,0,0,1,.465,4.942,4.122,4.122,0,0,1-5.66-.071,3.728,3.728,0,0,1-1-3.854A2.878,2.878,0,0,1,3927.283,1086.693Z" transform="translate(-3924.807 -1086.486)"/></g><g transform="translate(126.75 47.493)"><path class="b" d="M3894.561,1033.151a2.475,2.475,0,0,1-3.069.954,2.293,2.293,0,0,1,1.568-4.294l.071-.241c1.527.477,2.682,2.393,1.745,3.684Z" transform="translate(-3890.186 -1029.57)"/></g><g transform="translate(102.62 141.596)"><path class="c" d="M3770.41,1565.826c.2.2.4.41.6.614q-2.3,3.182-4.6,6.362a86.1,86.1,0,0,0-7.716,12.017l-.019-.01a5.394,5.394,0,0,1-4.209-.1l-.319-.057c.972-5.456,2.132-11,5.161-15.614,1.3-1.986,2.921-3.748,4.3-5.683.74-1.039,1.408-2.127,2.043-3.232l.2.115a40.993,40.993,0,0,0,4.693,5.463Z" transform="translate(-3754.14 -1560.12)"/></g><g transform="translate(104.988 128.915)"><path class="b" d="M3775.168,1492.332l.044.161c-.128.14-.25.289-.369.435q-1.722,2.107-3.441,4.216c-.383-.28-.768-.559-1.151-.839l-.051.062a12.208,12.208,0,0,1-2.705-3.182l-.005,0c.055-.094.11-.19.165-.286a7.785,7.785,0,0,0,1.176-3.079,3.494,3.494,0,0,0-.09-1.151l.183-.046A46.056,46.056,0,0,1,3775.168,1492.332Z" transform="translate(-3767.49 -1488.62)"/></g><g transform="translate(93.567 133.477)"><path class="c" d="M3717.231,1517.526l.052-.062c.383.28.768.559,1.151.839q-3.193,3.908-6.384,7.818a50.335,50.335,0,0,0-5.386,7.485,35.265,35.265,0,0,0-3.131,8.388l-.221-.055c-.818-5.073.841-10.252,3.255-14.789,2.361-4.438,5.442-8.455,7.955-12.81l.005,0A12.218,12.218,0,0,0,3717.231,1517.526Z" transform="translate(-3703.1 -1514.34)"/></g><g transform="translate(20.362 36.252)"><path class="b" d="M3332.837,982.088c.385-.2.772-.4,1.157-.6q3.794-1.977,7.591-3.952l4.069-2.118q.412-.215.809-.474a12.673,12.673,0,0,0,3.65-3.748l-.126-.114c.3-3.01,3.553-5.151,6.563-4.862a7.174,7.174,0,0,1,1.636.355,10,10,0,0,1,5.354,4.832,19.817,19.817,0,0,1,1.908,11.524l.084.021a40.21,40.21,0,0,0-1.307,5.9,31.655,31.655,0,0,0-.3,3.476l.119.048a19.859,19.859,0,0,1-2.767,4.789c-3.964,3.583-3.973,10.172-7.393,14.41a3.288,3.288,0,0,0-.977,1.793c-.041,1.059,1.086,2.1.589,3.033-.48-.275-1.108.177-1.234.717a3.022,3.022,0,0,0,.255,1.616,13.748,13.748,0,0,1,.75,5.057c-.124,2.444-1.009,4.878-.76,7.286a9.593,9.593,0,0,1-1.717,3.092l.064.089c-2.345,1.676-3.441,4.612-4.762,7.2a31.76,31.76,0,0,1-7.021,9.145l1.227,1.075a10.989,10.989,0,0,0-1.724,1.719l-.385-.3c-4.356-4.314-3.29-12.2-7.723-16.433l.068-.332a52.833,52.833,0,0,1-10.788-3.359,36.747,36.747,0,0,1-9.867-6.309c-6.055-5.475-10.044-13.17-16.751-17.767l-.062.092a7.512,7.512,0,0,1-2.7-1.1q2.216-.689,4.356-1.587a48.27,48.27,0,0,0,6.591-3.379c1.022-.628,2.017-1.291,3-1.981,2.357-1.662,4.615-3.469,6.884-5.263,1.75-1.383,3.508-2.758,5.326-4.049,1.868-1.328,3.794-2.566,5.757-3.742C3325.721,985.822,3329.276,983.943,3332.837,982.088Zm6.215,7.384a2.35,2.35,0,1,0-2.35,2.35A2.351,2.351,0,0,0,3339.052,989.472Zm-24.546,16.712a2.35,2.35,0,1,0-2.35,2.35A2.351,2.351,0,0,0,3314.506,1006.184Z" transform="translate(-3290.37 -966.193)"/></g><g transform="translate(0.626 0.62)"><path class="d" d="M3212.477,770.118l2.182-1.951.016.018c2.678-2.212,6.359-2.7,9.83-2.834a47.754,47.754,0,0,1,19.172,2.824,34.307,34.307,0,0,1,15.616,13.285,46.744,46.744,0,0,1,6.353,15.9l.073-.014q.468,1.985.935,3.968a7.168,7.168,0,0,0-1.635-.355c-3.01-.289-6.267,1.852-6.562,4.862l.126.114a12.679,12.679,0,0,1-3.65,3.748q-.4.258-.809.474l-4.069,2.118q-3.8,1.977-7.591,3.952c-.385.2-.772.4-1.157.6-3.562,1.855-7.116,3.734-10.557,5.8-1.964,1.176-3.89,2.414-5.758,3.742-1.818,1.291-3.576,2.666-5.326,4.049-2.269,1.793-4.527,3.6-6.884,5.263-.979.69-1.974,1.353-3,1.981a48.3,48.3,0,0,1-6.591,3.379q-2.136.9-4.356,1.587-1.942.6-3.929,1.041l-.073-.326c-2-5.055-6.163-8.888-9.273-13.349a36.067,36.067,0,0,1,8.074-49.566l.048.064,3.411-2.446a6.353,6.353,0,0,1,7.135-3.709,6.9,6.9,0,0,1,4.184-3.609A12.722,12.722,0,0,1,3212.477,770.118Z" transform="translate(-3179.102 -765.303)"/></g><g transform="translate(64.344 57.181)"><circle class="b" cx="2.35" cy="2.35" r="2.35"/></g><g transform="translate(39.798 73.893)"><circle class="b" cx="2.35" cy="2.35" r="2.35"/></g><g transform="translate(21.941 77.958)"><path class="e" d="M3353.285,1232.045h-.02c-10.581-.343-25.873-1.907-36.473-11.492a67.619,67.619,0,0,1-7.036-7.847c-3.022-3.747-6.147-7.621-10.2-10.232a.621.621,0,0,1,.673-1.043c4.217,2.719,7.406,6.673,10.489,10.5a66.72,66.72,0,0,0,6.9,7.706c7.837,7.088,19.175,10.637,35.68,11.172a.621.621,0,0,1-.02,1.241Z" transform="translate(-3299.276 -1201.331)"/></g><g transform="translate(79.357 35.63)"><path class="e" d="M3639.069,980.662a.645.645,0,0,1-.1-.009.621.621,0,0,1-.51-.714,19.3,19.3,0,0,0-1.845-11.129,8.738,8.738,0,0,0-6.5-4.86c-2.552-.246-5.612,1.543-5.885,4.3a.621.621,0,1,1-1.236-.122c.319-3.227,3.7-5.759,7.24-5.418a9.984,9.984,0,0,1,7.479,5.513,20.347,20.347,0,0,1,1.973,11.916A.621.621,0,0,1,3639.069,980.662Z" transform="translate(-3622.985 -962.682)"/></g><g transform="translate(93.297 33.564)"><path class="e" d="M3702.2,980.481h-.018a.621.621,0,0,1-.6-.638,41.843,41.843,0,0,1,3.733-15.238,52.707,52.707,0,0,1,8.39-13.354.621.621,0,1,1,.932.82c-6.811,7.742-11.559,18.917-11.814,27.808A.621.621,0,0,1,3702.2,980.481Z" transform="translate(-3701.576 -951.039)"/></g><g transform="translate(81.594 66.149)"><path class="e" d="M3636.587,1170.953a.621.621,0,0,1-.609-.507,14.354,14.354,0,0,1,.276-5.156,23.741,23.741,0,0,0,.388-2.872,13.058,13.058,0,0,0-.718-4.827l-.03-.088a3.346,3.346,0,0,1-.242-1.867,1.738,1.738,0,0,1,.971-1.161,1.431,1.431,0,0,1,.355-.1,4.031,4.031,0,0,0-.276-.76,3.706,3.706,0,0,1-.42-1.609,3.423,3.423,0,0,1,.99-2.007l.124-.152a21.865,21.865,0,0,0,3.159-6.606c1.083-3.1,2.2-6.308,4.883-8.359a.621.621,0,0,1,.755.986c-2.384,1.825-3.395,4.719-4.465,7.782a22.774,22.774,0,0,1-3.365,6.976l-.129.159a2.47,2.47,0,0,0-.711,1.267,2.745,2.745,0,0,0,.318,1.067,2.48,2.48,0,0,1,.2,2.234.621.621,0,0,1-.858.248c-.065-.012-.277.13-.321.32a2.383,2.383,0,0,0,.21,1.187l.031.09a14.29,14.29,0,0,1,.781,5.286,24.7,24.7,0,0,1-.405,3.024,13.246,13.246,0,0,0-.278,4.713.621.621,0,0,1-.5.724A.613.613,0,0,1,3636.587,1170.953Z" transform="translate(-3635.595 -1134.751)"/></g><g transform="translate(164.462 45.707)"><path class="e" d="M4103.42,1052.835a.621.621,0,0,1-.356-1.129c1.323-.926,1.954-2.56,2.586-4.443l.462-1.38a17.408,17.408,0,0,0,1.009-4.047.62.62,0,0,1,.313-.491,2.056,2.056,0,0,0,.949-2.17.621.621,0,0,1,.406-.732l.818-.275a3.483,3.483,0,0,1-.365-2.369,8.964,8.964,0,0,1,.588-1.772c.141-.342.274-.665.379-.994a12.946,12.946,0,0,0,.048-5.551l-.99-7.277a.621.621,0,0,1,1.23-.167l.989,7.277a13.875,13.875,0,0,1-.095,6.094c-.12.379-.27.741-.414,1.092a7.862,7.862,0,0,0-.515,1.527,1.813,1.813,0,0,0,.583,1.879.621.621,0,0,1-.113,1.125l-1.263.425a3.29,3.29,0,0,1-1.342,2.789,19.635,19.635,0,0,1-1.04,4.033l-.463,1.38c-.543,1.616-1.286,3.829-3.052,5.065A.62.62,0,0,1,4103.42,1052.835Z" transform="translate(-4102.799 -1019.5)"/></g><g transform="translate(107.344 11.937)"><path class="e" d="M3781.441,852.6a.621.621,0,0,1-.618-.574c-.3-4.024.847-8.07,1.863-11.64.516-1.811,1.158-4.065,2.778-5.588.261-.245.537-.461.8-.67a8.537,8.537,0,0,0,.85-.727c.18-.184.346-.389.521-.606a8.5,8.5,0,0,1,.7-.789,4.757,4.757,0,0,1,3.94-1.241,2,2,0,0,1,.2-.464,2.457,2.457,0,0,1,1.5-1.108,5.111,5.111,0,0,1,2.682.268l10.334,3.041a.621.621,0,1,1-.351,1.191l-10.333-3.041a4.123,4.123,0,0,0-2.033-.254,1.226,1.226,0,0,0-.728.535.578.578,0,0,0-.084.45.621.621,0,0,1-.8.747,3.468,3.468,0,0,0-3.461.769,7.493,7.493,0,0,0-.594.678c-.187.23-.379.468-.6.693a9.682,9.682,0,0,1-.971.835c-.256.2-.5.391-.719.6-1.371,1.288-1.936,3.272-2.434,5.023-1.036,3.639-2.108,7.4-1.819,11.206a.621.621,0,0,1-.572.666Z" transform="translate(-3780.773 -829.104)"/></g><g transform="translate(121.003 17.978)"><path class="e" d="M3862.778,868.867a.621.621,0,0,1-.6-.477,5.574,5.574,0,0,0-3.928-4.007.621.621,0,0,1,.312-1.2,6.846,6.846,0,0,1,4.825,4.921.621.621,0,0,1-.6.765Z" transform="translate(-3857.781 -863.161)"/></g><g transform="translate(136.667 16.759)"><path class="e" d="M3963.03,863.774a.62.62,0,0,1-.079-.005,37.621,37.621,0,0,1-16.59-6.349.621.621,0,0,1,.706-1.021,36.375,36.375,0,0,0,16.04,6.139.621.621,0,0,1-.077,1.237Z" transform="translate(-3946.093 -856.289)"/></g><g transform="translate(156.822 20.484)"><path class="e" d="M4075.037,899.954a.621.621,0,0,1-.618-.567,3.1,3.1,0,0,1,1.355-2.434c.63-.594,1.006-.985.919-1.4a1.8,1.8,0,0,0-.062-.2,1.463,1.463,0,0,1,.474-1.8,2.248,2.248,0,0,0,.2-.207c.35-.449.043-1.166-.43-2.129-.091-.186-.18-.368-.261-.545a11.473,11.473,0,0,1-.611-5.2c.069-1.985.134-3.86-.96-5.237-1.193-1.5-3.469-2-6.961-1.527a61.549,61.549,0,0,0-7.568,1.512.621.621,0,0,1-.32-1.2,62.819,62.819,0,0,1,7.721-1.542c3.962-.535,6.611.114,8.1,1.985,1.38,1.735,1.3,3.93,1.229,6.052a10.421,10.421,0,0,0,.5,4.645c.075.166.158.336.244.51.512,1.044,1.15,2.343.3,3.439a3.346,3.346,0,0,1-.308.332,1.236,1.236,0,0,0-.232.266,1.151,1.151,0,0,0,.067.249,2.908,2.908,0,0,1,.1.347c.236,1.128-.606,1.922-1.283,2.559-.52.49-1.01.954-.97,1.423a.62.62,0,0,1-.564.672Z" transform="translate(-4059.73 -877.292)"/></g><g transform="translate(159.171 25.509)"><path class="e" d="M4073.592,909.625a.621.621,0,0,1-.41-1.088,11.93,11.93,0,0,1,9.252-2.823.621.621,0,0,1-.158,1.231,10.67,10.67,0,0,0-8.275,2.525A.62.62,0,0,1,4073.592,909.625Z" transform="translate(-4072.971 -905.622)"/></g><g transform="translate(143.099 80.925)"><path class="e" d="M3993.031,1260.755a12.047,12.047,0,0,1-2.781-.33,22.511,22.511,0,0,1-7.629-3.829.621.621,0,0,1,.718-1.013,21.391,21.391,0,0,0,7.2,3.634A9.041,9.041,0,0,0,3998,1258c2.153-1.622,3.193-4.392,4.074-7.089a.622.622,0,0,1,.548-.427l.844-.058,3.135-16.06a5.837,5.837,0,0,0-.052-3.7.621.621,0,0,1,.477-.9l1.895-.238a12.9,12.9,0,0,0-2.962-10.447.621.621,0,1,1,.933-.819,14.149,14.149,0,0,1,3.164,11.951.62.62,0,0,1-.531.491l-1.568.2a8.432,8.432,0,0,1-.137,3.7l-3.227,16.528a.622.622,0,0,1-.567.5l-.9.062c-.917,2.758-2.048,5.543-4.377,7.3A9.486,9.486,0,0,1,3993.031,1260.755Zm16.412-30.663h0Z" transform="translate(-3982.36 -1218.054)"/></g><g transform="translate(98.69 73.848)"><path class="e" d="M3735.1,1208.935a.615.615,0,0,1-.329-.095,3.178,3.178,0,0,1-1.291-3.507,3.238,3.238,0,0,1-1.482-2.5,7,7,0,0,1,.676-3.163,44.459,44.459,0,0,1,12.681-17.417c1.968-1.643,4.636-3.584,7.83-4.007a14.292,14.292,0,0,1,5.588.534,28.725,28.725,0,0,1,8.542,3.837.621.621,0,1,1-.686,1.035,27.49,27.49,0,0,0-8.174-3.672,13.128,13.128,0,0,0-5.107-.5c-2.878.381-5.358,2.193-7.2,3.729a43.208,43.208,0,0,0-12.326,16.928,5.874,5.874,0,0,0-.59,2.593,1.83,1.83,0,0,0,1.2,1.657.621.621,0,0,1,.4.925,1.928,1.928,0,0,0,.6,2.479.621.621,0,0,1-.33,1.147Z" transform="translate(-3731.984 -1178.157)"/></g><g transform="translate(103.186 93.926)"><path class="e" d="M3758.963,1302.653a4.86,4.86,0,0,1-1.159-.141.621.621,0,0,1,.3-1.206c2.2.537,4.375-1.142,6.4-3.037a3.29,3.29,0,0,1,1.4-.889,3.235,3.235,0,0,1,1.23-.01,4.51,4.51,0,0,0,.5.046h.016a4.016,4.016,0,0,0,1.638-.5,30.314,30.314,0,0,0,7.827-5.391.621.621,0,0,1,.856.9,31.562,31.562,0,0,1-8.147,5.611,5.116,5.116,0,0,1-2.174.623h-.028a5.37,5.37,0,0,1-.648-.056,2.227,2.227,0,0,0-.772-.017,2.269,2.269,0,0,0-.852.593C3763.391,1301.008,3761.275,1302.653,3758.963,1302.653Z" transform="translate(-3757.331 -1291.353)"/></g><g transform="translate(117.597 98.239)"><path class="e" d="M3864.041,1334.212a9.26,9.26,0,0,1-7.652-4.166,5.349,5.349,0,0,1-2.209.312,2.788,2.788,0,0,1-2.017-1.212,4.8,4.8,0,0,1-4.035-.336,11.106,11.106,0,0,1-3.289-3.075,73.536,73.536,0,0,1-6.179-9.13.621.621,0,1,1,1.077-.617,72.381,72.381,0,0,0,6.075,8.975,10.077,10.077,0,0,0,2.9,2.753,3.4,3.4,0,0,0,3.418.041.621.621,0,0,1,.971.423,1.344,1.344,0,0,0,1.216.944,5.234,5.234,0,0,0,2.143-.411.621.621,0,0,1,.739.281,8.1,8.1,0,0,0,6.84,3.977h.016a8.1,8.1,0,0,0,6.838-4.007.621.621,0,1,1,1.082.609,9.247,9.247,0,0,1-7.917,4.64Z" transform="translate(-3838.577 -1315.675)"/></g><g transform="translate(90.56 104.567)"><path class="e" d="M3696.931,1362.775a7.068,7.068,0,0,1-2.8-.523,4.821,4.821,0,0,1-2.887-3.346,2.753,2.753,0,0,0-1.086,1.853.621.621,0,0,1-1.033.391,9.282,9.282,0,0,1-2.628-9.357.621.621,0,1,1,1.19.354,8.04,8.04,0,0,0,1.551,7.336,3.976,3.976,0,0,1,2.366-2.147.621.621,0,0,1,.811.639,3.411,3.411,0,0,0,2.2,3.135,7.554,7.554,0,0,0,4.424.2,17.554,17.554,0,0,0,8.274-4.092.621.621,0,0,1,.923.817.333.333,0,0,0,0,.33.921.921,0,0,0,.631.519,3.242,3.242,0,0,0,1.943-.6l2.641-1.446a.621.621,0,1,1,.6,1.089l-2.641,1.446a4.306,4.306,0,0,1-2.746.739,2.138,2.138,0,0,1-1.512-1.142,18.8,18.8,0,0,1-7.869,3.563A12.311,12.311,0,0,1,3696.931,1362.775Z" transform="translate(-3686.142 -1351.349)"/></g><g transform="translate(63.58 103.494)"><path class="e" d="M3534.686,1380.738a.621.621,0,0,1-.619-.577,15.172,15.172,0,0,1,3.958-11.227,3.541,3.541,0,0,1,.019-3.262,7.212,7.212,0,0,1,1.757-2.13l-.693-.607a.621.621,0,0,1-.006-.929,30.913,30.913,0,0,0,6.882-8.965c.227-.446.453-.913.672-1.365,1.146-2.369,2.331-4.819,4.6-6.277a.621.621,0,0,1,.671,1.044c-1.974,1.269-3.082,3.559-4.153,5.773-.221.458-.451.931-.684,1.388a32.13,32.13,0,0,1-6.644,8.851l.708.62a.621.621,0,0,1-.005.939,7.568,7.568,0,0,0-1.993,2.207,2.156,2.156,0,0,0,.132,2.341.621.621,0,0,1-.014.862,13.9,13.9,0,0,0-3.968,10.648.621.621,0,0,1-.576.663Z" transform="translate(-3534.031 -1345.302)"/></g><g transform="translate(61.277 121.295)"><path class="e" d="M3528.677,1477.063a8.278,8.278,0,0,1-4.014-.994,7.263,7.263,0,0,1-3.559-5.429,5.7,5.7,0,0,1,1.619-4.964.621.621,0,0,1,.849.906,4.417,4.417,0,0,0-1.236,3.9,6.088,6.088,0,0,0,2.923,4.5c2.311,1.264,6.221,1.307,9.746-1.446,2.9-2.263,4.782-5.7,6.321-8.748l.155-.306a17.253,17.253,0,0,1,5.529-7.092l4.943-4.217c.655-.558,1.635-1.678,1.156-2.336a.621.621,0,0,1,.849-.881.433.433,0,0,0,.41.051,2.507,2.507,0,0,0,1.231-1.434c.406-1.091,1.084-2.913,2.719-2.913h.035a.621.621,0,0,1-.01,1.242h-.021c-.717,0-1.164,1.039-1.56,2.1a3.662,3.662,0,0,1-2.015,2.183,1.9,1.9,0,0,1-.26.064,4.123,4.123,0,0,1-1.728,2.864l-4.943,4.217a16.084,16.084,0,0,0-5.226,6.706l-.155.307c-1.6,3.166-3.565,6.745-6.665,9.167A11.927,11.927,0,0,1,3528.677,1477.063Z" transform="translate(-3521.049 -1445.66)"/></g><g transform="translate(103.154 96.246)"><path class="e" d="M3758.157,1309.842a.62.62,0,0,1-.548-.329,4.2,4.2,0,0,1,.813-4.909.621.621,0,1,1,.848.907,2.963,2.963,0,0,0-.566,3.417.621.621,0,0,1-.547.913Z" transform="translate(-3757.152 -1304.437)"/></g><g transform="translate(108.995 95.48)"><path class="e" d="M3790.856,1304.538a.621.621,0,0,1-.585-.413,3.508,3.508,0,0,1,1.156-3.879.621.621,0,0,1,.752.988,2.268,2.268,0,0,0-.737,2.475.62.62,0,0,1-.585.829Z" transform="translate(-3790.083 -1300.119)"/></g><g transform="translate(65.537 143.888)"><path class="e" d="M3545.747,1577.116a.62.62,0,0,1-.606-.49,3.6,3.6,0,0,1,1.186-3.44.621.621,0,0,1,.794.954,2.326,2.326,0,0,0-.767,2.224.621.621,0,0,1-.476.738A.637.637,0,0,1,3545.747,1577.116Z" transform="translate(-3545.067 -1573.042)"/></g><g transform="translate(70.078 144.471)"><path class="e" d="M3571.614,1581.238a.621.621,0,0,1-.555-.342,3.908,3.908,0,0,1,.686-4.385.621.621,0,0,1,.885.87,2.671,2.671,0,0,0-.462,2.956.621.621,0,0,1-.554.9Z" transform="translate(-3570.67 -1576.325)"/></g><g transform="translate(105.097 141.97)"><path class="e" d="M3776.511,1594.259h-.026a.621.621,0,0,1-.594-.646c.178-4.26,2.748-7.787,5.233-11.2.532-.73,1.082-1.485,1.591-2.226a42.6,42.6,0,0,0,5.882-12.514,5.549,5.549,0,0,0,.263-2.87c-.2-.736-.936-1.459-1.667-1.32-.579.111-1.037.687-1.495,1.319l-7.307,10.095c-3.43,4.739-6.976,9.639-9.088,15.176a.621.621,0,1,1-1.16-.442c2.17-5.69,5.765-10.657,9.243-15.461l7.306-10.095a3.866,3.866,0,0,1,2.267-1.81,2.883,2.883,0,0,1,3.1,2.208,6.571,6.571,0,0,1-.266,3.54,43.837,43.837,0,0,1-6.052,12.878c-.519.754-1.073,1.516-1.611,2.253-2.376,3.262-4.833,6.635-5,10.52A.621.621,0,0,1,3776.511,1594.259Z" transform="translate(-3768.102 -1562.225)"/></g><g transform="translate(91.986 131.364)"><path class="e" d="M3694.805,1539.337a.639.639,0,0,1-.119-.011.621.621,0,0,1-.491-.728c.989-5.107,2.012-10.387,4.589-15.087a51.11,51.11,0,0,1,5.449-7.581l9.825-12.034a4.393,4.393,0,0,1,1.285-1.184,2.542,2.542,0,0,1,2.4.041,3.727,3.727,0,0,1,1.959,2.714c.262,1.875-.715,3.66-1.428,4.963a57.79,57.79,0,0,1-3.493,5.823c-.608.854-1.268,1.682-1.906,2.482-.816,1.024-1.659,2.082-2.381,3.182-3.237,4.934-4.324,11.131-5.283,16.6a.621.621,0,0,1-1.223-.215c.98-5.586,2.09-11.917,5.467-17.065.754-1.148,1.615-2.229,2.448-3.275.628-.787,1.277-1.6,1.865-2.428a56.822,56.822,0,0,0,3.416-5.7c.817-1.492,1.478-2.838,1.288-4.2a2.52,2.52,0,0,0-1.294-1.78,1.339,1.339,0,0,0-1.256-.05,3.339,3.339,0,0,0-.906.872l-9.825,12.034a50.175,50.175,0,0,0-5.323,7.392c-2.483,4.53-3.488,9.713-4.459,14.726A.621.621,0,0,1,3694.805,1539.337Z" transform="translate(-3694.184 -1502.43)"/></g><g transform="translate(102.318 165.561)"><path class="e" d="M3755.288,1696.952a6,6,0,0,1-2.489-.533.621.621,0,0,1,.518-1.129,4.8,4.8,0,0,0,3.72.09.621.621,0,1,1,.463,1.152A5.952,5.952,0,0,1,3755.288,1696.952Z" transform="translate(-3752.437 -1695.233)"/></g><g transform="translate(80.88 126.373)"><path class="e" d="M3641.931,1537.848a.614.614,0,0,1-.164-.022.621.621,0,0,1-.436-.762c.411-1.507.107-4.152-2.1-6.649l-4.158-4.7c-1.306-1.475-2.931-3.311-3.372-5.59-.419-2.168.278-4.271.952-6.3q.115-.345.227-.688c1.833-5.654,2.492-11.68,3.131-17.509a6.565,6.565,0,0,1,2.088-3.672c.267-.293.542-.6.794-.906l11.367-13.953c2.027-2.488,4.066-3.363,5.743-2.464a3.551,3.551,0,0,1,1.638,3.45,8.3,8.3,0,0,1-1.255,3.331c-1.163,2.041-2.47,4.03-3.734,5.953-1.51,2.3-3.072,4.673-4.377,7.128-2.805,5.274-3.879,10.118-3.189,14.4a.621.621,0,0,1-1.225.2c-.734-4.553.383-9.66,3.319-15.178,1.333-2.505,2.91-4.906,4.436-7.227,1.253-1.907,2.55-3.879,3.693-5.886a7.277,7.277,0,0,0,1.1-2.826,2.34,2.34,0,0,0-.988-2.246c-1.531-.821-3.443,1.233-4.193,2.154l-11.368,13.953c-.273.335-.561.651-.838.957a5.474,5.474,0,0,0-1.772,2.972c-.645,5.891-1.312,11.982-3.184,17.757-.075.231-.152.463-.229.7-.625,1.882-1.27,3.828-.912,5.677.377,1.946,1.814,3.57,3.082,5l4.158,4.7a11.447,11.447,0,0,1,1.983,3.235,7.138,7.138,0,0,1,.388,4.563A.621.621,0,0,1,3641.931,1537.848Z" transform="translate(-3631.572 -1474.289)"/></g><g transform="translate(76.611 147.954)"><path class="e" d="M3612.274,1620.707a.619.619,0,0,1-.183-.028,6.393,6.393,0,0,1-3.937-4.223,17.879,17.879,0,0,1-.647-5.543c-.023-2.482.03-4.87.082-7.178s.1-4.679.081-7.143a.621.621,0,0,1,.615-.627h.006a.62.62,0,0,1,.621.615c.023,2.484-.03,4.872-.081,7.182s-.1,4.676-.081,7.139a16.686,16.686,0,0,0,.582,5.158,5.162,5.162,0,0,0,3.126,3.433.621.621,0,0,1-.182,1.214Z" transform="translate(-3607.501 -1595.966)"/></g><g transform="translate(82.508 129.533)"><path class="e" d="M3641.367,1502.36a.621.621,0,0,1-.52-.958,9.122,9.122,0,0,1,3.38-2.74l.343-.2a37.259,37.259,0,0,0,6.278-4.573l.084-.076a5.685,5.685,0,0,1,2.831-1.683,2.63,2.63,0,0,1,2.223.76,1.834,1.834,0,0,1,.53,1.642.621.621,0,1,1-1.22-.231.612.612,0,0,0-.2-.549,1.392,1.392,0,0,0-1.142-.395,4.71,4.71,0,0,0-2.187,1.377l-.084.076a38.513,38.513,0,0,1-6.487,4.726l-.348.2a8.223,8.223,0,0,0-2.956,2.338A.62.62,0,0,1,3641.367,1502.36Z" transform="translate(-3640.747 -1492.105)"/></g><g transform="translate(95.226 175.061)"><path class="e" d="M3713.073,1801.437a.621.621,0,0,1-.519-.96l17.58-26.887a25.5,25.5,0,0,0,3.243-6.095c1.792-5.682-.583-11.673-3.394-17.822a.621.621,0,0,1,1.129-.516c2.915,6.378,5.373,12.609,3.449,18.712a26.429,26.429,0,0,1-3.388,6.4l-17.58,26.887A.62.62,0,0,1,3713.073,1801.437Z" transform="translate(-3712.453 -1748.794)"/></g><g transform="translate(84.368 190.844)"><path class="e" d="M3668.27,1879.065a9.574,9.574,0,0,1-3.761-.748c-4.571-1.963-7.277-6.614-8.916-9.942a38.307,38.307,0,0,1-4.333-15.25,22.172,22.172,0,0,1,4.6-15.123.621.621,0,1,1,.96.787,20.94,20.94,0,0,0-4.322,14.281,37.11,37.11,0,0,0,4.206,14.756c1.552,3.151,4.1,7.548,8.292,9.349a8.666,8.666,0,0,0,6.926-.148,5.709,5.709,0,0,0,3.18-3.514.621.621,0,0,1,1.192.346,6.932,6.932,0,0,1-3.842,4.29A9.857,9.857,0,0,1,3668.27,1879.065Z" transform="translate(-3651.235 -1837.776)"/></g><g transform="translate(106.801 107.273)"><path class="e" d="M3798.354,1378.251h-.035a67.823,67.823,0,0,1-20.215-4.474.621.621,0,0,1,.45-1.157,66.9,66.9,0,0,0,19.055,4.343,34.09,34.09,0,0,0-3.219-9.452.621.621,0,0,1,1.1-.568,35.357,35.357,0,0,1,3.471,10.591.62.62,0,0,1-.613.719Z" transform="translate(-3777.709 -1366.604)"/></g><g transform="translate(101.698 114.864)"><path class="e" d="M3768.347,1423.8a.617.617,0,0,1-.386-.135c-2.385-1.9-5.232-2.951-8.247-4.062a34.657,34.657,0,0,1-7.656-3.555,7.992,7.992,0,0,1-2.526-2.534,4.064,4.064,0,0,1-.226-3.771.621.621,0,1,1,1.107.561,2.819,2.819,0,0,0,.2,2.6,6.594,6.594,0,0,0,2.143,2.118,33.741,33.741,0,0,0,7.387,3.416,30.067,30.067,0,0,1,8.591,4.256.621.621,0,0,1-.387,1.106Z" transform="translate(-3748.942 -1409.406)"/></g><g transform="translate(102.842 121.354)"><path class="e" d="M3756.551,1451.923a.62.62,0,0,1-.508-.263,3.606,3.606,0,0,1,2.569-5.665.621.621,0,0,1,.13,1.235,2.364,2.364,0,0,0-1.685,3.715.621.621,0,0,1-.507.979Z" transform="translate(-3755.392 -1445.991)"/></g><g transform="translate(105.801 128.295)"><path class="e" d="M3778.938,1490.077a.616.616,0,0,1-.357-.114,45.542,45.542,0,0,0-6.16-3.661.621.621,0,0,1,.548-1.114,46.765,46.765,0,0,1,6.328,3.761.621.621,0,0,1-.359,1.128Z" transform="translate(-3772.073 -1485.124)"/></g><g transform="translate(116.714 135.192)"><path class="e" d="M3837.552,1528.658a.621.621,0,0,1-.555-.341,7.331,7.331,0,0,0-3.069-3.135.621.621,0,0,1,.583-1.1,8.583,8.583,0,0,1,3.594,3.67.621.621,0,0,1-.553.9Z" transform="translate(-3833.599 -1524.014)"/></g><g transform="translate(140.203 115.606)"><path class="e" d="M3967.982,1416.106a.618.618,0,0,1-.43-.173l-1.333-1.278a.621.621,0,0,1,.859-.9l1.333,1.278a.621.621,0,0,1-.43,1.069Z" transform="translate(-3966.029 -1413.586)"/></g><g transform="translate(104.372 132.86)"><path class="e" d="M3767.866,1515.7a.619.619,0,0,1-.37-.123,12.933,12.933,0,0,1-3.392-3.777.621.621,0,1,1,1.07-.63,11.685,11.685,0,0,0,3.064,3.411.621.621,0,0,1-.371,1.119Z" transform="translate(-3764.018 -1510.864)"/></g><g transform="translate(113.702 141.091)"><path class="e" d="M3822.063,1564.1a.618.618,0,0,1-.432-.175,41.661,41.661,0,0,1-4.9-5.676.621.621,0,0,1,1.01-.723,40.376,40.376,0,0,0,4.752,5.506.621.621,0,0,1-.432,1.067Z" transform="translate(-3816.617 -1557.269)"/></g><g transform="translate(124.143 152.283)"><path class="e" d="M3888.843,1629.985a.618.618,0,0,1-.259-.057,51.381,51.381,0,0,1-12.894-8.477.621.621,0,0,1,.83-.923,50.157,50.157,0,0,0,12.582,8.273.621.621,0,0,1-.259,1.185Z" transform="translate(-3875.484 -1620.368)"/></g><g transform="translate(139.315 162.148)"><path class="e" d="M3978.673,1707.2a.621.621,0,0,1-.565-.363,197.234,197.234,0,0,0-16.975-29.879.621.621,0,1,1,1.022-.705,198.5,198.5,0,0,1,17.082,30.068.621.621,0,0,1-.564.879Z" transform="translate(-3961.024 -1675.99)"/></g><g transform="translate(159.556 120.275)"><path class="e" d="M4094.569,1489a.619.619,0,0,1-.5-.25,147.245,147.245,0,0,1-11.184-17.509,36.843,36.843,0,0,1-3.818-9.143,41.829,41.829,0,0,1-.774-5.669c-.07-.782-.143-1.59-.234-2.379a82.724,82.724,0,0,0-2.869-13.261l-.025-.09a.621.621,0,0,1,1.2-.328l.024.089a83.709,83.709,0,0,1,2.906,13.448c.092.8.166,1.62.237,2.41a41,41,0,0,0,.747,5.5,35.771,35.771,0,0,0,3.7,8.83A146,146,0,0,0,4095.067,1488a.621.621,0,0,1-.5.991Z" transform="translate(-4075.144 -1439.908)"/></g><g transform="translate(141.557 84.641)"><path class="e" d="M3983.884,1244.855a.619.619,0,0,1-.42-.164,17.75,17.75,0,0,0-9.271-4.451.621.621,0,1,1,.187-1.227,19,19,0,0,1,9.927,4.765.621.621,0,0,1-.421,1.077Z" transform="translate(-3973.664 -1239.005)"/></g><g transform="translate(150.547 164.905)"><path class="e" d="M4028.831,1721.325a6.732,6.732,0,0,1-4.243-1.345.621.621,0,1,1,.761-.98c2.587,2.009,6.484.858,9.3-.463A34.527,34.527,0,0,0,4048,1708.118a22.53,22.53,0,0,0,4.591-15.888.621.621,0,1,1,1.232-.152,23.781,23.781,0,0,1-4.826,16.78,35.75,35.75,0,0,1-13.823,10.8A15.293,15.293,0,0,1,4028.831,1721.325Z" transform="translate(-4024.348 -1691.533)"/></g><g transform="translate(146.443 161.167)"><path class="e" d="M4052.35,1760.753q-1.373,0-2.761-.1a25.047,25.047,0,0,1-7.5-1.572c-4.546-1.807-8.071-5.885-11.181-9.484q-.35-.406-.7-.806c-4.4-5.069-7.7-11.059-10.881-16.852-3.459-6.293-7.036-12.8-12.016-18.035-.312-.328-.631-.653-.949-.978a21.126,21.126,0,0,1-3.713-4.571,13.056,13.056,0,0,1-.752-10.126,9.154,9.154,0,0,1,4.819-5.6.621.621,0,1,1,.5,1.135,7.931,7.931,0,0,0-4.147,4.866,11.777,11.777,0,0,0,.669,9.134,20.175,20.175,0,0,0,3.507,4.293c.324.33.646.659.963.992,5.09,5.352,8.707,11.93,12.2,18.292,3.153,5.735,6.413,11.667,10.731,16.635l.7.808c3.164,3.661,6.437,7.448,10.7,9.142a23.84,23.84,0,0,0,7.135,1.487,32.772,32.772,0,0,0,21.178-5.443,25.05,25.05,0,0,0,10.85-18.488c.457-6.944-2.444-13.27-4.958-17.355-3.25-5.281-7.6-9.879-11.8-14.326l-27.062-28.619a12.666,12.666,0,0,0-3.726-3.059,3.891,3.891,0,0,0-4.116.324.621.621,0,0,1-.835-.919,5.136,5.136,0,0,1,5.463-.536,13.788,13.788,0,0,1,4.115,3.337l27.062,28.619c4.248,4.492,8.64,9.137,11.958,14.528,3.74,6.078,5.517,12.332,5.139,18.087a26.3,26.3,0,0,1-11.376,19.423A33.456,33.456,0,0,1,4052.35,1760.753Z" transform="translate(-4001.213 -1670.458)"/></g><g transform="translate(27.316 187.369)"><path class="e" d="M3330.2,1869.3a.606.606,0,0,1-.092-.007.62.62,0,0,1-.522-.705c.379-2.55,1.972-7.474,8.383-11.811a59.852,59.852,0,0,1,9.239-4.792c1.219-.544,2.48-1.108,3.7-1.692a74.614,74.614,0,0,0,24.134-18.5c.62-.721,1.251-1.478,1.862-2.211,4.152-4.979,8.444-10.128,14.758-11.38a.621.621,0,0,1,.241,1.218c-5.883,1.167-10.032,6.144-14.045,10.957-.614.736-1.249,1.5-1.874,2.225a75.868,75.868,0,0,1-24.539,18.813c-1.233.591-2.5,1.158-3.729,1.706a58.863,58.863,0,0,0-9.05,4.687c-6.017,4.07-7.5,8.617-7.85,10.965A.621.621,0,0,1,3330.2,1869.3Z" transform="translate(-3329.576 -1818.185)"/></g><g transform="translate(5.905 124.093)"><path class="e" d="M3244.483,1608.688a32.576,32.576,0,0,1-18.773-6.312,38.957,38.957,0,0,1-13.8-17.915c-4.94-13.278-2.857-27.761-.843-41.768,1.18-8.2,2.4-16.688,2.209-24.869-.037-1.61-.11-3.255-.179-4.847-.257-5.877-.522-11.954.849-17.783,1.73-7.352,6.107-14.42,12.657-20.441,6.254-5.748,14.527-10.1,21.036-13.252a.621.621,0,0,1,.541,1.118c-6.432,3.114-14.6,7.411-20.737,13.049-6.367,5.851-10.616,12.7-12.289,19.811-1.332,5.662-1.071,11.652-.817,17.445.07,1.6.142,3.25.18,4.872.193,8.284-1.034,16.82-2.221,25.075-1.992,13.853-4.052,28.177.778,41.158a37.7,37.7,0,0,0,13.357,17.337,31.342,31.342,0,0,0,18.051,6.082q1.2,0,2.381-.107c5.609-.507,11.015-2.733,15.1-4.615a121.87,121.87,0,0,0,21.1-12.443c.921-.677,1.853-1.381,2.754-2.063,3.875-2.93,7.882-5.961,12.451-7.874,1.215-.509,2.485-.945,3.712-1.368,2.91-1,5.658-1.946,7.895-3.805,3.144-2.614,4.991-6.964,5.067-11.933.071-4.6-1.284-9.127-2.759-13.338a.621.621,0,1,1,1.172-.41c1.513,4.32,2.9,8.977,2.829,13.767-.082,5.332-2.092,10.023-5.515,12.869-2.411,2-5.4,3.031-8.285,4.025-1.209.416-2.458.845-3.636,1.339-4.425,1.853-8.368,4.835-12.182,7.719-.9.684-1.84,1.391-2.767,2.073a123.14,123.14,0,0,1-21.313,12.57c-4.174,1.924-9.708,4.2-15.506,4.724Q3245.735,1608.688,3244.483,1608.688Z" transform="translate(-3208.861 -1461.438)"/></g><g transform="translate(59.841 106.1)"><path class="e" d="M3521.295,1377.666a.618.618,0,0,1-.437-.179c-2.281-2.257-3.143-5.408-3.977-8.454-.838-3.063-1.63-5.955-3.739-7.971a.621.621,0,0,1,.858-.9c2.356,2.253,3.232,5.449,4.078,8.54.827,3.022,1.608,5.876,3.652,7.9a.621.621,0,0,1-.437,1.062Z" transform="translate(-3512.951 -1359.993)"/></g><g transform="translate(43.117 104.933)"><path class="e" d="M3438.563,1385a.616.616,0,0,1-.291-.073c-2.645-1.407-5.688-1.035-8.91-.642a26.95,26.95,0,0,1-6.4.27,4.912,4.912,0,0,1-3.6-1.757c-.949-1.321-.743-3.032-.475-4.532,1.455-8.151,3.219-16.354,5.245-24.381a.621.621,0,1,1,1.2.3c-2.018,8-3.777,16.173-5.226,24.3-.233,1.308-.405,2.662.261,3.59a3.768,3.768,0,0,0,2.736,1.248,26.032,26.032,0,0,0,6.1-.269c3.271-.4,6.653-.812,9.643.779a.621.621,0,0,1-.292,1.169Z" transform="translate(-3418.664 -1353.414)"/></g><g transform="translate(19.055 226.578)"><path class="e" d="M3283.625,2049.666a.62.62,0,0,1-.558-.891,17.235,17.235,0,0,1,15.037-9.534h.006a.621.621,0,0,1,.006,1.242,15.967,15.967,0,0,0-13.931,8.833A.621.621,0,0,1,3283.625,2049.666Z" transform="translate(-3283.005 -2039.241)"/></g><g transform="translate(28.405 161.935)"><path class="e" d="M3361.022,1730.759a.621.621,0,0,1-.507-.261c-3.6-5.073-5.4-11.127-7.135-16.982-.944-3.184-1.92-6.477-3.176-9.564a102.059,102.059,0,0,0-6.728-12.862c-2.874-4.912-5.846-9.99-7.724-15.482a.621.621,0,1,1,1.175-.4c1.837,5.374,4.777,10.4,7.62,15.257a102.955,102.955,0,0,1,6.807,13.021c1.278,3.143,2.263,6.466,3.216,9.679,1.707,5.757,3.472,11.711,6.957,16.616a.621.621,0,0,1-.505.98Z" transform="translate(-3335.719 -1674.785)"/></g><g transform="translate(23.588 174.741)"><path class="e" d="M3329.206,1766.206a.62.62,0,0,1-.467-.211,40.992,40.992,0,0,0-8.513-6.75c-.7-.46-1.421-.936-2.125-1.413-3.6-2.444-7.546-5.541-9.491-9.973a.621.621,0,1,1,1.137-.5c1.818,4.144,5.6,7.1,9.051,9.445.7.472,1.415.946,2.11,1.4a41.9,41.9,0,0,1,8.763,6.968.621.621,0,0,1-.467,1.03Z" transform="translate(-3308.559 -1746.988)"/></g><g transform="translate(213.984 197.499)"><path class="e" d="M4388.8,1892.962a.62.62,0,0,1-.465-.209,18.9,18.9,0,0,1-4.3-8.487c-.186-.852-.314-1.728-.439-2.574a15,15,0,0,0-1.505-5.464.621.621,0,1,1,1.073-.624,16.162,16.162,0,0,1,1.661,5.908c.121.826.247,1.681.423,2.491a17.653,17.653,0,0,0,4.022,7.928.621.621,0,0,1-.465,1.032Z" transform="translate(-4382.002 -1875.294)"/></g><g transform="translate(165.677 105.763)"><path class="e" d="M4115.13,1361.658c-.185,0-.371-.007-.558-.021a6.425,6.425,0,0,1-4.8-2.561.621.621,0,0,1,1.01-.723,5.52,5.52,0,0,0,8.036.606.621.621,0,0,1,.89.866A6.329,6.329,0,0,1,4115.13,1361.658Z" transform="translate(-4109.653 -1358.094)"/></g><g transform="translate(170.457 108.877)"><path class="e" d="M4143.863,1383.383a.622.622,0,0,1-.61-.508c-.156-.843-1.308-1.3-2.312-1.3h0c-.4,0-.815.041-1.25.083a7.521,7.521,0,0,1-2.616-.053.621.621,0,0,1,.12-1.222,6.051,6.051,0,0,0,5.367-4.283.621.621,0,1,1,1.194.338,7.21,7.21,0,0,1-2.834,3.9h.023c1.5,0,3.239.725,3.533,2.314a.623.623,0,0,1-.611.734Z" transform="translate(-4136.601 -1375.649)"/></g><g transform="translate(172.536 114.244)"><path class="e" d="M4152.429,1410a12.086,12.086,0,0,1-3.672-.562.621.621,0,0,1,.377-1.183,11.375,11.375,0,0,0,10.691-2.194.621.621,0,1,1,.813.938A12.636,12.636,0,0,1,4152.429,1410Z" transform="translate(-4148.324 -1405.91)"/></g><g transform="translate(178.704 118.391)"><path class="e" d="M4183.716,1432.715a.621.621,0,0,1-.4-1.1,10.847,10.847,0,0,1,13.4-.021.621.621,0,0,1-.787.96,9.571,9.571,0,0,0-11.822.018A.621.621,0,0,1,4183.716,1432.715Z" transform="translate(-4183.095 -1429.289)"/></g><g transform="translate(183.239 122.66)"><path class="e" d="M4222.565,1456.674a.619.619,0,0,1-.29-.072,17.484,17.484,0,0,0-12.82-1.364.621.621,0,1,1-.337-1.195,18.739,18.739,0,0,1,13.739,1.461.621.621,0,0,1-.292,1.169Z" transform="translate(-4208.665 -1453.355)"/></g><g transform="translate(189.467 127.785)"><path class="e" d="M4255.407,1513.615a.6.6,0,0,1-.145-.018.621.621,0,0,1-.458-.749,8.877,8.877,0,0,0-1.987-7.888c-.086-.1-.176-.192-.265-.287a4.468,4.468,0,0,1-1.465-3.049c-.042-.272-.081-.529-.141-.775a9.726,9.726,0,0,0-2.04-3.5.621.621,0,0,1,.9-.852.373.373,0,0,0,.34.056.924.924,0,0,0,.611-.491,3.111,3.111,0,0,0-.081-1.914c-.361-1.384-1.233-3.74-3.027-3.967a.621.621,0,0,1-.371-1.046,2.416,2.416,0,0,1,1.6-.6c.1-.011.206-.022.306-.036a.831.831,0,0,0,.561-.287.764.764,0,0,0-.192-.225,5.564,5.564,0,0,0-5.007-1.359.621.621,0,0,1-.6-1.019,17.313,17.313,0,0,1,3.949-3.267.621.621,0,1,1,.641,1.063,16.092,16.092,0,0,0-2.491,1.852,6.84,6.84,0,0,1,4.371,1.832,1.676,1.676,0,0,1,.557.913,1.243,1.243,0,0,1-.228.959,2.055,2.055,0,0,1-1.181.73,7.519,7.519,0,0,1,2.316,4.148,4.108,4.108,0,0,1,.017,2.726,2.176,2.176,0,0,1-1.174,1.109,8.324,8.324,0,0,1,1.439,2.888c.071.3.116.59.16.875a3.3,3.3,0,0,0,1.146,2.392c.094.1.189.2.282.307a10.136,10.136,0,0,1,2.268,9.006A.621.621,0,0,1,4255.407,1513.615Z" transform="translate(-4243.781 -1482.25)"/></g><g transform="translate(191.984 154.928)"><path class="e" d="M4265.786,1642.625a.621.621,0,0,1-.6-.444,8.214,8.214,0,0,0-6.679-5.662.621.621,0,0,1,.154-1.232,9.487,9.487,0,0,1,7.715,6.541.621.621,0,0,1-.6.8Z" transform="translate(-4257.968 -1635.282)"/></g><g transform="translate(193.724 160.297)"><path class="e" d="M4275,1671.387h-.031a8.361,8.361,0,0,1-7.134-4.968.621.621,0,1,1,1.141-.488,7.1,7.1,0,0,0,6.054,4.216.621.621,0,0,1-.03,1.241Z" transform="translate(-4267.779 -1665.554)"/></g><g transform="translate(191.228 164.492)"><path class="e" d="M4254.765,1699.135a.621.621,0,0,1-.615-.54l-.436-3.317a.621.621,0,0,1,.967-.593,4.7,4.7,0,0,0,3.515.693,12.92,12.92,0,0,1-3.737-5.339.621.621,0,1,1,1.165-.429,11.648,11.648,0,0,0,4.228,5.478.621.621,0,0,1-.086,1.069,5.9,5.9,0,0,1-4.663.147l.28,2.129a.621.621,0,0,1-.535.7A.644.644,0,0,1,4254.765,1699.135Z" transform="translate(-4253.709 -1689.204)"/></g><g transform="translate(116.437 191.86)"><path class="e" d="M3844.022,1848.092a3.855,3.855,0,0,1-3.07-1.125,2.279,2.279,0,0,1-.516-1.53,14.753,14.753,0,0,1-7.919.344.621.621,0,0,1,.283-1.209,13.5,13.5,0,0,0,8.385-.743,1.619,1.619,0,0,1,.751-.318.621.621,0,0,1,.364,1.172q-.214.1-.431.2a.752.752,0,0,0-.125.221,1.109,1.109,0,0,0,.149,1.052,2.876,2.876,0,0,0,2.327.69,10.744,10.744,0,0,0,3.145-.567.621.621,0,1,1,.4,1.175,11.961,11.961,0,0,1-3.509.632C3844.177,1848.091,3844.1,1848.092,3844.022,1848.092Z" transform="translate(-3832.037 -1843.505)"/></g><g transform="translate(131.38 193.48)"><path class="e" d="M3925.568,1858.027a12.562,12.562,0,0,1-2.042-.166.621.621,0,0,1-.319-1.07,7.663,7.663,0,0,0,.849-.918,12.47,12.47,0,0,1-7.161,2.149.621.621,0,0,1,.011-1.241h.011a11.2,11.2,0,0,0,8.665-3.925.621.621,0,0,1,1.073.563,9.128,9.128,0,0,1-1.725,3.349,11.441,11.441,0,0,0,4.055-.5.621.621,0,1,1,.372,1.184A12.667,12.667,0,0,1,3925.568,1858.027Z" transform="translate(-3916.285 -1852.636)"/></g><g transform="translate(123.687 200.049)"><path class="e" d="M3899.124,1927.219A9.561,9.561,0,0,1,3893,1925a2.734,2.734,0,0,1-2,.489,12.228,12.228,0,0,1-10.9-15.06,2.5,2.5,0,0,1-2.14-1.03,5.261,5.261,0,0,1-.5-3.567,18.922,18.922,0,0,1,1.686-6.922,9.574,9.574,0,0,1-5.911-1.139.621.621,0,0,1,.275-1.159,9.5,9.5,0,0,0,8.338-6.5.621.621,0,0,1,1.187.365,10.832,10.832,0,0,1-7.251,7,8.28,8.28,0,0,0,4.523-.085.621.621,0,0,1,.67.98c-1.687,2.116-2.018,5.155-2.283,7.6a4.143,4.143,0,0,0,.3,2.733,1.28,1.28,0,0,0,1.1.487.53.53,0,0,0,.482-.287.621.621,0,0,1,1.147.475,11,11,0,0,0,9.382,14.879c.533.043,1.124-.072,1.188-.339a.621.621,0,0,1,1.043-.295,8.245,8.245,0,0,0,7.4,2.2,16.238,16.238,0,0,1,2.584-7.629.621.621,0,0,1,1.094.574.436.436,0,0,0,.08.407.975.975,0,0,0,.777.419,2.75,2.75,0,0,0,1.786-1.078,13.421,13.421,0,0,0,3.43-11.092.621.621,0,1,1,1.226-.194,14.689,14.689,0,0,1-3.754,12.139,3.992,3.992,0,0,1-2.658,1.467,2.226,2.226,0,0,1-1.659-.739,15,15,0,0,0-1.7,6.253.621.621,0,0,1-.459.57A9.087,9.087,0,0,1,3899.124,1927.219Z" transform="translate(-3872.913 -1889.671)"/></g><g transform="translate(89.141 176.451)"><path class="e" d="M3685.162,1760.7a9.358,9.358,0,0,1-6.856-3.028.621.621,0,0,1,.918-.835,8.1,8.1,0,0,0,6.233,2.615h.024a.621.621,0,0,1,.023,1.241C3685.391,1760.695,3685.276,1760.7,3685.162,1760.7Z" transform="translate(-3678.145 -1756.631)"/></g><g transform="translate(100.427 179.061)"><path class="e" d="M3745.546,1773.646a5.778,5.778,0,0,1-3.535-1.191.621.621,0,1,1,.764-.978,4.531,4.531,0,0,0,4.253.672.621.621,0,1,1,.425,1.166A5.573,5.573,0,0,1,3745.546,1773.646Z" transform="translate(-3741.773 -1771.345)"/></g><g transform="translate(83.356 174.904)"><path class="e" d="M3648.74,1750.249a4.259,4.259,0,0,1-3.039-1.292.621.621,0,1,1,.9-.86,2.992,2.992,0,0,0,2.282.906.621.621,0,1,1,.062,1.24C3648.873,1750.248,3648.806,1750.249,3648.74,1750.249Z" transform="translate(-3645.527 -1747.907)"/></g><g transform="translate(133.036 116.798)"><path class="e" d="M3929.49,1426.01a.62.62,0,0,1-.3-.077,7.191,7.191,0,0,1-3.554-4.889.621.621,0,0,1,1.219-.234,5.936,5.936,0,0,0,2.934,4.036.621.621,0,0,1-.3,1.165Z" transform="translate(-3925.625 -1420.306)"/></g><g transform="translate(123.76 127.215)"><path class="e" d="M3876.965,1482.454a3.829,3.829,0,0,1-3.615-2.618.621.621,0,0,1,1.189-.357,2.558,2.558,0,0,0,3.017,1.653.621.621,0,1,1,.339,1.195A3.407,3.407,0,0,1,3876.965,1482.454Z" transform="translate(-3873.324 -1479.036)"/></g><g transform="translate(204.229 156.839)"><path class="e" d="M4346.04,1698.854a.621.621,0,0,1-.6-.778,30.609,30.609,0,0,0-2.212-21.21,61.443,61.443,0,0,0-3.349-5.633c-.477-.741-.971-1.507-1.443-2.271-2.627-4.243-4.859-8.78-7.017-13.169l-4.347-8.842a.621.621,0,1,1,1.114-.547l4.348,8.841c2.145,4.362,4.362,8.872,6.958,13.063.467.754.957,1.516,1.432,2.252a62.629,62.629,0,0,1,3.416,5.748,31.866,31.866,0,0,1,2.3,22.082A.621.621,0,0,1,4346.04,1698.854Z" transform="translate(-4327.007 -1646.057)"/></g><g transform="translate(36.634 230.955)"><path class="e" d="M3384.255,2093.2a.621.621,0,0,1-.583-.406,29.026,29.026,0,0,1-1.143-14.541,64.416,64.416,0,0,1,4.131-13.939.621.621,0,1,1,1.154.459,63.272,63.272,0,0,0-4.057,13.667,27.808,27.808,0,0,0,1.08,13.923.621.621,0,0,1-.582.836Z" transform="translate(-3382.111 -2063.919)"/></g><g transform="translate(171.089 123.419)"><path class="e" d="M4146.557,1479.72a.628.628,0,0,1-.2-.032.62.62,0,0,1-.392-.785,19.186,19.186,0,0,0-5.584-20.178.621.621,0,0,1,.808-.942,20.453,20.453,0,0,1,5.954,21.513A.622.622,0,0,1,4146.557,1479.72Z" transform="translate(-4140.167 -1457.634)"/></g><g transform="translate(54.862 267.026)"><path class="e" d="M3487.325,2289.435a.622.622,0,0,1-.611-.512,168,168,0,0,1-1.835-21,.621.621,0,0,1,1.241-.036,166.551,166.551,0,0,0,1.817,20.818.621.621,0,0,1-.5.72A.643.643,0,0,1,3487.325,2289.435Z" transform="translate(-3484.879 -2267.285)"/></g><g transform="translate(200.735 250.328)"><path class="e" d="M4312.508,2211.994a.621.621,0,0,1-.618-.569c-1.044-12.519-2.583-25.156-4.574-37.559a.621.621,0,1,1,1.226-.2c2,12.434,3.539,25.1,4.585,37.652a.621.621,0,0,1-.567.67Z" transform="translate(-4307.308 -2173.146)"/></g><g transform="translate(57.177 55.82)"><path class="e" d="M3498.555,1086.325a.621.621,0,0,1-.6-.792,12.847,12.847,0,0,1,13.227-8.962.621.621,0,0,1-.125,1.235,11.651,11.651,0,0,0-11.909,8.069A.622.622,0,0,1,3498.555,1086.325Z" transform="translate(-3497.934 -1076.515)"/></g><g transform="translate(32.482 73.151)"><path class="e" d="M3359.327,1182.412a.622.622,0,0,1-.587-.824,11.256,11.256,0,0,1,11.808-7.272.621.621,0,0,1-.167,1.23,9.978,9.978,0,0,0-10.468,6.447A.621.621,0,0,1,3359.327,1182.412Z" transform="translate(-3358.706 -1174.227)"/></g><g transform="translate(39.177 73.272)"><path class="e" d="M3399.418,1180.85a2.971,2.971,0,1,1,2.971-2.971A2.974,2.974,0,0,1,3399.418,1180.85Zm0-4.7a1.729,1.729,0,1,0,1.729,1.729A1.731,1.731,0,0,0,3399.418,1176.15Z" transform="translate(-3396.447 -1174.908)"/></g><g transform="translate(63.723 56.56)"><path class="e" d="M3537.808,1086.627a2.971,2.971,0,1,1,2.971-2.971A2.974,2.974,0,0,1,3537.808,1086.627Zm0-4.7a1.729,1.729,0,1,0,1.729,1.729A1.732,1.732,0,0,0,3537.808,1081.927Z" transform="translate(-3534.837 -1080.685)"/></g><g transform="translate(45.879 68.921)"><path class="e" d="M3447.761,1170.336a20.276,20.276,0,0,1-2.159-.115,4.511,4.511,0,0,1-2.463-.842,4.172,4.172,0,0,1-1.165-1.76,19.466,19.466,0,0,1-1.017-4.984,18.581,18.581,0,0,0-.915-4.608c-1.038-2.7-3.292-4.742-5.573-6.542a.621.621,0,1,1,.77-.974c2.42,1.91,4.817,4.089,5.963,7.071a19.784,19.784,0,0,1,.989,4.913,18.265,18.265,0,0,0,.939,4.67,2.92,2.92,0,0,0,.8,1.253,3.449,3.449,0,0,0,1.81.569,19,19,0,0,0,3.541.048.621.621,0,1,1,.1,1.238C3448.839,1170.315,3448.3,1170.336,3447.761,1170.336Z" transform="translate(-3434.233 -1150.376)"/></g><g transform="translate(55.162 84.756)"><path class="e" d="M3489.639,1253.4a8.271,8.271,0,0,1-2.643-.419.621.621,0,0,1,.394-1.177c3.194,1.069,6.709-.494,9.414-1.976,5.438-2.979,8.492-6.072,9.61-9.734a.621.621,0,0,1,1.188.363c-1.6,5.245-6.589,8.482-10.2,10.46C3495.177,1252.136,3492.431,1253.4,3489.639,1253.4Z" transform="translate(-3486.573 -1239.655)"/></g><g transform="translate(0 14.81)"><path class="e" d="M3191.931,909.778a.621.621,0,0,1-.577-.392c-1.3-3.29-3.618-6.136-5.856-8.889-1.133-1.394-2.3-2.835-3.348-4.332a36.687,36.687,0,0,1,8.649-50.741.621.621,0,0,1,.726,1.007,35.446,35.446,0,0,0-8.356,49.024c1.017,1.459,2.174,2.883,3.293,4.259,2.3,2.826,4.672,5.747,6.047,9.215a.622.622,0,0,1-.577.85Z" transform="translate(-3175.571 -845.305)"/></g><g transform="translate(12.695 66.277)"><path class="e" d="M3260.942,1146.367h-.026a15.623,15.623,0,0,1-13.731-10.064.621.621,0,1,1,1.167-.423,14.352,14.352,0,0,0,12.615,9.246.621.621,0,0,1-.025,1.241Z" transform="translate(-3247.147 -1135.47)"/></g><g transform="translate(14.835 48.234)"><path class="e" d="M3279.942,1057.373a.65.65,0,0,1-.09-.006c-4.9-.714-9.622-3.78-13.3-8.634-3.249-4.284-5.306-9.288-7.294-14.128a.621.621,0,1,1,1.148-.472c1.958,4.766,3.983,9.694,7.135,13.849,3.483,4.592,7.92,7.488,12.493,8.155a.621.621,0,0,1-.089,1.235Z" transform="translate(-3259.208 -1033.748)"/></g><g transform="translate(29.026 58.275)"><path class="e" d="M3353.387,1098.749a.622.622,0,0,1-.064,0,21.26,21.26,0,0,1-13.958-7.37.621.621,0,1,1,.948-.8,20.011,20.011,0,0,0,13.137,6.936.621.621,0,0,1-.063,1.238Z" transform="translate(-3339.219 -1090.354)"/></g><g transform="translate(30.569 40.915)"><path class="e" d="M3371.346,1010.23a21.087,21.087,0,0,1-11.707-3.983,45.99,45.99,0,0,1-9.286-9.1,13.168,13.168,0,0,1-2.4-3.836.621.621,0,0,1,1.171-.413,12.178,12.178,0,0,0,2.195,3.465,44.865,44.865,0,0,0,9.027,8.863,19.54,19.54,0,0,0,11.666,3.75h.028a.621.621,0,0,1,.026,1.241C3371.823,1010.224,3371.583,1010.23,3371.346,1010.23Z" transform="translate(-3347.916 -992.481)"/></g><g transform="translate(45.722 41.576)"><path class="e" d="M3452.036,1007.764a.634.634,0,0,1-.124-.012,33.968,33.968,0,0,1-18.4-10.506.621.621,0,0,1,.923-.831,32.719,32.719,0,0,0,17.727,10.12.621.621,0,0,1-.122,1.229Z" transform="translate(-3433.349 -996.21)"/></g><g transform="translate(53.695 37.277)"><path class="e" d="M3496.715,982.987a.608.608,0,0,1-.079-.005c-7.2-.914-13.247-5.9-18.107-9.908a.621.621,0,0,1,.79-.958c4.737,3.906,10.632,8.766,17.474,9.635a.621.621,0,0,1-.078,1.236Z" transform="translate(-3478.303 -971.973)"/></g><g transform="translate(65.472 22.87)"><path class="e" d="M3555.788,914.527a.621.621,0,0,1-.618-.567,36.3,36.3,0,0,0-10.287-22.155.621.621,0,1,1,.879-.876,37.566,37.566,0,0,1,10.645,22.924.621.621,0,0,1-.565.672Z" transform="translate(-3544.702 -890.746)"/></g><g transform="translate(17.931 4.813)"><path class="e" d="M3277.289,798.29a.621.621,0,0,1-.584-.831,7.027,7.027,0,0,1,7.435-4.377,7.633,7.633,0,0,1,4.335-3.495,15.642,15.642,0,0,1,5.861-.608,37.275,37.275,0,0,1,10.644,2.13.621.621,0,0,1-.418,1.169,36.035,36.035,0,0,0-10.289-2.059,14.518,14.518,0,0,0-5.393.542,6.226,6.226,0,0,0-3.815,3.265.621.621,0,0,1-.717.361,5.708,5.708,0,0,0-6.474,3.492A.622.622,0,0,1,3277.289,798.29Z" transform="translate(-3276.668 -788.939)"/></g><g transform="translate(35.578 0)"><path class="e" d="M3428.015,796.611a.621.621,0,0,1-.613-.524,45.546,45.546,0,0,0-6.533-17.184,33.827,33.827,0,0,0-15.31-13.029,47.055,47.055,0,0,0-18.923-2.781c-3.215.124-6.852.54-9.458,2.694a.621.621,0,0,1-.791-.957c2.892-2.389,6.78-2.845,10.2-2.977a48.271,48.271,0,0,1,19.422,2.865,35.166,35.166,0,0,1,15.921,13.541,46.732,46.732,0,0,1,6.7,17.635.622.622,0,0,1-.614.718Z" transform="translate(-3376.162 -761.805)"/></g><g transform="translate(124.086 46.723)"><path class="e" d="M3882.516,1030.3a.621.621,0,0,1-.5-.985,1.318,1.318,0,0,0,.1-1.273,2.5,2.5,0,0,0-1.687-1.5c-1.379-.305-2.8.289-4.383,1.039a.621.621,0,1,1-.531-1.122c1.383-.654,3.278-1.551,5.182-1.128a3.754,3.754,0,0,1,2.579,2.268,2.517,2.517,0,0,1-.26,2.442A.62.62,0,0,1,3882.516,1030.3Z" transform="translate(-3875.162 -1025.227)"/></g><g transform="translate(126.13 47.047)"><path class="e" d="M3889.564,1032.866a2.814,2.814,0,0,1-1.215-.269,2.958,2.958,0,0,1-1.492-1.727,2.927,2.927,0,0,1,.123-2.254,2.9,2.9,0,0,1,1.782-1.436,2.868,2.868,0,0,1,2.252.238.621.621,0,0,1-.627,1.071,1.625,1.625,0,0,0-1.274-.118,1.654,1.654,0,0,0-1.024.806,1.68,1.68,0,0,0-.056,1.292,1.712,1.712,0,0,0,.851,1.007,1.855,1.855,0,0,0,2.326-.818.621.621,0,1,1,1.114.549A3.1,3.1,0,0,1,3889.564,1032.866Z" transform="translate(-3886.689 -1027.055)"/></g><g transform="translate(142.874 51.148)"><path class="e" d="M3990.024,1055.083a.621.621,0,0,1-.6-.469,4.251,4.251,0,0,0-7.256-1.828.621.621,0,0,1-.916-.839,5.493,5.493,0,0,1,9.375,2.361.622.622,0,0,1-.6.774Z" transform="translate(-3981.089 -1050.177)"/></g><g transform="translate(143.277 51.58)"><path class="e" d="M3986.1,1058.046a2.748,2.748,0,0,1-1.729-.586,2.935,2.935,0,0,1-.206-4.246.621.621,0,0,1,.868.888,1.548,1.548,0,1,0,1.8-.305.621.621,0,1,1,.526-1.125,2.8,2.8,0,0,1-.736,5.331A3.131,3.131,0,0,1,3986.1,1058.046Z" transform="translate(-3983.359 -1052.613)"/></g><g transform="translate(132.27 57.157)"><path class="e" d="M3926.079,1092.1a4.854,4.854,0,0,1-3.391-1.34,4.324,4.324,0,0,1-1.148-4.517,3.513,3.513,0,0,1,1.876-1.922,3,3,0,0,1,2.351-.06.621.621,0,0,1-.477,1.147,1.766,1.766,0,0,0-1.382.053,2.246,2.246,0,0,0-1.207,1.222,3.109,3.109,0,0,0,.856,3.19,3.664,3.664,0,0,0,2.6.984,3.026,3.026,0,0,0,2.176-.894,2.766,2.766,0,0,0,.58-2.505,2.315,2.315,0,0,0-1.372-1.727.621.621,0,0,1,.439-1.162,3.535,3.535,0,0,1,2.143,2.609,4.017,4.017,0,0,1-.886,3.636,4.255,4.255,0,0,1-3.055,1.284Z" transform="translate(-3921.304 -1084.051)"/></g><g transform="translate(123.565 57.888)"><path class="e" d="M3878.652,1098.644l-.051,0a7.026,7.026,0,0,1-6-3.949,5.211,5.211,0,0,1,.12-4.152,4.242,4.242,0,0,1,2.558-2.341.621.621,0,1,1,.369,1.186,3.017,3.017,0,0,0-1.8,1.679,3.951,3.951,0,0,0-.1,3.147,5.781,5.781,0,0,0,4.955,3.193.621.621,0,0,1-.05,1.24Z" transform="translate(-3872.228 -1088.172)"/></g><g transform="translate(139.753 60.632)"><path class="e" d="M3964.931,1113.982a5.9,5.9,0,0,1-.91-.07.621.621,0,1,1,.191-1.227,5.02,5.02,0,0,0,4.738-8.04.621.621,0,1,1,.98-.762,6.257,6.257,0,0,1-5,10.1Z" transform="translate(-3963.496 -1103.644)"/></g><g transform="translate(153.288 55.887)"><path class="e" d="M4045.625,1079.492c-2.07,0-3.63-.072-5.567-1.473a.621.621,0,1,1,.728-1.006c1.72,1.244,3.028,1.24,5.193,1.237h.39a.621.621,0,0,1,0,1.242h-.744Z" transform="translate(-4039.801 -1076.896)"/></g><g transform="translate(115.782 45.309)"><path class="e" d="M3834.468,1020.363h0a9.835,9.835,0,0,1-5.873-1.991.621.621,0,1,1,.751-.989,8.585,8.585,0,0,0,5.127,1.739.621.621,0,0,1,0,1.242Z" transform="translate(-3828.347 -1017.257)"/></g><g transform="translate(122.863 18.906)"><path class="e" d="M3868.89,878.824a.621.621,0,0,1-.258-1.186,19.215,19.215,0,0,0,5.422-3.221,6.145,6.145,0,0,0,2.082-5.287.621.621,0,1,1,1.22-.229,7.307,7.307,0,0,1-2.447,6.417,20.457,20.457,0,0,1-5.763,3.451A.619.619,0,0,1,3868.89,878.824Z" transform="translate(-3868.269 -868.394)"/></g><g transform="translate(155.882 26.929)"><path class="e" d="M4060.782,924.708a.617.617,0,0,1-.385-.134,16.422,16.422,0,0,1-5.964-10.229.621.621,0,0,1,1.227-.191,15.159,15.159,0,0,0,5.508,9.447.621.621,0,0,1-.386,1.108Z" transform="translate(-4054.426 -913.628)"/></g><g transform="translate(89.255 58.221)"><path class="e" d="M3680.27,1093.53a4.138,4.138,0,0,1-1.015-.125.621.621,0,1,1,.3-1.2,3.264,3.264,0,0,0,3.653-1.781.621.621,0,1,1,1.135.5A4.51,4.51,0,0,1,3680.27,1093.53Z" transform="translate(-3678.785 -1090.051)"/></g></g></svg>