<svg xmlns="http://www.w3.org/2000/svg" width="322.798" height="382.922" viewBox="0 0 322.798 382.922"><defs><style>.a{fill:#d4edfc;}.b{fill:#fff5f5;}.c{fill:#8fb1d9;}.d{fill:#fff;}.e{fill:#4987aa;}.f{fill:#465468;}</style></defs><g transform="translate(-8663.995 -919.411)"><g transform="translate(8710.766 1270.588)"><path class="a" d="M9049.748,2656.837v.072h-158.49v-.072a248.28,248.28,0,0,1,1.8-30.592l.151-.432c10.361,3.61,20.289,6.32,30.706,10.05,9.9,3.543,19.846,7.1,30.173,9.067,31.625,6.026,64.011-3.241,94.083-14.994Q9048.614,2643.4,9049.748,2656.837Z" transform="translate(-8891.257 -2625.813)"/></g><g transform="translate(8727.148 1061.034)"><path class="b" d="M8973.211,1607.572a2.349,2.349,0,1,1-2.35,2.348A2.349,2.349,0,0,1,8973.211,1607.572Z" transform="translate(-8970.861 -1607.572)"/></g><g transform="translate(8699.938 1068.081)"><path class="b" d="M8840.992,1641.812a2.349,2.349,0,1,1-2.351,2.348A2.349,2.349,0,0,1,8840.992,1641.812Z" transform="translate(-8838.642 -1641.812)"/></g><g transform="translate(8761.021 920.244)"><path class="c" d="M9163.093,939.212a2.56,2.56,0,0,0-2.013-.4,5.531,5.531,0,0,0-2.274,1.231c-2.454,3.916-3.617,8.576-4.914,13.056-1.49,5.149-3.4,10.484-7.478,13.97l-.112-.111a9.824,9.824,0,0,1-3.369,2.194c-.06,1.128-.077,2.26-.045,3.389l.05,0a20.464,20.464,0,0,1-.668,6.777l-.145.008q.1,1.871.226,3.739a3.625,3.625,0,0,0-1.769.379q-.432-1.115-.786-2.258l-.205.066c-2.159-6.186-3.973-12.583-4.129-19.131a29.069,29.069,0,0,1,4.528-17,8.688,8.688,0,0,1-4.4-2l.282-.082c2.045.375,3.807-1.342,5.276-2.813a44.909,44.909,0,0,1,11.545-8.341,3.664,3.664,0,0,1-.689-.858,7.227,7.227,0,0,1-.987-2.774,17.746,17.746,0,0,0,9.188-.01c3.224-.718,6.35-1.867,9.607-2.422a27.2,27.2,0,0,1,15.982,2.167,7.909,7.909,0,0,1,2.929,1.206,4.505,4.505,0,0,0,.209-5.723l0,0a7.284,7.284,0,0,1,4.083,6.217,8.777,8.777,0,0,1,10.58.323,4.683,4.683,0,0,0-3.444,1.634c4.824.3,9.295,3.385,12.12,7.374,3.1,4.384,4.524,9.722,5.51,15,.44,2.356.871,4.867,2.3,6.752a6.2,6.2,0,0,0,.843,2.976l-4.45-1.171a34.886,34.886,0,0,1-1.833,18.861l-.347,1.84a5.81,5.81,0,0,0-.721-.644c-2.084-1.568-5.427-1.43-7.036.62l0,.158a3.949,3.949,0,0,1-2.446-.807l.128-.142a16.371,16.371,0,0,1-5.354-12.527,9.513,9.513,0,0,0-2.034-1.836q-1.809-1.337-3.618-2.669c-.287-.264-.561-.541-.821-.827a23.584,23.584,0,0,1-10.2-.87,23.139,23.139,0,0,1-10.96-10.22,33.988,33.988,0,0,1-3.9-14.346,4.064,4.064,0,0,0-3.737.638A1.711,1.711,0,0,0,9163.093,939.212Z" transform="translate(-9135.451 -923.462)"/></g><g transform="translate(8781.902 978.379)"><path class="b" d="M9239.558,1205.942a2.637,2.637,0,1,1-2.636,2.636A2.635,2.635,0,0,1,9239.558,1205.942Z" transform="translate(-9236.922 -1205.942)"/></g><g transform="translate(8810.706 978.177)"><circle class="b" cx="2.636" cy="2.636" r="2.636" transform="translate(0 0)"/></g><g transform="translate(8784.947 1002.692)"><path class="d" d="M9280.917,1324.109c-.756,3.53-5.742,6.088-9.329,6.491-13.785,1.543-16.634-1.218-19.877-6.518C9261.316,1326.539,9270.265,1326.177,9280.917,1324.109Z" transform="translate(-9251.711 -1324.082)"/></g><g transform="translate(8763.265 979.838)"><path class="b" d="M9149.238,1213.415a3.631,3.631,0,0,1,1.77-.378,86.588,86.588,0,0,0,2.463,16.777q.182.67.383,1.337a14.432,14.432,0,0,1-7.433-11.008,8.026,8.026,0,0,1,.718-4.694A4.831,4.831,0,0,1,9149.238,1213.415Z" transform="translate(-9146.353 -1213.032)"/></g><g transform="translate(8778.497 1013.282)"><path class="b" d="M9266.638,1404.313c1.048.846,2.633.566,4.03.051-12.97,10.525-25.648,21.815-34.381,36.027-1.815-7.23-3.721-14.661-8.127-20.677-2.349-3.206-5.366-5.943-7.788-9.065a9.6,9.6,0,0,0,2.841-1.377l.047.068c1.618-.3,2.213-2.278,2.434-3.908a75.7,75.7,0,0,0-.521-23.467l.065-.062a52.844,52.844,0,0,0,5.96,5.4,14.875,14.875,0,0,0,10.872,2.793,27.731,27.731,0,0,0,17.072-8.773,34.187,34.187,0,0,0,4.37-5.777c-.016.405-.03.809-.045,1.214l-.259-.01a78.122,78.122,0,0,0-.694,14.593A26.826,26.826,0,0,0,9266.638,1404.313Z" transform="translate(-9220.372 -1375.542)"/></g><g transform="translate(8767.692 935.536)"><path class="b" d="M9218.965,1024.433l3.619,2.669a9.524,9.524,0,0,1,2.033,1.836,16.37,16.37,0,0,0,5.356,12.527l-.129.142a3.945,3.945,0,0,0,2.446.807v-.158c1.608-2.05,4.95-2.188,7.036-.62a5.84,5.84,0,0,1,.72.644,7.792,7.792,0,0,1,1.854,6.357,13.639,13.639,0,0,1-3.481,6.884,23.443,23.443,0,0,1-9.5,6.565l.021.051a7.813,7.813,0,0,0-2.533,2.447,42.245,42.245,0,0,1-4.595,10.926,34.147,34.147,0,0,1-4.372,5.777,27.719,27.719,0,0,1-17.07,8.773,14.875,14.875,0,0,1-10.873-2.793,52.834,52.834,0,0,1-5.959-5.4,54.252,54.252,0,0,1-12.6-21.687q-.2-.667-.383-1.338a86.585,86.585,0,0,1-2.464-16.777q-.123-1.868-.227-3.739l.147-.008a20.517,20.517,0,0,0,.667-6.777l-.051,0c-.03-1.13-.014-2.262.046-3.39a9.8,9.8,0,0,0,3.368-2.194l.114.111c4.072-3.486,5.987-8.821,7.477-13.97,1.3-4.48,2.459-9.14,4.914-13.056a5.526,5.526,0,0,1,2.275-1.231,2.558,2.558,0,0,1,2.012.4,1.732,1.732,0,0,1,.5.584,4.065,4.065,0,0,1,3.738-.638,33.959,33.959,0,0,0,3.9,14.346,23.14,23.14,0,0,0,10.959,10.22,23.581,23.581,0,0,0,10.2.871C9218.406,1023.892,9218.68,1024.17,9218.965,1024.433Zm-2.808,18.609a2.637,2.637,0,1,0-2.637,2.636A2.635,2.635,0,0,0,9216.157,1043.042Zm-11.155,28.4c3.588-.4,8.574-2.961,9.329-6.491-10.652,2.068-19.6,2.43-29.2-.027C9188.368,1070.22,9191.218,1072.982,9205,1071.438Zm-17.647-28.194a2.636,2.636,0,1,0-2.637,2.638A2.636,2.636,0,0,0,9187.354,1043.244Z" transform="translate(-9167.871 -997.764)"/></g><g transform="translate(8871.028 1144.245)"><path class="b" d="M9670.789,2017.992a6.583,6.583,0,0,1-.8-.817c11.087,1.125,24.591-.963,34.061-5.273a10.781,10.781,0,0,1,.71,1.512l.036-.014a250.824,250.824,0,0,1,8.979,28.69l.149.218c-1.822,1.247-3.54,2.634-5.277,4l-.047-.06c-2.762.564-5.87.881-9.1-3.523-6.271-8.553-14.841-15.169-25.29-16.289a37.331,37.331,0,0,0-3.479-8.378Z" transform="translate(-9669.991 -2011.902)"/></g><g transform="translate(8806.771 1203.113)"><path class="b" d="M9383.9,2329.819c-8.972-7.341-14.984-17.937-24.171-25.287a3.636,3.636,0,0,1,3.615-2.212,7.026,7.026,0,0,1,4.078,1.821l.134-.042a7.235,7.235,0,0,1-.22-1.037,1.58,1.58,0,0,1,1.29-1.584,4.613,4.613,0,0,1,2.21.2,10.735,10.735,0,0,1,3.507,1.356l.154-.078c.065.134.136.265.2.4,2.185,4.365,4.472,8.866,8.245,11.963,6.8,5.583,17.438,5.05,24.512-.187a9.527,9.527,0,0,0,.608-2.126,2.614,2.614,0,0,1,.952.38l.063-.094q1.436.954,2.868,1.906c1.9,1.261,4.248,2.562,6.344,1.953l-.017-.287a4.32,4.32,0,0,0,2.223-2.3c-1.891-2.208-4.786-3.616-7.309-5.223-3.218-2.054-6.349-5.612-5.233-9.263.425-1.385,2.009-2.669,3.234-1.9a5.215,5.215,0,0,1,.993,1.058c1,1.134,2.552,1.564,3.942,2.165a28.85,28.85,0,0,1,5.871,3.774q3.42,2.608,6.838,5.217c2.563,1.957,5.217,4.021,6.623,6.923.962,1.982,1.266,4.213,2.039,6.273a10.273,10.273,0,0,0,.6,1.327l.21-.111a43.839,43.839,0,0,0,10.691-8.792c.388-.409.779-.832,1.178-1.251a12.314,12.314,0,0,1,4.914-3.579l.011.031a8.3,8.3,0,0,1,4.339.535l-.1.28a9.189,9.189,0,0,0,6.026,2.488c-.218.282-.445.562-.674.835l-.048-.037a121.37,121.37,0,0,1-17.5,18.193c-5.809,5.088-12.187,11.272-19.906,11.294-2.027.006-4.064.008-6.1-.012-1.705-.019-3.407-.052-5.11-.115-8.091-.3-16.12-1.239-23.64-4.122l.063-.335a18.184,18.184,0,0,1-4.621-1.478,54.836,54.836,0,0,1-16.98-6.186,34.635,34.635,0,0,0-4.734-2.463c-2.819-1.066-6.159-1.519-8.361-3.575a5.637,5.637,0,0,1,3.657-2.484,8.563,8.563,0,0,1,1.7-.238c7.243-.3,13.332,6.439,20.577,6.27Z" transform="translate(-9357.762 -2297.948)"/></g><g transform="translate(8676.08 1136.369)"><path class="b" d="M8766.247,2022.567a175.074,175.074,0,0,1-22.205,3.433c-6.549.584-14.148.375-18.325-4.7-3.345-4.075-3.27-9.905-2.687-15.147a123.483,123.483,0,0,1,6.113-26.974l.113.039q1.128-2.794,2.257-5.583a32.18,32.18,0,0,0,9.514,17.3c7.194,6.615,16.484,10.378,25.553,14.009q12.292,4.917,24.574,9.833l-.155.389A175.2,175.2,0,0,1,8766.247,2022.567Z" transform="translate(-8722.721 -1973.632)"/></g><g transform="translate(8928.449 1211.114)"><path class="e" d="M9959.266,2336.822l.156.368a42.514,42.514,0,0,1-8.2,24.079c-.477.644-1.158,1.348-1.937,1.171-.654-2.781.018-5.674.469-8.5a53.97,53.97,0,0,0,.463-13.243l-.01-.025Q9954.738,2338.75,9959.266,2336.822Z" transform="translate(-9949.009 -2336.822)"/></g><g transform="translate(8901.506 1170.594)"><path class="e" d="M9851.8,2145.535a.118.118,0,0,1-.021.031q-1.55.877-3.1,1.747v0c-6.06,3.175-8.437,11.438-14.524,14.867l-.056.556a19.466,19.466,0,0,1-5.937-1.48c-4.044-1.743-7.215-4.863-10.085-8.273l.232-.2a13.629,13.629,0,0,0,4.6-2.291c1.145-.8,2.25-1.646,3.347-2.507,1.736-1.365,3.454-2.751,5.274-4l.02-.012a21.052,21.052,0,0,1,9.93-4.005c3.595-.294,7.469.994,9.589,3.915l.279-.14C9851.671,2144.45,9851.138,2145.113,9851.8,2145.535Z" transform="translate(-9818.082 -2139.933)"/></g><g transform="translate(8874.553 1158.715)"><path class="c" d="M9687.809,2082.276c10.448,1.119,19.021,7.736,25.29,16.29,3.23,4.4,6.339,4.087,9.1,3.523l.047.06c-1.1.86-2.2,1.71-3.345,2.507a13.655,13.655,0,0,1-4.6,2.291l-.234.2c-1.167-1.389-2.283-2.826-3.391-4.24-5.447-6.95-11.333-13.869-19.077-18.112a32.792,32.792,0,0,0-4.485-2.033l.042-.546C9687.373,2082.231,9687.593,2082.251,9687.809,2082.276Z" transform="translate(-9687.112 -2082.212)"/></g><g transform="translate(8917.527 1152.082)"><path class="a" d="M9930.492,2050.049a7.2,7.2,0,0,1,5.228,4.54,15.853,15.853,0,0,1,.816,7.127,40.988,40.988,0,0,1-4.557,16.123c-.121.426-.244.85-.367,1.276-6.838,3.851-13.761,7.5-21.183,10-4.642,1.566-9.687,2.641-14.5,2.182v0l.056-.556c6.087-3.429,8.466-11.691,14.525-14.867l0,0q1.548-.873,3.1-1.747l.036-.021s-.011-.006-.016-.01a18.645,18.645,0,0,0,2.875-6.557c.411-1.834.542-3.723.979-5.553a17.243,17.243,0,0,1,6.971-10.127c.085-.058.168-.115.256-.171A8.444,8.444,0,0,1,9930.492,2050.049Z" transform="translate(-9895.933 -2049.981)"/></g><g transform="translate(8778.032 1178.442)"><path class="a" d="M9231.945,2182.658a.454.454,0,0,1-.2-.183q-.721-1.42-1.439-2.838a79.006,79.006,0,0,1,14.932-1.566c5.486.06,6.879,6.711,9.332,11.62q4.515,9.026,9.025,18.053l-.156.078a10.724,10.724,0,0,0-3.506-1.356,4.607,4.607,0,0,0-2.209-.195,1.581,1.581,0,0,0-1.291,1.584,7.139,7.139,0,0,0,.219,1.037l-.133.041a7.035,7.035,0,0,0-4.08-1.821,3.64,3.64,0,0,0-3.615,2.212c9.188,7.349,15.2,17.946,24.172,25.287l-.205.247c-7.242.169-13.332-6.567-20.574-6.271a8.6,8.6,0,0,0-1.705.239l-.848-.293-.064.186c-10.83-1.976-22-8.752-28.334-17.762-2.545-3.625-4.484-8.64-1.994-12.3,2.08-3.059,6.3-3.707,9.219-5.985A10.034,10.034,0,0,0,9231.945,2182.658Z" transform="translate(-9218.116 -2178.067)"/></g><g transform="translate(8839.168 1166.152)"><path class="e" d="M9534.105,2170.651l-.064.095a2.606,2.606,0,0,0-.951-.381c.893-5.275-2.271-11.323-5.182-15.912q-6.363-10.039-12.727-20.08a8.864,8.864,0,0,0,3.25-.611l.006.015c6.336-2.186,10.5-8.183,16.164-11.772a23.623,23.623,0,0,1,33.086,8.107c1.908,3.291,3,7.007,4.982,10.255,1.572,2.574,3.664,4.8,5.3,7.328s2.822,5.575,2.254,8.537c-.543,2.828-2.562,5.1-4.074,7.547s-2.533,5.686-1,8.123l.053.229c-.4.419-.789.841-1.176,1.251a43.839,43.839,0,0,1-10.693,8.792l-.209.112a10.727,10.727,0,0,1-.605-1.328c-.773-2.06-1.078-4.291-2.039-6.273-1.406-2.9-4.057-4.966-6.623-6.923l-6.836-5.217a28.842,28.842,0,0,0-5.873-3.775c-1.391-.6-2.939-1.031-3.941-2.165a5.179,5.179,0,0,0-.994-1.058c-1.225-.774-2.809.51-3.234,1.895-1.113,3.651,2.016,7.209,5.234,9.263,2.521,1.608,5.416,3.015,7.309,5.223a4.311,4.311,0,0,1-2.223,2.3l.016.286c-2.1.609-4.441-.691-6.344-1.953C9536.02,2171.921,9535.061,2171.287,9534.105,2170.651Z" transform="translate(-9515.182 -2118.351)"/></g><g transform="translate(8719.607 1177.507)"><path class="e" d="M8979.6,2179.272c8.343.352,16.771-1.71,25.238-3.245q.719,1.42,1.439,2.838a.441.441,0,0,0,.2.183,10.034,10.034,0,0,1-3.455,10.012c-2.918,2.278-7.139,2.926-9.218,5.985-2.491,3.661-.551,8.676,1.993,12.3,6.329,9.01,17.5,15.787,28.335,17.763l.063-.186.849.292a5.643,5.643,0,0,0-3.658,2.484c2.2,2.056,5.543,2.508,8.362,3.574a34.624,34.624,0,0,1,4.733,2.464,54.859,54.859,0,0,0,16.982,6.186,18.149,18.149,0,0,0,4.621,1.478l-.064.335c7.521,2.883,15.548,3.826,23.642,4.122q-.706.352-1.41.7a1.3,1.3,0,0,0-.19.111l-.054-.072c-16.97,12.862-48.006,12.924-68.976,6.034-16.132-5.3-30.34-15.5-42.166-27.688-11.71-12.066-21.23-26.069-30.053-40.386l-.253-.408c-.006.025-.01.05-.015.074q-1.162-1.454-2.324-2.9a175.093,175.093,0,0,0,24.752-7.409l.157-.389,3.576,1.433a67.461,67.461,0,0,0,10.183,3.458A37.691,37.691,0,0,0,8979.6,2179.272Z" transform="translate(-8934.221 -2173.522)"/></g><g transform="translate(8714.836 1091.849)"><path class="e" d="M8927.994,1757.709a9.059,9.059,0,0,1,.678,8.7c-1.281,2.758-4.916,5.172-7.883,5.849a7.983,7.983,0,0,1-9.676-8.954A17.817,17.817,0,0,1,8927.994,1757.709Z" transform="translate(-8911.031 -1757.304)"/></g><g transform="translate(8751.134 1081.789)"><path class="e" d="M9100.828,1708.877a33.823,33.823,0,0,0,3.887-.455l.015.074a27.027,27.027,0,0,1,3.408.716l-.1.389c.245,1.671-1.023,3.215-2.472,4.089s-3.119,1.325-4.538,2.245-2.593,2.573-2.186,4.213a5.217,5.217,0,0,0,2.521,2.813,38.833,38.833,0,0,0,24.108,6.026,9.617,9.617,0,0,0,.693-6.065l.115-.158a9.988,9.988,0,0,0,6.276,2.772,9.01,9.01,0,0,0,6.879-3.141,3.544,3.544,0,0,1,.143.455l-.2.045c-.912,3.565,1.569,7.133,4.434,9.442s6.295,4.017,8.52,6.948l.017.2a17.576,17.576,0,0,1-6.521-.284c-3.557-1.027-7.4.622-10.212,3.034a55.988,55.988,0,0,0-7.425,8.248,11.675,11.675,0,0,1-1.9,1.916l-.129-.158c.472-4.674-4.494-8.625-9.181-8.292-2.275.161-4.457,1.074-6.738,1.159a10.621,10.621,0,0,1-8.359-3.931,13.839,13.839,0,0,1-2.98-8.886,16.181,16.181,0,0,0-.1-3.569,5.4,5.4,0,0,0-9.369-2.391l.066.132a6.948,6.948,0,0,1-1.921,1.14l-.161-.146c5.115-5.575,9.753-12.107,12.474-18.534C9100.2,1708.91,9100.514,1708.9,9100.828,1708.877Z" transform="translate(-9087.412 -1708.422)"/></g><g transform="translate(8684.504 1111.782)"><path class="e" d="M8764.021,1878.749a20.784,20.784,0,0,1,1.1-11.673l.021.01a9.507,9.507,0,0,0,2.423-2.51c.115-.171.225-.348.325-.527q1.471,3.214,2.729,6.522a6.727,6.727,0,0,0,5.856.455c2.6-1,4.541-3.177,6.334-5.31s3.636-4.365,6.158-5.546l0-.01a41.225,41.225,0,0,0,23.871-3.108,33.88,33.88,0,0,0,5.039-2.889c-1.932,6.017-8.024,9.531-12.983,13.5a5.374,5.374,0,0,0-2.111,2.686,3.95,3.95,0,0,0,.536,2.824c1.778,3.143,5.793,4.2,9.4,4.388s7.386-.177,10.682,1.3c3.373,1.513,5.674,4.707,8.771,6.726a14.679,14.679,0,0,0,12.99,1.387l.027.072a2.565,2.565,0,0,0,1.681-.583l.006-.014c.573.288,1.179.555,1.812.8a42.153,42.153,0,0,0,9.028,2.194,105.509,105.509,0,0,0,14.554,1.019l0,.258c-1.771,2.83-6.021,4.511-9.281,5.213-4.071.876-8.292.759-12.409,1.4s-8.363,2.22-10.8,5.6a10.426,10.426,0,0,0-1.5,8.965c1.462,4.848,6.467,8.718,5.859,13.741a37.691,37.691,0,0,1-6.711-.86,67.323,67.323,0,0,1-10.183-3.458l-3.577-1.432-24.573-9.833c-9.071-3.63-18.361-7.395-25.554-14.009A32.166,32.166,0,0,1,8764.021,1878.749Z" transform="translate(-8763.652 -1854.162)"/></g><g transform="translate(8664.717 989.736)"><path class="e" d="M8727.382,1378.2c2.966-.677,6.6-3.091,7.883-5.849a9.072,9.072,0,0,0-.678-8.7,17.817,17.817,0,0,0-16.882,5.6,7.983,7.983,0,0,0,9.677,8.954Zm-.554-56.842,0,.012a6.157,6.157,0,0,0-1.956,1.1,2.1,2.1,0,0,0-.676,2.035c.354,1.173,1.851,1.476,3.072,1.531,1.238.056,2.482.066,3.721.033,1.535-.041,3.391-.375,3.935-1.809a2.8,2.8,0,0,0-1.685-3.276,6.821,6.821,0,0,0-3.211-.438Zm5.574-16.011.106-.091a12.247,12.247,0,0,0,8.3,3.865,5.561,5.561,0,0,0,4.036-1.126c1.432-1.3,1.563-3.484,1.447-5.415a70.744,70.744,0,0,0-1.561-10.109c-.923-4.427-1.938-8.9-4.068-12.892s-5.536-7.5-9.87-8.785a4.851,4.851,0,0,0-4.172.286,5.128,5.128,0,0,0-1.584,2.295,20.828,20.828,0,0,0-1.6,6.923A37.579,37.579,0,0,0,8732.4,1305.342Zm-30.986,22.329q-1.216.664-2.433,1.325l-.044-.078a5.868,5.868,0,0,0-3.848,5.548,1.637,1.637,0,0,0,.3,1.035c.479.564,1.381.385,2.07.113a16.821,16.821,0,0,0,7.125-5.373,2.246,2.246,0,0,0,.536-1.076,1.655,1.655,0,0,0-1.369-1.618,4.825,4.825,0,0,0-2.285.227Zm-18.687-33.862-.09.043a11.673,11.673,0,0,0-3.024-3.373c-1.639-1.323-3.743-2.5-5.762-1.9-2.217.656-3.31,3.13-3.823,5.384a33.158,33.158,0,0,0,.361,14.992,64.767,64.767,0,0,0,5.459,14.073,13.844,13.844,0,0,0,3.184,4.544,4.357,4.357,0,0,0,3.683,1.12c1.691-.405,2.685-2.118,3.427-3.692q1.5-3.18,2.7-6.493C8690.157,1310.041,8686.459,1301.611,8682.729,1293.809Zm36.813,6.273a252.259,252.259,0,0,1,1.854-33,8.135,8.135,0,0,1,1.52-4.515c2.434-2.762,7.052-1.126,9.849,1.27,6.546,5.608,9.95,13.986,12.7,22.156,3.18,9.422,5.84,19.321,4.882,29.2l.05,0q.149,2.371.3,4.74l-.322.243a53.5,53.5,0,0,1,4.774,7.394,52.826,52.826,0,0,1,4.513,11.471,9.053,9.053,0,0,0-2.827-1.132,7.572,7.572,0,0,0-6.138-1.862,4.514,4.514,0,0,0-3.558,2.352,6.3,6.3,0,0,0-.349,2.624l.042,5.087c.018,2.085-.123,4.5-1.806,5.734l.184.021a6.8,6.8,0,0,0-.991,3.182,44.212,44.212,0,0,1,2.667,11.2c.281,4.229-.675,8.712-3.488,11.879a18.667,18.667,0,0,1-5.488,3.984c-6.741,3.5-14.884,5.059-21.978,2.354-6.752-2.573-11.938-9.734-10.981-16.806a9.654,9.654,0,0,1-1.723-3.019l.07-.162c-1.851-1.4-2.809-3.721-3.547-5.946-.786-2.373-1.508-4.9-3.273-6.664a3.765,3.765,0,0,0-2.981-1.284,4.874,4.874,0,0,0-2.014.92q-2.389,1.584-4.681,3.315a.49.49,0,0,0-.247.342.2.2,0,0,0,.007.041,5.728,5.728,0,0,0-1.291,2.62,50.753,50.753,0,0,1-.964-13.772q.11-2.309.318-4.612a6.616,6.616,0,0,1-1.066-1.78c-9.184-14.571-17.764-30.942-15.769-48.015a12.968,12.968,0,0,1,2.229-6.577c1.446-1.846,4.054-2.964,6.215-2.056a8.39,8.39,0,0,1,2.852,2.389q10.163,11.49,20.323,22.984l.271.2a24.761,24.761,0,0,0,6.838-2.6l-.072-.2a37.233,37.233,0,0,1,8.778-2.105l.02.056Q8717.4,1300.911,8719.541,1300.082Zm15.091,34.691a2.348,2.348,0,1,0-2.348,2.35A2.349,2.349,0,0,0,8734.632,1334.773Zm-27.209,7.047a2.349,2.349,0,1,0-2.349,2.35A2.348,2.348,0,0,0,8707.423,1341.82Z" transform="translate(-8667.505 -1261.127)"/></g><g transform="translate(8802.907 1077.924)"><path class="a" d="M9361.674,1721.232l-.125.053a8.456,8.456,0,0,1-2.2,3.91,6.32,6.32,0,0,0-3.846-.823c-1.145,0-2.262.1-3.363.194l-.018-.2c-2.225-2.93-5.656-4.641-8.52-6.948s-5.346-5.878-4.434-9.442l.2-.045a3.385,3.385,0,0,0-.143-.455c.145-.156.287-.319.426-.488,1.9-2.284,3.033-5.089,4.5-7.674,1.936-3.424,4.623-6.6,8.236-8.162a19.011,19.011,0,0,1,4.939-1.26c5.383-.747,11.605-.01,14.973,4.254,10.643,13.471,21.037,27.211,25.957,43.658-.955,3.256,1.322,6.925-.1,10.006a5.259,5.259,0,0,1-1.98,2.231,7.474,7.474,0,0,1-1.676.792,12.873,12.873,0,0,1-5.148.5,25.772,25.772,0,0,1-16.174-7.855C9367.443,1737.428,9364.99,1728.978,9361.674,1721.232Z" transform="translate(-9338.98 -1689.639)"/></g><g transform="translate(8820.843 1109.516)"><path class="d" d="M9462.958,1888.638q.193,1.173.389,2.35a36.516,36.516,0,0,0-21.62,10.008l.105.109a4.558,4.558,0,0,1-4.937,2.77q-4.475-7.063-8.949-14.122c-.576-.91-1.17-1.834-1.814-2.712a12.443,12.443,0,0,1,2.775-1.465l.012.025a27.39,27.39,0,0,0,4.457-2.811,8.921,8.921,0,0,0,3.161-3.8c.568-1.57.741-3.947-.65-4.873.228-1.778.435-3.672-.341-5.287-.256-.535-.614-1.021-.817-1.576-.874-2.375,1.258-5.114.3-7.46-.52-1.282-1.81-2.039-2.905-2.883a4.619,4.619,0,0,1-1.83-3.093c-.456-2.241.187-4.985-1.509-6.52-.07-.064-.145-.124-.22-.179a8.458,8.458,0,0,0,2.2-3.91l.125-.053c3.314,7.746,5.768,16.2,11.506,22.251a25.77,25.77,0,0,0,16.173,7.855,12.873,12.873,0,0,0,5.148-.5l.07.214c-.725,5.359-1.567,10.57-.785,15.659Z" transform="translate(-9426.131 -1843.152)"/></g><g transform="translate(8752.367 1040.065)"><path class="d" d="M9097.916,1533.276a52.824,52.824,0,0,0-4.514-11.471q3.965-1.812,7.926-3.628l.017-.039-1.071-.471a59.4,59.4,0,0,0,12.042-7.6l.255.311a5.33,5.33,0,0,1,4.361-.967l-.036.408a22.7,22.7,0,0,0,2.638,4.186c2.422,3.122,5.439,5.859,7.787,9.065,4.405,6.016,6.312,13.447,8.127,20.677,8.732-14.213,21.411-25.5,34.381-36.027.271-.1.538-.21.791-.321l3.893-1.718.06.134a40.531,40.531,0,0,1,3.425,3.743l3.609.218,16.056,3.776c5.824,1.371,11.811,2.813,16.686,6.283,5.051,3.6,8.436,9.035,11.5,14.425a275.431,275.431,0,0,1,27.958,70.231c-1.578,2.694-4.735,4.021-7.573,5.322-.035.016-.069.033-.107.047-9.468,4.309-22.973,6.4-34.06,5.272a46.15,46.15,0,0,1-5.094-.786,97.64,97.64,0,0,0-5.743-10.267l-.086-.136a5.267,5.267,0,0,0,1.979-2.231c1.423-3.081-.855-6.75.1-10.006-4.919-16.448-15.314-30.187-25.955-43.658-3.369-4.264-9.591-5-14.975-4.254a19,19,0,0,0-4.939,1.259c-3.613,1.56-6.3,4.738-8.235,8.162-1.465,2.585-2.6,5.39-4.5,7.674-.141.169-.282.331-.428.488a9.011,9.011,0,0,1-6.878,3.141,9.985,9.985,0,0,1-6.276-2.772c-.118-.105-.233-.21-.348-.315-1.827-1.7-3.294-3.741-5.006-5.555a27.955,27.955,0,0,0-12.787-7.682,27.21,27.21,0,0,0-3.41-.716l-.014-.074a33.8,33.8,0,0,1-3.889.455c-.454-5.47-3.45-10.453-7.555-14.138C9097.994,1533.572,9097.955,1533.424,9097.916,1533.276Z" transform="translate(-9093.402 -1505.682)"/></g><g transform="translate(8710.783 1188.208)"><path class="d" d="M9050.224,2289.054c.44,7.232.64,14.526,1.107,21.751q-1.541.615-3.086,1.218c-30.072,11.753-62.46,21.021-94.086,14.995-10.326-1.967-20.271-5.523-30.171-9.068-10.419-3.729-20.346-6.439-30.706-10.049-.644-.225-1.293-.453-1.941-.686a483.132,483.132,0,0,1,9.007-73.248l.355.072q.892-4.26,1.786-8.518.132.167.269.334c8.822,14.317,18.343,28.32,30.053,40.385,11.824,12.186,26.034,22.389,42.167,27.688,20.967,6.89,52,6.829,68.975-6.034l.054.072a1.272,1.272,0,0,1,.19-.111c.467-.233.939-.466,1.408-.7,1.7.064,3.407.1,5.11.115A6.065,6.065,0,0,1,9050.224,2289.054Z" transform="translate(-8891.341 -2225.522)"/></g><g transform="translate(8723.552 1097.835)"><path class="a" d="M9008.178,1818.373l.026.177-8.153,1.229c-2.307,3.11-1.279,8.189-.664,13.6l-.02.045q-.946-.37-1.811-.8l-.007.014a2.559,2.559,0,0,1-1.678.583l-.03-.072a14.678,14.678,0,0,1-12.99-1.387c-3.1-2.019-5.4-5.213-8.771-6.726-3.3-1.479-7.073-1.119-10.682-1.3s-7.621-1.245-9.4-4.388a3.949,3.949,0,0,1-.534-2.823,5.365,5.365,0,0,1,2.11-2.686c4.958-3.966,11.052-7.479,12.983-13.5a73.916,73.916,0,0,0,12.407-10.961l.16.146a6.965,6.965,0,0,0,1.923-1.14l-.068-.132a5.4,5.4,0,0,1,9.37,2.391,16.24,16.24,0,0,1,.105,3.569,13.816,13.816,0,0,0,2.979,8.886,10.617,10.617,0,0,0,8.357,3.931c2.282-.084,4.463-1,6.741-1.159,4.685-.333,9.651,3.618,9.18,8.292l.127.158C9016.323,1817.151,9011.344,1818.145,9008.178,1818.373Z" transform="translate(-8953.381 -1786.392)"/></g><g transform="translate(8762.482 1082.579)"><path class="a" d="M9170.073,1725.814l-.115.158a9.623,9.623,0,0,1-.694,6.065,38.83,38.83,0,0,1-24.107-6.026,5.218,5.218,0,0,1-2.521-2.813c-.406-1.64.77-3.293,2.187-4.213s3.093-1.371,4.538-2.245,2.716-2.418,2.471-4.09l.1-.389a27.957,27.957,0,0,1,12.788,7.683c1.713,1.813,3.178,3.859,5,5.555Z" transform="translate(-9142.555 -1712.262)"/></g><g transform="translate(8682.489 1064.583)"><path class="a" d="M8760.109,1681.9c-.1.179-.209.356-.324.527a20.156,20.156,0,0,1-2.049-7.878q-.048-.75-.057-1.5a58.124,58.124,0,0,1,1.345-11.263l.219.041a10.851,10.851,0,0,0,.365-3.97,6.2,6.2,0,0,1-.424-.821l-.24.1a24.063,24.063,0,0,1-5.082-10.469,5.716,5.716,0,0,1,1.291-2.62.124.124,0,0,1-.007-.041c0-.146.131-.255.247-.341q2.288-1.729,4.68-3.316a4.872,4.872,0,0,1,2.013-.92,3.761,3.761,0,0,1,2.981,1.284c1.767,1.768,2.488,4.291,3.275,6.664.736,2.224,1.694,4.55,3.546,5.946l-.07.163a9.625,9.625,0,0,0,1.723,3.019c-.957,7.071,4.229,14.233,10.981,16.806,7.094,2.7,15.236,1.144,21.977-2.354a18.681,18.681,0,0,0,5.489-3.984c2.813-3.167,3.769-7.649,3.488-11.879a44.253,44.253,0,0,0-2.667-11.2,6.821,6.821,0,0,1,.99-3.182l-.184-.021c1.684-1.231,1.823-3.649,1.808-5.734l-.044-5.087a6.347,6.347,0,0,1,.35-2.624,4.514,4.514,0,0,1,3.557-2.352,7.575,7.575,0,0,1,6.139,1.863,9.062,9.062,0,0,1,2.828,1.132c.038.148.078.3.114.447,4.1,3.686,7.1,8.668,7.555,14.139-.314.02-.627.033-.941.043-2.722,6.427-7.36,12.959-12.473,18.534a73.95,73.95,0,0,1-12.409,10.961,33.834,33.834,0,0,1-5.038,2.889,41.223,41.223,0,0,1-23.871,3.108v.01c-2.523,1.181-4.365,3.414-6.158,5.546s-3.733,4.309-6.334,5.31a6.727,6.727,0,0,1-5.856-.455Q8761.582,1685.119,8760.109,1681.9Z" transform="translate(-8753.862 -1624.818)"/></g><g transform="translate(8720.64 999.071)"><path class="c" d="M8962.1,1338.6c.117,1.93-.014,4.114-1.446,5.415a5.56,5.56,0,0,1-4.036,1.126,12.233,12.233,0,0,1-8.294-3.865l-.108.09a37.574,37.574,0,0,1-8.967-25.048,20.828,20.828,0,0,1,1.6-6.923,5.127,5.127,0,0,1,1.584-2.295,4.851,4.851,0,0,1,4.172-.286c4.335,1.29,7.74,4.8,9.87,8.785s3.146,8.465,4.068,12.892A70.607,70.607,0,0,1,8962.1,1338.6Z" transform="translate(-8939.238 -1306.49)"/></g><g transform="translate(8721.347 1049.134)"><path class="a" d="M8951.782,1550.207a2.8,2.8,0,0,1,1.686,3.276c-.547,1.435-2.4,1.768-3.936,1.809-1.239.033-2.482.023-3.722-.033-1.223-.055-2.718-.358-3.072-1.531a2.094,2.094,0,0,1,.679-2.035,6.156,6.156,0,0,1,1.954-1.1l0-.012,3.2-.809A6.823,6.823,0,0,1,8951.782,1550.207Z" transform="translate(-8942.673 -1549.75)"/></g><g transform="translate(8692.303 1056.091)"><path class="a" d="M8805.437,1585.068q1.216-.661,2.433-1.325l.055.1a4.825,4.825,0,0,1,2.285-.226,1.649,1.649,0,0,1,1.367,1.618,2.227,2.227,0,0,1-.534,1.076,16.8,16.8,0,0,1-7.124,5.373c-.69.272-1.592.451-2.07-.113a1.638,1.638,0,0,1-.3-1.035,5.867,5.867,0,0,1,3.848-5.548Z" transform="translate(-8801.543 -1583.553)"/></g><g transform="translate(8676.029 1114.318)"><path class="d" d="M8732.41,1876.861a20.784,20.784,0,0,0-1.1,11.673q-1.126,2.791-2.256,5.583l-.112-.039a123.28,123.28,0,0,0-4.12,14.706l-.34-.072c-3.585-6.894-1.752-15.272.6-22.679a196.221,196.221,0,0,1,7.36-19.524l.36-.027a20.156,20.156,0,0,0,2.049,7.878,9.538,9.538,0,0,1-2.423,2.511Z" transform="translate(-8722.471 -1866.482)"/></g><g transform="translate(8666.546 1017.03)"><path class="c" d="M8689.784,1399.139c3.728,7.8,7.426,16.232,6.106,24.7q-1.192,3.309-2.693,6.493c-.743,1.574-1.737,3.286-3.429,3.692a4.356,4.356,0,0,1-3.682-1.12,13.846,13.846,0,0,1-3.185-4.544,64.724,64.724,0,0,1-5.459-14.072,33.145,33.145,0,0,1-.36-14.993c.513-2.254,1.608-4.727,3.824-5.384,2.019-.6,4.121.574,5.76,1.9a11.711,11.711,0,0,1,3.026,3.373Z" transform="translate(-8676.386 -1393.751)"/></g><g transform="translate(8815.183 1148.683)"><path class="e" d="M9419.618,2054.457s-6.174-17.6-12.348-20.99l-8.644,3.4,13.274,18.521S9417.457,2055.691,9419.618,2054.457Z" transform="translate(-9398.627 -2033.466)"/></g><g transform="translate(8768.787 1112.256)"><path class="b" d="M9227.684,1857.687c.074.056.148.115.219.179,1.694,1.535,1.053,4.279,1.508,6.52a4.626,4.626,0,0,0,1.832,3.093c1.1.844,2.385,1.6,2.906,2.883.952,2.346-1.18,5.085-.3,7.46.2.556.561,1.042.815,1.577.775,1.615.568,3.509.343,5.287,1.39.926,1.218,3.3.65,4.874a8.948,8.948,0,0,1-3.162,3.8,27.526,27.526,0,0,1-4.457,2.811l-.013-.025a12.436,12.436,0,0,0-2.774,1.465,12.761,12.761,0,0,0-4.771-4.3,16.594,16.594,0,0,0-6.97-1.085c-5.319-.031-10.659.121-15.982.058a105.533,105.533,0,0,1-14.553-1.019,42.208,42.208,0,0,1-9.029-2.194l.018-.046c-.614-5.412-1.642-10.491.666-13.6l8.154-1.229-.028-.177c3.166-.228,8.146-1.222,11.662-4.052a11.82,11.82,0,0,0,1.9-1.916,55.877,55.877,0,0,1,7.423-8.248c2.81-2.412,6.656-4.061,10.213-3.034a17.58,17.58,0,0,0,6.521.284c1.1-.093,2.22-.189,3.362-.193A6.328,6.328,0,0,1,9227.684,1857.687Z" transform="translate(-9173.192 -1856.462)"/></g><g transform="translate(8831.605 1157.122)"><path class="a" d="M9489.244,2098.915a8.859,8.859,0,0,1-3.249.611l-7.564-11.934a4.558,4.558,0,0,0,4.938-2.771l-.107-.109a37.359,37.359,0,0,1,38.116-8.1,32.868,32.868,0,0,1,4.484,2.033c7.745,4.244,13.63,11.163,19.078,18.113,1.106,1.414,2.224,2.85,3.392,4.239,2.869,3.41,6.039,6.53,10.084,8.274a19.451,19.451,0,0,0,5.938,1.479v0c4.811.459,9.855-.615,14.5-2.181,7.42-2.5,14.345-6.154,21.183-10,4.814-2.712,9.591-5.524,14.466-8.1a25.121,25.121,0,0,1,8.192-3.1c2.91-.4,6.117.286,8.118,2.435,2.081,2.231,2.484,5.643,1.752,8.6a25.269,25.269,0,0,1-4.177,8.09c-5.779,8.341-16.548,10.771-25.887,14.748l-16.969,7.221q-4.526,1.926-9.06,3.854-2.429,1.032-4.852,2.064a29.429,29.429,0,0,1-8.327,2.605,12.74,12.74,0,0,1-2.08.048,9.185,9.185,0,0,1-6.027-2.488l.1-.28a8.293,8.293,0,0,0-4.337-.535l-.012-.031a12.317,12.317,0,0,0-4.914,3.579l-.054-.229c-1.533-2.437-.517-5.674,1-8.123s3.531-4.719,4.075-7.547c.568-2.962-.617-6-2.253-8.537s-3.73-4.754-5.3-7.328c-1.982-3.248-3.074-6.964-4.982-10.255a23.623,23.623,0,0,0-33.086-8.107c-5.663,3.589-9.828,9.586-16.165,11.772Z" transform="translate(-9478.431 -2074.474)"/></g><g transform="translate(8758.702 1148.019)"><path class="a" d="M9155.712,2062.233c-8.467,1.535-16.895,3.6-25.237,3.246.607-5.023-4.4-8.893-5.86-13.741a10.423,10.423,0,0,1,1.5-8.964c2.434-3.379,6.682-4.962,10.8-5.6s8.337-.523,12.408-1.4c3.261-.7,7.513-2.383,9.281-5.213l0-.257c5.322.064,10.663-.089,15.982-.058a16.594,16.594,0,0,1,6.968,1.085,12.772,12.772,0,0,1,4.773,4.3c.644.879,1.236,1.8,1.813,2.712q4.477,7.06,8.951,14.122l7.563,11.934q6.362,10.039,12.728,20.08c2.91,4.589,6.073,10.638,5.182,15.913a9.689,9.689,0,0,1-.609,2.125c-7.073,5.238-17.712,5.771-24.514.187-3.771-3.1-6.06-7.6-8.244-11.963-.065-.134-.134-.266-.2-.4q-4.51-9.026-9.023-18.052c-2.452-4.908-3.846-11.56-9.333-11.62A78.947,78.947,0,0,0,9155.712,2062.233Z" transform="translate(-9124.19 -2030.242)"/></g><g transform="translate(8766.874 973.615)"><path class="f" d="M9195.25,1237.831a14.848,14.848,0,0,1-9.347-3.043,54.748,54.748,0,0,1-19.193-28.8c-1.987-7.344-2.406-15.014-2.813-22.432a.72.72,0,1,1,1.438-.079c.4,7.344.819,14.937,2.767,22.135a53.294,53.294,0,0,0,18.686,28.04,14.056,14.056,0,0,0,10.358,2.645,27.143,27.143,0,0,0,16.619-8.552,38.526,38.526,0,0,0,8.911-16.83.72.72,0,1,1,1.395.361,39.957,39.957,0,0,1-9.258,17.457,28.6,28.6,0,0,1-17.523,9C9196.594,1237.8,9195.913,1237.831,9195.25,1237.831Z" transform="translate(-9163.896 -1182.793)"/></g><g transform="translate(8828.019 977.624)"><path class="f" d="M9461.726,1225.229a.72.72,0,0,1-.25-1.4,22.714,22.714,0,0,0,9.207-6.365,12.814,12.814,0,0,0,3.31-6.511,6.757,6.757,0,0,0-2.295-6.325,4.529,4.529,0,0,0-6.034.489.72.72,0,1,1-1.133-.889,5.95,5.95,0,0,1,8.033-.751,8.21,8.21,0,0,1,2.854,7.676,14.186,14.186,0,0,1-3.65,7.258,24.139,24.139,0,0,1-9.793,6.769A.7.7,0,0,1,9461.726,1225.229Z" transform="translate(-9461.005 -1202.272)"/></g><g transform="translate(8762.544 979.117)"><path class="f" d="M9151.5,1229.306a.717.717,0,0,1-.315-.073,15.2,15.2,0,0,1-8.257-11.8,8.692,8.692,0,0,1,.8-5.114,5.114,5.114,0,0,1,4.555-2.788.72.72,0,0,1-.075,1.439,3.648,3.648,0,0,0-3.212,2.036,7.287,7.287,0,0,0-.636,4.275,13.721,13.721,0,0,0,7.457,10.655.721.721,0,0,1-.317,1.368Z" transform="translate(-9142.854 -1209.529)"/></g><g transform="translate(8774.673 975.075)"><path class="f" d="M9202.51,1194.5a.72.72,0,0,1-.535-1.2,10.807,10.807,0,0,1,8.07-3.415h.025a10.8,10.8,0,0,1,8.057,3.38.72.72,0,1,1-1.066.966,9.368,9.368,0,0,0-6.99-2.906h-.023a9.365,9.365,0,0,0-7,2.936A.72.72,0,0,1,9202.51,1194.5Z" transform="translate(-9201.791 -1189.888)"/></g><g transform="translate(8805.349 975.314)"><path class="f" d="M9366.744,1195.448a.716.716,0,0,1-.5-.2,10.679,10.679,0,0,0-14.187-.149.72.72,0,1,1-.981-1.054,12.172,12.172,0,0,1,16.172.169.72.72,0,0,1-.5,1.237Z" transform="translate(-9350.845 -1191.051)"/></g><g transform="translate(8781.183 977.659)"><path class="f" d="M9236.781,1209.158a3.357,3.357,0,1,1,3.355-3.357A3.362,3.362,0,0,1,9236.781,1209.158Zm0-5.273a1.916,1.916,0,1,0,1.915,1.916A1.919,1.919,0,0,0,9236.781,1203.885Z" transform="translate(-9233.423 -1202.444)"/></g><g transform="translate(8809.983 977.456)"><path class="f" d="M9376.727,1208.172a3.357,3.357,0,1,1,3.357-3.357A3.361,3.361,0,0,1,9376.727,1208.172Zm0-5.274a1.916,1.916,0,1,0,1.917,1.916A1.919,1.919,0,0,0,9376.727,1202.9Z" transform="translate(-9373.37 -1201.458)"/></g><g transform="translate(8791.442 971.639)"><path class="f" d="M9287.043,1181.263a.72.72,0,0,1-.721-.72,8.107,8.107,0,0,0-2.8-6.081.72.72,0,0,1,.938-1.094,9.568,9.568,0,0,1,3.3,7.175A.721.721,0,0,1,9287.043,1181.263Z" transform="translate(-9283.272 -1173.194)"/></g><g transform="translate(8793.606 993.455)"><path class="f" d="M9298.928,1283.851a.7.7,0,0,1-.1-.006,6.587,6.587,0,0,1-4.976-3.616.72.72,0,0,1,1.3-.619,5.114,5.114,0,0,0,3.862,2.807.72.72,0,0,1-.092,1.435Z" transform="translate(-9293.786 -1279.199)"/></g><g transform="translate(8784.227 1001.972)"><path class="f" d="M9262.27,1328.957c-8.752,0-11.264-2.891-13.948-7.276a.72.72,0,0,1,.792-1.074c8.762,2.242,17.4,2.247,28.89.016a.718.718,0,0,1,.841.858c-.491,2.292-2.4,3.917-3.922,4.876a15.033,15.033,0,0,1-6.032,2.179A60.06,60.06,0,0,1,9262.27,1328.957Zm-11.757-6.534a10.063,10.063,0,0,0,4.681,4.039c2.868,1.172,7.044,1.37,13.537.643,3.154-.353,6.966-2.338,8.3-4.831C9266.684,1324.17,9258.579,1324.221,9250.513,1322.423Z" transform="translate(-9248.215 -1320.584)"/></g><g transform="translate(8806.001 963.919)"><path class="f" d="M9369.105,1140.27a.722.722,0,0,1-.5-.2,11.2,11.2,0,0,0-13.471-1.286.72.72,0,1,1-.789-1.206,12.691,12.691,0,0,1,15.264,1.457.721.721,0,0,1-.5,1.237Z" transform="translate(-9354.018 -1135.678)"/></g><g transform="translate(8775.206 964.548)"><path class="f" d="M9205.1,1142.693a.72.72,0,0,1-.532-1.205,9.4,9.4,0,0,1,6.783-2.747,26.213,26.213,0,0,1,7.024,1.115.72.72,0,0,1-.354,1.4,25.265,25.265,0,0,0-6.64-1.071,7.96,7.96,0,0,0-5.748,2.276A.72.72,0,0,1,9205.1,1142.693Z" transform="translate(-9204.375 -1138.738)"/></g><g transform="translate(8792.13 934.217)"><path class="f" d="M9302.93,1018.64a.711.711,0,0,1-.254-.047,23.5,23.5,0,0,1-12.012-10.817,34.943,34.943,0,0,1-4.044-15.67.72.72,0,0,1,1.439-.057,33.572,33.572,0,0,0,3.864,15.03,22.064,22.064,0,0,0,11.261,10.167.721.721,0,0,1-.255,1.394Z" transform="translate(-9286.619 -991.357)"/></g><g transform="translate(8802.369 934.299)"><path class="f" d="M9352.938,1020.524a.72.72,0,0,1-.483-.188c-3.887-3.534-5.632-8.619-7.319-13.537l-.275-.8c-1.641-4.756-3.761-10.068-8.161-12.917a.72.72,0,0,1,.782-1.209c4.787,3.1,7.021,8.674,8.74,13.657l.276.8c1.63,4.746,3.313,9.653,6.927,12.939a.72.72,0,0,1-.486,1.253Z" transform="translate(-9336.371 -991.754)"/></g><g transform="translate(8815.504 941.117)"><path class="f" d="M9408.371,1046.647a.721.721,0,0,1-.719-.69,35.167,35.167,0,0,0-7.312-19.913.721.721,0,0,1,1.139-.884,36.613,36.613,0,0,1,7.613,20.736.721.721,0,0,1-.689.75Z" transform="translate(-9400.189 -1024.882)"/></g><g transform="translate(8823.71 965.5)"><path class="f" d="M9446.225,1157.89a.716.716,0,0,1-.478-.18,17.174,17.174,0,0,1-5.652-13.672.72.72,0,1,1,1.438.091,15.7,15.7,0,0,0,5.169,12.5.72.72,0,0,1-.477,1.26Z" transform="translate(-9440.063 -1143.363)"/></g><g transform="translate(8783.904 934.66)"><path class="f" d="M9248.793,1020.939a.721.721,0,0,1-.7-.536c-2.643-9.992-1.714-18.174,3.016-26.529a.72.72,0,0,1,1.254.71c-4.59,8.11-5.45,15.722-2.877,25.451a.72.72,0,0,1-.7.9Z" transform="translate(-9246.643 -993.508)"/></g><g transform="translate(8771.265 934.399)"><path class="f" d="M9185.947,1022.41a.721.721,0,0,1-.469-1.267c3.869-3.312,5.771-8.505,7.252-13.624q.211-.732.42-1.469c1.344-4.721,2.734-9.6,5.813-13.533a.721.721,0,0,1,1.135.888c-2.9,3.709-4.256,8.452-5.561,13.04q-.211.739-.422,1.475c-1.543,5.333-3.543,10.759-7.7,14.318A.721.721,0,0,1,9185.947,1022.41Z" transform="translate(-9185.227 -992.24)"/></g><g transform="translate(8767.721 945.218)"><path class="f" d="M9168.778,1070.589a.72.72,0,0,1-.719-.686,45.51,45.51,0,0,1,6.023-24.735.72.72,0,0,1,1.246.723,44.052,44.052,0,0,0-5.831,23.943.72.72,0,0,1-.685.754Z" transform="translate(-9168.01 -1044.809)"/></g><g transform="translate(8775.286 921.502)"><path class="f" d="M9210.211,934.423a13.822,13.822,0,0,1-4.98-.853.72.72,0,1,1,.514-1.346c2.5.954,5.559,1.007,9.354.161,1.337-.3,2.688-.68,4-1.049a54.792,54.792,0,0,1,5.648-1.38,27.907,27.907,0,0,1,16.887,2.454.72.72,0,1,1-.635,1.293,26.46,26.46,0,0,0-16.01-2.327,53.634,53.634,0,0,0-5.5,1.346c-1.328.375-2.7.762-4.075,1.069A24.011,24.011,0,0,1,9210.211,934.423Z" transform="translate(-9204.767 -929.57)"/></g><g transform="translate(8760.721 927.124)"><path class="f" d="M9135.3,970.357a3.921,3.921,0,0,1-.707-.064.72.72,0,1,1,.26-1.417c1.711.312,3.336-1.309,4.639-2.613a45.316,45.316,0,0,1,13.473-9.308.72.72,0,1,1,.592,1.313,43.9,43.9,0,0,0-13.045,9.013C9139.189,968.6,9137.432,970.357,9135.3,970.357Z" transform="translate(-9133.998 -956.891)"/></g><g transform="translate(8760.301 939.756)"><path class="f" d="M9136.811,1057.264a.724.724,0,0,1-.682-.483c-1.965-5.634-4-12.34-4.168-19.351-.178-7.367,1.863-14.076,5.744-18.89a.721.721,0,1,1,1.123.9c-3.668,4.55-5.6,10.925-5.428,17.951.166,6.812,2.16,13.382,4.092,18.91a.722.722,0,0,1-.445.917A.707.707,0,0,1,9136.811,1057.264Z" transform="translate(-9131.95 -1018.272)"/></g><g transform="translate(8813.535 919.411)"><path class="f" d="M9406.287,927.53a.717.717,0,0,1-.468-.172,8.051,8.051,0,0,0-9.711-.319.72.72,0,0,1-1.15-.556,6.572,6.572,0,0,0-3.9-5.689.721.721,0,1,1,.563-1.327,7.977,7.977,0,0,1,4.639,5.768,9.594,9.594,0,0,1,10.491,1.026.72.72,0,0,1-.468,1.268Z" transform="translate(-9390.623 -919.411)"/></g><g transform="translate(8823.576 927.675)"><path class="f" d="M9462,990.759a.72.72,0,0,1-.521-.223c-1.932-2.027-2.471-4.931-2.948-7.492l-.043-.224c-.891-4.771-2.229-10.25-5.39-14.715-3.275-4.625-8.229-7.336-12.922-7.077a.72.72,0,1,1-.078-1.438c5.19-.286,10.617,2.657,14.177,7.683,3.32,4.692,4.709,10.359,5.63,15.283l.041.225c.463,2.48.94,5.045,2.576,6.762a.72.72,0,0,1-.521,1.217Z" transform="translate(-9439.412 -959.569)"/></g><g transform="translate(8839.283 958.611)"><path class="f" d="M9516.456,1130.738a.721.721,0,0,1-.667-.994,34.352,34.352,0,0,0,2-19,.721.721,0,0,1,1.419-.259,35.838,35.838,0,0,1-2.083,19.81A.72.72,0,0,1,9516.456,1130.738Z" transform="translate(-9515.735 -1109.89)"/></g><g transform="translate(8780.664 1018.986)"><path class="f" d="M9231.623,1432.071a.72.72,0,0,1-.131-1.428c1.192-.224,1.663-1.917,1.85-3.3a74.7,74.7,0,0,0-.516-23.242.72.72,0,1,1,1.417-.255,76.08,76.08,0,0,1,.526,23.69c-.452,3.353-1.888,4.309-3.014,4.521A.686.686,0,0,1,9231.623,1432.071Z" transform="translate(-9230.904 -1403.255)"/></g><g transform="translate(8819.793 1013.767)"><path class="f" d="M9426.5,1407.608a.72.72,0,0,1-.58-.291,26.65,26.65,0,0,1-4.765-14.052,79.211,79.211,0,0,1,.7-14.727.72.72,0,1,1,1.432.158,78.039,78.039,0,0,0-.691,14.458,25.251,25.251,0,0,0,4.486,13.305.72.72,0,0,1-.578,1.149Z" transform="translate(-9421.028 -1377.895)"/></g><g transform="translate(8775.137 1040.268)"><path class="f" d="M9223.32,1545.254a.69.69,0,0,1-.108-.009.72.72,0,0,1-.589-.537c-1.7-6.767-3.623-14.438-8.009-20.426a58.252,58.252,0,0,0-4.119-4.833c-2.375-2.592-4.83-5.273-6.378-8.537a.72.72,0,0,1,1.3-.617c1.455,3.068,3.73,5.552,6.14,8.181a59.7,59.7,0,0,1,4.218,4.954c4.2,5.728,6.189,12.817,7.831,19.291,9.372-14.6,22.956-26.161,35.021-35.894a.721.721,0,0,1,.905,1.122c-12.364,9.974-26.331,21.877-35.6,36.96A.718.718,0,0,1,9223.32,1545.254Z" transform="translate(-9204.047 -1506.67)"/></g><g transform="translate(8758.52 1043.292)"><path class="f" d="M9153.34,1548.609a.717.717,0,0,1-.618-.35,23.191,23.191,0,0,0-8.5-8.276c-1.314-.739-2.732-1.365-4.1-1.97l-16.39-7.233a.72.72,0,0,1-.018-1.31,58.755,58.755,0,0,0,12.429-7.938.72.72,0,1,1,.922,1.107,60.181,60.181,0,0,1-11.335,7.448l14.974,6.608c1.4.619,2.854,1.259,4.228,2.032a24.608,24.608,0,0,1,9.032,8.792.72.72,0,0,1-.616,1.09Z" transform="translate(-9123.294 -1521.364)"/></g><g transform="translate(8803.103 1039.479)"><path class="f" d="M9340.65,1534.634a.721.721,0,0,1-.508-1.231,52.511,52.511,0,0,1,11.629-8.727,28.539,28.539,0,0,1,7.87-3.14,39.4,39.4,0,0,1,7.76-.617l12.881-.165a40.614,40.614,0,0,0-10.418-16.681.721.721,0,0,1,1-1.037,42.051,42.051,0,0,1,11.082,18.22.719.719,0,0,1-.681.926l-13.849.177a38.233,38.233,0,0,0-7.475.585,27.14,27.14,0,0,0-7.475,2.992,51.061,51.061,0,0,0-11.311,8.488A.716.716,0,0,1,9340.65,1534.634Z" transform="translate(-9339.93 -1502.834)"/></g><g transform="translate(8663.995 1008.582)"><path class="f" d="M8681.164,1411.725a.714.714,0,0,1-.607-.334c-9.646-15.219-18.293-31.7-16.262-49.089a13.784,13.784,0,0,1,2.377-6.937c1.533-1.961,4.451-3.373,7.061-2.277a8.981,8.981,0,0,1,3.111,2.576l20.326,22.983a.721.721,0,0,1-1.08.954l-20.326-22.983a7.9,7.9,0,0,0-2.59-2.2,4.827,4.827,0,0,0-5.367,1.836,12.493,12.493,0,0,0-2.08,6.217c-1.98,16.944,6.543,33.156,16.047,48.151a.721.721,0,0,1-.609,1.106Z" transform="translate(-8663.996 -1352.704)"/></g><g transform="translate(8699.376 1029.572)"><path class="f" d="M8836.638,1459.79a.72.72,0,0,1-.322-1.365,37.675,37.675,0,0,1,12.585-3.726.72.72,0,0,1,.162,1.431,36.244,36.244,0,0,0-12.105,3.584A.708.708,0,0,1,8836.638,1459.79Z" transform="translate(-8835.915 -1454.694)"/></g><g transform="translate(8716.021 989.018)"><path class="f" d="M8948.256,1313.924a.721.721,0,0,1-.717-.8c1.18-10.152-1.594-20.256-4.766-29.663-4.643-13.768-8.748-18.632-12.492-21.839-2.371-2.031-6.682-3.789-8.84-1.34a7.58,7.58,0,0,0-1.346,4.125,253.214,253.214,0,0,0-1.846,33.137.72.72,0,1,1-1.439.015,253.736,253.736,0,0,1,1.857-33.327,8.669,8.669,0,0,1,1.693-4.9c2.643-3,7.564-1.621,10.857,1.2,6.6,5.652,10.109,14.141,12.92,22.473,3.227,9.566,6.045,19.856,4.832,30.289A.72.72,0,0,1,8948.256,1313.924Z" transform="translate(-8916.797 -1257.641)"/></g><g transform="translate(8719.918 1007.863)"><path class="f" d="M8946.035,1376.7a.718.718,0,0,1-.535-.237,38.164,38.164,0,0,1-9.752-26.562.721.721,0,0,1,1.44.045,36.717,36.717,0,0,0,9.38,25.551.72.72,0,0,1-.533,1.2Z" transform="translate(-8935.729 -1349.208)"/></g><g transform="translate(8678.939 1021.11)"><path class="f" d="M8743.607,1440.963a.7.7,0,0,1-.133-.012.722.722,0,0,1-.576-.84c1.563-8.347-1.893-16.488-6.219-25.5a.72.72,0,0,1,1.3-.624c4.438,9.247,7.977,17.616,6.336,26.391A.719.719,0,0,1,8743.607,1440.963Z" transform="translate(-8736.608 -1413.575)"/></g><g transform="translate(8680.718 1057.51)"><path class="f" d="M8752.111,1630.57a.721.721,0,0,1-.546-.249c-4.784-5.519-6.76-13.383-6.22-24.746a97.828,97.828,0,0,1,1.751-14.547.72.72,0,1,1,1.412.283,96.511,96.511,0,0,0-1.724,14.332c-.522,10.971,1.344,18.513,5.87,23.735a.72.72,0,0,1-.074,1.016A.713.713,0,0,1,8752.111,1630.57Z" transform="translate(-8745.259 -1590.449)"/></g><g transform="translate(8739.978 1040.688)"><path class="f" d="M9057.818,1551.7a.719.719,0,0,1-.717-.69c-.219-5.182-2.832-10.276-7.363-14.343a.725.725,0,0,1-.215-.359,52.708,52.708,0,0,0-16.078-26.334.72.72,0,0,1,.953-1.081,54.155,54.155,0,0,1,16.467,26.849c4.721,4.3,7.441,9.7,7.674,15.207a.719.719,0,0,1-.689.75Z" transform="translate(-9033.203 -1508.708)"/></g><g transform="translate(8685.586 1100.654)"><path class="f" d="M8772.678,1823.939a.72.72,0,0,1-.6-.315,20.5,20.5,0,0,1-3.174-11.363,59.7,59.7,0,0,1,1.39-11.586.72.72,0,1,1,1.416.265,58.725,58.725,0,0,0-1.366,11.306,19.08,19.08,0,0,0,2.926,10.567.72.72,0,0,1-.595,1.125Z" transform="translate(-8768.905 -1800.087)"/></g><g transform="translate(8703.088 1093.646)"><path class="f" d="M8867.463,1791.484a37.93,37.93,0,0,1-13.039-2.255.72.72,0,1,1,.494-1.353,39.345,39.345,0,0,0,29.338-1.471,50.829,50.829,0,0,0,22.057-20.023.72.72,0,1,1,1.229.75,52.278,52.278,0,0,1-22.693,20.588A42.637,42.637,0,0,1,8867.463,1791.484Z" transform="translate(-8853.949 -1766.037)"/></g><g transform="translate(8714.112 1091.134)"><path class="f" d="M8916.27,1770.415a8.694,8.694,0,0,1-8.654-9.975.713.713,0,0,1,.164-.361,18.6,18.6,0,0,1,17.6-5.83.72.72,0,0,1,.428.3,9.787,9.787,0,0,1,.734,9.407c-1.465,3.148-5.408,5.568-8.375,6.247A8.5,8.5,0,0,1,8916.27,1770.415Zm-7.256-9.561a7.261,7.261,0,0,0,8.832,7.944c2.67-.611,6.164-2.817,7.389-5.45a8.332,8.332,0,0,0-.471-7.761A17.138,17.138,0,0,0,8909.014,1760.854Z" transform="translate(-8907.524 -1753.829)"/></g><g transform="translate(8701.334 1081.846)"><path class="f" d="M8865,1742.019a22.441,22.441,0,0,1-8.006-1.408,18.869,18.869,0,0,1-9.034-7.466,14.936,14.936,0,0,1-2.2-11.245.72.72,0,1,1,1.4.317c-1.5,6.655,3.138,14.3,10.343,17.048,6.2,2.362,14,1.517,21.388-2.32a17.591,17.591,0,0,0,5.282-3.824c2.438-2.743,3.611-6.774,3.308-11.352-.273-4.16-1.661-8.2-3-12.116a.72.72,0,1,1,1.362-.467c1.371,4,2.789,8.137,3.078,12.488.328,4.966-.975,9.371-3.667,12.4a19,19,0,0,1-5.7,4.146A31.939,31.939,0,0,1,8865,1742.019Z" transform="translate(-8845.434 -1708.697)"/></g><g transform="translate(8695.446 1064.457)"><path class="f" d="M8817.582,1634.052a.719.719,0,0,1-.715-.642,8.318,8.318,0,0,1,11-8.764.72.72,0,0,1-.473,1.361,6.88,6.88,0,0,0-9.1,7.246.718.718,0,0,1-.635.794A.729.729,0,0,1,8817.582,1634.052Z" transform="translate(-8816.821 -1624.205)"/></g><g transform="translate(8723.976 1058.323)"><path class="f" d="M8969.189,1600.569a.723.723,0,0,1-.686-.493,4.34,4.34,0,0,0-1.705-2.3,11.979,11.979,0,0,0-5.275-1.924,5.735,5.735,0,0,0-4.8,1.783.721.721,0,0,1-1.107-.922,7.091,7.091,0,0,1,6.018-2.3,13.335,13.335,0,0,1,5.912,2.125,5.737,5.737,0,0,1,2.33,3.075.721.721,0,0,1-.455.911A.729.729,0,0,1,8969.189,1600.569Z" transform="translate(-8955.445 -1594.397)"/></g><g transform="translate(8699.218 1067.36)"><path class="f" d="M8838.212,1644.45a3.069,3.069,0,1,1,3.07-3.069A3.073,3.073,0,0,1,8838.212,1644.45Zm0-4.7a1.629,1.629,0,1,0,1.629,1.629A1.631,1.631,0,0,0,8838.212,1639.752Z" transform="translate(-8835.144 -1638.311)"/></g><g transform="translate(8726.428 1060.313)"><path class="f" d="M8970.428,1610.207a3.069,3.069,0,1,1,3.069-3.069A3.074,3.074,0,0,1,8970.428,1610.207Zm0-4.7a1.629,1.629,0,1,0,1.627,1.629A1.63,1.63,0,0,0,8970.428,1605.509Z" transform="translate(-8967.357 -1604.068)"/></g><g transform="translate(8683.054 1078.465)"><path class="f" d="M8774.451,1707.89a.72.72,0,0,1-.389-.114c-2.275-1.461-3.374-4.031-4.224-6.591q-.1-.29-.192-.583c-.691-2.112-1.407-4.3-2.908-5.8a3.2,3.2,0,0,0-2.383-1.077,4.262,4.262,0,0,0-1.705.8c-1.462.971-2.915,2-4.325,3.05a.725.725,0,0,1-.051.423.829.829,0,0,1-.945.465.912.912,0,0,1-.723-.888,1.181,1.181,0,0,1,.531-.91c1.533-1.156,3.119-2.28,4.718-3.34a5.456,5.456,0,0,1,2.321-1.033,4.513,4.513,0,0,1,3.581,1.489c1.743,1.747,2.514,4.1,3.258,6.369q.1.29.191.579c.764,2.308,1.734,4.613,3.633,5.832a.72.72,0,0,1-.389,1.326Z" transform="translate(-8756.606 -1692.27)"/></g><g transform="translate(8741.523 1063.864)"><path class="f" d="M9041.436,1638.642a.72.72,0,0,1-.428-1.3c1.358-.992,1.529-3.061,1.513-5.147l-.043-5.086a6.922,6.922,0,0,1,.411-2.921,5.176,5.176,0,0,1,4.105-2.773,8.311,8.311,0,0,1,6.991,2.286.72.72,0,0,1-1.016,1.021,6.845,6.845,0,0,0-5.759-1.883,3.871,3.871,0,0,0-3,1.93,5.754,5.754,0,0,0-.29,2.328l.043,5.086c.021,2.47-.221,4.946-2.1,6.322A.724.724,0,0,1,9041.436,1638.642Z" transform="translate(-9040.714 -1621.323)"/></g><g transform="translate(8691.582 1055.372)"><path class="f" d="M8799.987,1589.887a1.843,1.843,0,0,1-1.469-.625,2.331,2.331,0,0,1-.473-1.481,6.574,6.574,0,0,1,4.333-6.25.72.72,0,1,1,.468,1.362,5.169,5.169,0,0,0-3.36,4.85,1.024,1.024,0,0,0,.13.586c.157.186.651.151,1.257-.089a16,16,0,0,0,6.819-5.142,1.687,1.687,0,0,0,.39-.718c.04-.364-.4-.741-.814-.837a4.308,4.308,0,0,0-1.937.221.72.72,0,1,1-.372-1.392,5.463,5.463,0,0,1,2.63-.233,2.359,2.359,0,0,1,1.926,2.4,2.911,2.911,0,0,1-.679,1.439,17.465,17.465,0,0,1-7.435,5.6A3.872,3.872,0,0,1,8799.987,1589.887Z" transform="translate(-8798.044 -1580.057)"/></g><g transform="translate(8720.629 1048.413)"><path class="f" d="M8945.364,1553.248c-.786,0-1.576-.017-2.356-.052-2.605-.117-3.466-1.174-3.729-2.041a2.8,2.8,0,0,1,.872-2.766,6.757,6.757,0,0,1,2.175-1.248.721.721,0,0,1,.552,1.332,5.612,5.612,0,0,0-1.735.961,1.408,1.408,0,0,0-.484,1.3c.242.8,1.618.983,2.416,1.019,1.216.054,2.449.066,3.671.032,1.274-.035,2.881-.3,3.278-1.345a2.115,2.115,0,0,0-1.312-2.365,7.639,7.639,0,0,0-3.641-.327.721.721,0,1,1-.1-1.438,8.845,8.845,0,0,1,4.342.457c1.492.688,2.7,2.483,2.058,4.185-.548,1.441-2.092,2.206-4.589,2.273C8946.311,1553.242,8945.837,1553.248,8945.364,1553.248Z" transform="translate(-8939.184 -1546.246)"/></g><g transform="translate(8706.384 1071.474)"><path class="f" d="M8870.691,1672.484a.738.738,0,0,1-.12-.01.721.721,0,0,1-.593-.83,24.4,24.4,0,0,1,6.79-13.134.721.721,0,0,1,1.018,1.021,22.933,22.933,0,0,0-6.385,12.352A.722.722,0,0,1,8870.691,1672.484Z" transform="translate(-8869.969 -1658.301)"/></g><g transform="translate(8721.579 1069.851)"><path class="f" d="M8954.421,1657.539a.712.712,0,0,1-.408-.128,67.606,67.606,0,0,0-9.8-5.626.721.721,0,0,1,.61-1.305,69.108,69.108,0,0,1,10.007,5.747.72.72,0,0,1-.411,1.312Z" transform="translate(-8943.8 -1650.412)"/></g><g transform="translate(8726.026 1105.928)"><path class="f" d="M8967.507,1831.3a.724.724,0,0,1-.652-.412,18.692,18.692,0,0,1-1.432-4.312.719.719,0,1,1,1.41-.285,17.375,17.375,0,0,0,1.324,3.979.721.721,0,0,1-.65,1.029Z" transform="translate(-8965.408 -1825.717)"/></g><g transform="translate(8683.781 1122.563)"><path class="f" d="M8920.086,2009.162a19.21,19.21,0,0,1-12.23-4.144c-3.957-3.247-6.334-8-8.432-12.2l-9.225-18.451c-.518-1.037-.992-2.157-1.451-3.241-1.732-4.083-3.367-7.939-7.248-7.981-6.455-.073-13.047,1.2-19.416,2.428-9.07,1.75-18.451,3.56-27.609,1.506a68.019,68.019,0,0,1-10.293-3.491l-28.152-11.266c-4.24-1.7-9.047-3.621-13.539-5.912a54.185,54.185,0,0,1-12.232-8.234,33.2,33.2,0,0,1-8.832-14.02c-1.389-4.375-2.355-10.915.918-17.224a.72.72,0,0,1,1.279.663c-3.045,5.871-2.129,12.01-.826,16.126a31.726,31.726,0,0,0,8.438,13.395c7.186,6.608,16.41,10.3,25.332,13.869l28.15,11.266a66.981,66.981,0,0,0,10.074,3.423c8.863,1.987,17.684.286,27.021-1.515,6.439-1.242,13.09-2.532,19.705-2.454,4.822.053,6.721,4.531,8.557,8.86.451,1.063.916,2.163,1.414,3.159l9.225,18.451c2.033,4.066,4.338,8.675,8.055,11.728a17.814,17.814,0,0,0,11.684,3.8,20.958,20.958,0,0,0,11.783-3.892c2.152-5.515-1.578-12.442-4.59-17.193l-29.24-46.136c-1.529-2.412-3.432-5.413-6.281-6.742a15.8,15.8,0,0,0-6.668-1.016c-2.445-.014-4.939.011-7.352.035-7.656.077-15.572.158-23.289-1-9.754-1.469-16.379-4.106-19.244-12.707a.72.72,0,1,1,1.365-.456,14.18,14.18,0,0,0,6.236,8.128c2.75,1.676,6.408,2.79,11.857,3.61,7.6,1.144,15.459,1.064,23.061.988,2.416-.024,4.916-.05,7.373-.035a17.18,17.18,0,0,1,7.268,1.151c3.234,1.508,5.262,4.707,6.891,7.277l29.24,46.136c3.217,5.076,7.2,12.537,4.629,18.7a.74.74,0,0,1-.238.3A22.24,22.24,0,0,1,8920.086,2009.162Z" transform="translate(-8760.137 -1906.544)"/></g><g transform="translate(8833.193 1205.465)"><path class="f" d="M9488.133,2323.808a4.541,4.541,0,0,1-1.5-.245.72.72,0,1,1,.475-1.359c1.959.686,4.123-.7,5.008-2.386a9.228,9.228,0,0,0,.354-6.386,17.879,17.879,0,0,0-1.067-3.034.72.72,0,1,1,1.309-.6,19.13,19.13,0,0,1,1.156,3.282,10.4,10.4,0,0,1-.477,7.41A6.028,6.028,0,0,1,9488.133,2323.808Z" transform="translate(-9486.148 -2309.376)"/></g><g transform="translate(8847.764 1207.317)"><path class="f" d="M9558,2333.1a.719.719,0,0,1-.508-1.23,7.245,7.245,0,0,0,1.7-5.985,23.06,23.06,0,0,0-2.176-6.495.721.721,0,0,1,1.314-.591,24.085,24.085,0,0,1,2.291,6.913,8.676,8.676,0,0,1-2.113,7.178A.726.726,0,0,1,9558,2333.1Z" transform="translate(-9556.949 -2318.372)"/></g><g transform="translate(8768.07 1127.955)"><path class="f" d="M9171.19,1950.337a.72.72,0,0,1-.716-.639c-.078-.689-.163-1.373-.247-2.047-.826-6.644-1.607-12.919,5.5-14.877a.72.72,0,1,1,.383,1.389c-5.621,1.548-5.354,6.067-4.452,13.31.085.68.17,1.368.248,2.062a.719.719,0,0,1-.635.8A.619.619,0,0,1,9171.19,1950.337Z" transform="translate(-9169.705 -1932.748)"/></g><g transform="translate(8777.085 1111.542)"><path class="f" d="M9259.329,1894.495a.72.72,0,0,1-.306-1.373,26.789,26.789,0,0,0,5.052-3.083,8.38,8.38,0,0,0,2.927-3.476c.534-1.478.586-3.392-.372-4.029a.717.717,0,0,1-.315-.69c.192-1.519.432-3.41-.276-4.886-.091-.189-.2-.378-.314-.578a5.408,5.408,0,0,1-.385-5.172,3.949,3.949,0,0,0-1.913-5.463c-.2-.148-.4-.3-.6-.447a5.364,5.364,0,0,1-2.1-3.521,15.254,15.254,0,0,1-.226-2.353c-.065-1.508-.128-2.932-1.06-3.776-.844-.762-2.176-.822-3.582-.815-1.065,0-2.136.094-3.169.18a18.687,18.687,0,0,1-6.917-.3c-2.9-.837-6.464.243-9.543,2.888a55.161,55.161,0,0,0-7.325,8.144c-3.324,4.266-9.741,6.041-14.637,6.279a.72.72,0,1,1-.069-1.439c1.58-.076,9.665-.714,13.57-5.726a56.4,56.4,0,0,1,7.522-8.351c3.449-2.962,7.519-4.151,10.882-3.179a17.308,17.308,0,0,0,6.4.247c1.062-.089,2.16-.181,3.284-.185,1.629-.006,3.328.08,4.554,1.188,1.377,1.248,1.457,3.044,1.532,4.781a14.106,14.106,0,0,0,.2,2.13,3.919,3.919,0,0,0,1.564,2.666c.188.143.381.285.572.426a6.856,6.856,0,0,1,2.563,2.757,6.729,6.729,0,0,1-.1,4.2,5.832,5.832,0,0,0-.2,3.279,5.673,5.673,0,0,0,.426.839c.124.214.251.436.366.674a9.464,9.464,0,0,1,.457,5.291,3.609,3.609,0,0,1,1.013,2.456,7.573,7.573,0,0,1-.452,2.971,9.677,9.677,0,0,1-3.4,4.126,28.282,28.282,0,0,1-5.325,3.249A.722.722,0,0,1,9259.329,1894.495Z" transform="translate(-9213.517 -1852.997)"/></g><g transform="translate(8767.732 1077.212)"><path class="f" d="M9254.969,1749.376c-.469,0-.947-.021-1.426-.066a26.563,26.563,0,0,1-16.631-8.077c-4.615-4.872-7.16-11.286-9.621-17.489-2.828-7.129-5.5-13.864-11.037-18.525a.72.72,0,1,1,.928-1.1c5.816,4.895,8.68,12.114,11.449,19.1,2.41,6.076,4.9,12.36,9.328,17.03a25.107,25.107,0,0,0,15.719,7.634c3.082.284,6.824-.384,8.082-3.109.664-1.44.4-3.1.113-4.854a11.786,11.786,0,0,1-.109-4.841c-4.793-15.868-14.51-28.965-25.771-43.221-3.838-4.858-11.287-4.406-14.312-3.987a17.937,17.937,0,0,0-4.752,1.207c-3.027,1.307-5.684,3.949-7.895,7.856-.434.764-.846,1.567-1.246,2.344a29.279,29.279,0,0,1-3.32,5.436,9.913,9.913,0,0,1-7.867,3.887,11.07,11.07,0,0,1-7.109-3.279,38.031,38.031,0,0,1-3.078-3.355c-.631-.746-1.285-1.518-1.959-2.233a27.053,27.053,0,0,0-15.775-8.18.72.72,0,0,1,.2-1.426,28.5,28.5,0,0,1,16.619,8.617c.7.744,1.367,1.531,2.012,2.292a36.932,36.932,0,0,0,2.961,3.23,9.662,9.662,0,0,0,6.143,2.893h.09a8.445,8.445,0,0,0,6.654-3.368,27.773,27.773,0,0,0,3.146-5.174c.406-.789.826-1.606,1.273-2.4,2.369-4.185,5.256-7.034,8.578-8.469a19.279,19.279,0,0,1,5.127-1.311c3.268-.454,11.338-.921,15.637,4.521,11.4,14.433,21.234,27.7,26.08,43.9a.73.73,0,0,1,0,.409,10.152,10.152,0,0,0,.092,4.418c.307,1.892.621,3.848-.229,5.688a6.6,6.6,0,0,1-4.1,3.409A12.811,12.811,0,0,1,9254.969,1749.376Z" transform="translate(-9168.059 -1686.183)"/></g><g transform="translate(8822.985 1108.849)"><path class="f" d="M9437.262,1844.941a.72.72,0,0,1-.485-1.254,4.794,4.794,0,0,0,1.539-3.118.72.72,0,1,1,1.435.119,6.256,6.256,0,0,1-2,4.065A.719.719,0,0,1,9437.262,1844.941Z" transform="translate(-9436.54 -1839.909)"/></g><g transform="translate(8848.794 1123.44)"><path class="f" d="M9563.406,1924.718a.72.72,0,0,1-.424-1.3,5.887,5.887,0,0,0,2.074-5.582,11.691,11.691,0,0,0-2.937-5.836.72.72,0,1,1,1.1-.934,13.056,13.056,0,0,1,3.268,6.575,7.332,7.332,0,0,1-2.654,6.945A.72.72,0,0,1,9563.406,1924.718Z" transform="translate(-9561.946 -1910.808)"/></g><g transform="translate(8856.571 1123.371)"><path class="f" d="M9605.2,1917.754a.72.72,0,0,1-.56-.267l-4.737-5.842a.721.721,0,0,1,1.121-.907l4.735,5.842a.721.721,0,0,1-.56,1.174Z" transform="translate(-9599.743 -1910.471)"/></g><g transform="translate(8689.238 1117.068)"><path class="f" d="M8792.213,1892.6a7.58,7.58,0,0,1-1.808-.214,5.567,5.567,0,0,1-3.666-2.679.719.719,0,1,1,1.265-.686c1.17,2.156,4.273,2.576,6.476,1.729,2.388-.919,4.22-2.937,6.041-5.1l.121-.143c1.8-2.147,3.673-4.369,6.283-5.592a.72.72,0,1,1,.61,1.3c-2.322,1.089-4.085,3.186-5.792,5.215l-.12.143c-1.947,2.314-3.918,4.477-6.626,5.518A7.824,7.824,0,0,1,8792.213,1892.6Z" transform="translate(-8786.651 -1879.848)"/></g><g transform="translate(8722.832 1110.843)"><path class="f" d="M8988,1884.969a15.314,15.314,0,0,1-8.316-2.406,29.972,29.972,0,0,1-3.685-3,19.683,19.683,0,0,0-4.988-3.671c-2.408-1.081-5.079-1.124-7.908-1.171-.824-.013-1.679-.028-2.516-.07-6.212-.317-8.86-2.758-9.989-4.751a4.649,4.649,0,0,1-.609-3.35,5.983,5.983,0,0,1,2.362-3.076c.941-.753,1.938-1.5,2.9-2.224,4.164-3.124,8.469-6.355,9.909-11.136a.721.721,0,0,1,1.381.415c-1.578,5.234-6.075,8.609-10.425,11.873-.953.717-1.942,1.458-2.865,2.2a4.81,4.81,0,0,0-1.862,2.294,3.332,3.332,0,0,0,.463,2.3c.95,1.678,3.249,3.739,8.811,4.022.811.041,1.651.055,2.464.068,2.85.047,5.8.1,8.476,1.3a21.041,21.041,0,0,1,5.365,3.919,28.86,28.86,0,0,0,3.5,2.862,13.991,13.991,0,0,0,12.964,1.061.72.72,0,1,1,.58,1.319A14.986,14.986,0,0,1,8988,1884.969Z" transform="translate(-8949.889 -1849.598)"/></g><g transform="translate(8752.428 1097.115)"><path class="f" d="M9131.154,1812.1c-.025,0-.049,0-.074,0a.723.723,0,0,1-.645-.789,6.163,6.163,0,0,0-1.891-4.915,8.523,8.523,0,0,0-6.521-2.586,19.863,19.863,0,0,0-3.094.554,19.413,19.413,0,0,1-3.672.606,11.421,11.421,0,0,1-8.939-4.192,14.448,14.448,0,0,1-3.145-9.352c0-.3.012-.61.023-.915a10.265,10.265,0,0,0-.111-2.494,4.683,4.683,0,0,0-8.121-2.073.72.72,0,1,1-1.09-.942,6.123,6.123,0,0,1,10.619,2.711,11.335,11.335,0,0,1,.143,2.849c-.01.293-.021.585-.021.876a13.011,13.011,0,0,0,2.814,8.422,9.927,9.927,0,0,0,7.775,3.67,17.967,17.967,0,0,0,3.4-.57,21.32,21.32,0,0,1,3.32-.588,10,10,0,0,1,7.656,3.02,7.588,7.588,0,0,1,2.293,6.063A.723.723,0,0,1,9131.154,1812.1Z" transform="translate(-9093.7 -1782.891)"/></g><g transform="translate(8761.763 1082.247)"><path class="f" d="M9163.313,1731.607a39.451,39.451,0,0,1-21.324-6.273,5.863,5.863,0,0,1-2.827-3.245c-.5-2.005.892-3.951,2.492-4.991a16.68,16.68,0,0,1,2.487-1.251,17.046,17.046,0,0,0,2.071-1.007c1.111-.672,2.337-1.958,2.13-3.368a.721.721,0,0,1,1.426-.21c.2,1.382-.429,3.371-2.812,4.811a18.335,18.335,0,0,1-2.24,1.1,15.207,15.207,0,0,0-2.276,1.137c-1.134.736-2.206,2.126-1.879,3.435a4.577,4.577,0,0,0,2.211,2.382,37.973,37.973,0,0,0,23.233,5.945,8.9,8.9,0,0,0,.475-5.229.72.72,0,1,1,1.407-.3,10.319,10.319,0,0,1-.746,6.522.721.721,0,0,1-.592.411C9165.473,1731.562,9164.392,1731.607,9163.313,1731.607Z" transform="translate(-9139.059 -1710.647)"/></g><g transform="translate(8802.189 1095.543)"><path class="f" d="M9349.357,1793.084a.723.723,0,0,1-.574-.285,22.794,22.794,0,0,0-5.441-4.666c-.985-.683-2-1.389-2.957-2.156-3.781-3.048-5.53-6.854-4.678-10.181a.72.72,0,0,1,1.4.357c-.266,1.036-.748,4.725,4.188,8.7.911.735,1.908,1.426,2.871,2.094a24.215,24.215,0,0,1,5.77,4.978.72.72,0,0,1-.573,1.156Z" transform="translate(-9335.495 -1775.256)"/></g><g transform="translate(8757.987 1147.619)"><path class="f" d="M9127.711,2064.678a.673.673,0,0,1-.09-.005.722.722,0,0,1-.627-.8c.348-2.783-1.234-5.243-2.908-7.848a23.014,23.014,0,0,1-2.926-5.62,11.214,11.214,0,0,1,1.607-9.593c2.2-3.051,6.1-5.088,11.273-5.892,1.8-.28,3.646-.418,5.426-.552a51.415,51.415,0,0,0,6.939-.838c3.223-.694,7.232-2.343,8.824-4.891a.72.72,0,1,1,1.221.764c-2.3,3.686-8.037,5.168-9.74,5.535a52.514,52.514,0,0,1-7.137.867c-1.752.131-3.562.267-5.312.539-3.338.518-7.836,1.86-10.324,5.311a9.736,9.736,0,0,0-1.4,8.335,21.97,21.97,0,0,0,2.756,5.257c1.74,2.706,3.537,5.5,3.129,8.805A.723.723,0,0,1,9127.711,2064.678Z" transform="translate(-9120.713 -2028.296)"/></g><g transform="translate(8675.354 1139.526)"><path class="f" d="M8736.563,2039.133a29.466,29.466,0,0,1-5.508-.469,14.278,14.278,0,0,1-8.694-4.726c-3.562-4.335-3.438-10.36-2.847-15.682a124.251,124.251,0,0,1,6.747-28.809.72.72,0,0,1,1.353.493,122.9,122.9,0,0,0-6.669,28.475c-.558,5.023-.694,10.687,2.528,14.608,4.137,5.031,12.084,4.945,17.705,4.443a174.764,174.764,0,0,0,46.764-10.8.72.72,0,0,1,.514,1.346,176.223,176.223,0,0,1-47.149,10.886C8739.58,2039.055,8738.01,2039.133,8736.563,2039.133Z" transform="translate(-8719.195 -1988.973)"/></g><g transform="translate(8682.393 1146.735)"><path class="f" d="M8754.113,2028.685a.721.721,0,0,1-.508-1.233,13.136,13.136,0,0,1,6.178-3.431.72.72,0,0,1,.335,1.4,11.683,11.683,0,0,0-5.5,3.055A.721.721,0,0,1,8754.113,2028.685Z" transform="translate(-8753.392 -2024)"/></g><g transform="translate(8751.617 1051.839)"><path class="f" d="M9090.482,1567.974a.72.72,0,0,1-.3-1.375l7.953-3.643a.72.72,0,1,1,.6,1.31l-7.955,3.643A.7.7,0,0,1,9090.482,1567.974Z" transform="translate(-9089.763 -1562.89)"/></g><g transform="translate(8675.305 1113.624)"><path class="f" d="M8721.689,1906.754a.722.722,0,0,1-.639-.388c-3.732-7.176-1.818-15.769.549-23.228a198.444,198.444,0,0,1,7.389-19.6.72.72,0,1,1,1.318.579,196.206,196.206,0,0,0-7.332,19.453c-2.277,7.177-4.135,15.419-.645,22.127a.721.721,0,0,1-.641,1.053Z" transform="translate(-8718.949 -1863.11)"/></g><g transform="translate(8839.027 1043.246)"><path class="f" d="M9552.649,1628.425a55.025,55.025,0,0,1-11.4-1.1.72.72,0,0,1-.49-.376l-.285-.56a90.7,90.7,0,0,0-5.415-9.629.721.721,0,0,1,1.192-.809,92.061,92.061,0,0,1,5.5,9.783l.129.253c11.434,2.35,27.547.451,38.476-4.553l.459-.21c2.567-1.171,5.221-2.38,6.641-4.577a274.157,274.157,0,0,0-27.812-69.755c-2.975-5.233-6.295-10.639-11.292-14.195-4.83-3.438-10.994-4.888-16.433-6.167l-16.877-3.971a.72.72,0,0,1,.329-1.4l16.878,3.971c5.568,1.31,11.878,2.794,16.938,6.4,5.235,3.727,8.654,9.284,11.708,14.657a275.571,275.571,0,0,1,28.03,70.415.711.711,0,0,1-.077.536c-1.608,2.747-4.705,4.158-7.437,5.4l-.457.208C9573,1626.391,9562.349,1628.425,9552.649,1628.425Z" transform="translate(-9514.492 -1521.14)"/></g><g transform="translate(8855.427 1063.867)"><path class="f" d="M9594.9,1661.955a.766.766,0,0,1-.105-.007.722.722,0,0,1-.609-.816,80.758,80.758,0,0,1,17.421-39.53.721.721,0,0,1,1.116.912,79.326,79.326,0,0,0-17.111,38.824A.719.719,0,0,1,9594.9,1661.955Z" transform="translate(-9594.18 -1621.338)"/></g><g transform="translate(8856.677 1138.614)"><path class="f" d="M9601.294,2001.643a.72.72,0,0,1-.71-.611c-.737-4.792-.085-9.558.608-14.6q.088-.63.172-1.262a.721.721,0,0,1,1.429.193c-.057.422-.115.844-.173,1.264-.678,4.939-1.317,9.6-.612,14.189a.722.722,0,0,1-.6.822A.712.712,0,0,1,9601.294,2001.643Z" transform="translate(-9600.259 -1984.542)"/></g><g transform="translate(8856.021 1202.394)"><path class="f" d="M9631.947,2326.09a.7.7,0,0,1-.15-.016c-2.1-.448-3.889-2.273-4.915-5.005-.333-.89-.583-1.808-.824-2.7a19.912,19.912,0,0,0-1.188-3.516c-1.361-2.81-4.044-4.858-6.411-6.665l-6.837-5.218a28.4,28.4,0,0,0-5.725-3.686c-.275-.119-.553-.23-.849-.347a8.28,8.28,0,0,1-3.345-2c-.1-.114-.2-.235-.292-.355a2.524,2.524,0,0,0-.549-.572.838.838,0,0,0-.785-.049,2.517,2.517,0,0,0-1.371,1.546c-1,3.272,2.03,6.594,4.931,8.445.579.37,1.2.739,1.791,1.1,2.812,1.683,5.717,3.424,7.094,6.472a.72.72,0,0,1-1.312.593c-1.19-2.637-3.9-4.26-6.521-5.829-.6-.362-1.229-.736-1.826-1.117a14.989,14.989,0,0,1-4.457-4.246,6.848,6.848,0,0,1-1.076-5.834,3.958,3.958,0,0,1,2.248-2.476,2.283,2.283,0,0,1,2.057.181,3.72,3.72,0,0,1,.909.9c.078.1.157.2.24.3a7.109,7.109,0,0,0,2.8,1.617c.292.116.593.236.887.364a29.483,29.483,0,0,1,6.024,3.862l6.837,5.218c2.5,1.9,5.322,4.063,6.836,7.181a21.346,21.346,0,0,1,1.28,3.767c.232.856.474,1.741.783,2.567.4,1.071,1.584,3.615,3.867,4.1a.72.72,0,0,1-.15,1.425Z" transform="translate(-9597.068 -2294.452)"/></g><g transform="translate(8856.831 1217.372)"><path class="f" d="M9610.367,2373.046c-1.969,0-3.98-1.127-5.634-2.226l-3.411-2.265a.721.721,0,0,1,.8-1.2l3.41,2.266c2.041,1.355,4.382,2.611,6.271,1.65a.72.72,0,1,1,.651,1.284A4.532,4.532,0,0,1,9610.367,2373.046Z" transform="translate(-9601.002 -2367.234)"/></g><g transform="translate(8815.619 1205.852)"><path class="f" d="M9426.068,2339.616a.72.72,0,0,1-.573-.283c-5.484-7.175-12.532-12.949-19.879-18.721-2.216-1.741-4.416-3.707-4.848-6.883a2.285,2.285,0,0,1,1.834-2.382,5.249,5.249,0,0,1,2.56.2,11.4,11.4,0,0,1,3.736,1.461.72.72,0,0,1-.819,1.185,10.152,10.152,0,0,0-3.276-1.251,4.1,4.1,0,0,0-1.859-.194c-.433.1-.789.48-.747.788.358,2.644,2.243,4.32,4.309,5.944,7.423,5.831,14.548,11.67,20.134,18.979a.72.72,0,0,1-.57,1.158Z" transform="translate(-9400.751 -2311.257)"/></g><g transform="translate(8808.02 1206.762)"><path class="f" d="M9392.855,2347.6a.726.726,0,0,1-.385-.11c-6.442-4.041-11.355-9.882-16.106-15.53-3.759-4.47-7.648-9.092-12.267-12.787a.722.722,0,0,1-.233-.792,4.347,4.347,0,0,1,4.33-2.7,7.634,7.634,0,0,1,4.511,1.988.721.721,0,0,1-.924,1.107,6.241,6.241,0,0,0-3.645-1.656,3.137,3.137,0,0,0-2.7,1.286c4.536,3.719,8.343,8.247,12.028,12.63,4.681,5.563,9.52,11.315,15.772,15.237a.721.721,0,0,1-.383,1.331Z" transform="translate(-9363.827 -2315.676)"/></g><g transform="translate(8806.051 1228.231)"><path class="f" d="M9386.62,2436.666a.778.778,0,0,1-.112-.009,55.253,55.253,0,0,1-18.789-6.54c-.3-.17-.6-.344-.9-.517a25.533,25.533,0,0,0-3.732-1.9c-.775-.292-1.581-.535-2.435-.791-2.192-.659-4.462-1.341-6.165-2.93a.718.718,0,0,1-.131-.888,7.019,7.019,0,0,1,5.956-3.08c3.833-.154,7.331,1.55,10.715,3.2,3.319,1.619,6.45,3.152,9.873,3.07h.017a.72.72,0,0,1,.017,1.44c-3.77.09-7.21-1.592-10.538-3.215-3.371-1.645-6.552-3.2-10.024-3.056a5.982,5.982,0,0,0-4.429,1.875,15.875,15.875,0,0,0,5.126,2.2c.838.252,1.706.513,2.527.823a26.993,26.993,0,0,1,3.944,2c.3.171.592.342.89.51a53.815,53.815,0,0,0,18.3,6.37.72.72,0,0,1-.11,1.432Z" transform="translate(-9354.257 -2420)"/></g><g transform="translate(8840.685 1219.459)"><path class="f" d="M9555.215,2408.612c-10.378,0-21.8-.313-32.2-4.3a.72.72,0,0,1,.517-1.345c11.135,4.27,23.6,4.234,34.6,4.2,6.872-.02,12.848-5.3,18.119-9.958q.661-.584,1.312-1.157c5.3-4.643,12.093-10.928,17.622-18.385a.721.721,0,0,1,1.158.858c-5.611,7.566-12.478,13.92-17.83,18.61q-.649.568-1.309,1.152c-5.462,4.827-11.652,10.3-19.068,10.319Q9556.687,2408.611,9555.215,2408.612Z" transform="translate(-9522.549 -2377.375)"/></g><g transform="translate(8853.213 1226.051)"><path class="f" d="M9590.62,2416.473a5.669,5.669,0,0,1-4.093-2.148,19.983,19.983,0,0,1-1.294-1.7,14.331,14.331,0,0,0-1.591-1.989.72.72,0,1,1,1.008-1.029,15.569,15.569,0,0,1,1.758,2.185,18.6,18.6,0,0,0,1.2,1.578c.4.461,1.851,1.937,3.443,1.616a.721.721,0,1,1,.285,1.413A3.639,3.639,0,0,1,9590.62,2416.473Z" transform="translate(-9583.427 -2409.405)"/></g><g transform="translate(8844.271 1233.977)"><path class="f" d="M9544.274,2452.247a.7.7,0,0,1-.182-.024,6.428,6.428,0,0,1-4.043-3.256.72.72,0,0,1,1.283-.653,4.97,4.97,0,0,0,3.124,2.516.72.72,0,0,1-.183,1.417Z" transform="translate(-9539.972 -2447.92)"/></g><g transform="translate(8834.546 1156.4)"><path class="f" d="M9573.28,2135a10.082,10.082,0,0,1-7.259-2.726.72.72,0,0,1,1.022-1.014,9.254,9.254,0,0,0,7.522,2.231,28.857,28.857,0,0,0,8.12-2.55l30.88-13.142c1.983-.844,4.059-1.629,6.066-2.389,7.411-2.805,15.075-5.707,19.511-12.105a24.463,24.463,0,0,0,4.068-7.851,7.688,7.688,0,0,0-9.072-10.153,24.339,24.339,0,0,0-7.955,3.02c-3.412,1.805-6.838,3.76-10.15,5.651-8.142,4.647-16.561,9.452-25.6,12.5-8.5,2.868-15.358,3.091-20.951.679-5.718-2.464-9.655-7.493-13.464-12.357l-.293-.373c-5.276-6.733-11.08-13.664-18.858-17.927a36.274,36.274,0,0,0-42.892,7.136.72.72,0,0,1-1.063-.971,37.713,37.713,0,0,1,44.648-7.429c8.016,4.394,14.165,11.751,19.3,18.3l.291.373c3.7,4.722,7.521,9.6,12.9,11.923,5.251,2.264,11.767,2.028,19.921-.722,8.911-3,17.268-7.774,25.351-12.387,3.32-1.9,6.757-3.857,10.19-5.673a25.927,25.927,0,0,1,8.435-3.174,10.021,10.021,0,0,1,8.741,2.656c2.055,2.2,2.791,5.756,1.924,9.27a25.992,25.992,0,0,1-4.284,8.326c-4.689,6.767-12.566,9.749-20.185,12.633-1.994.754-4.055,1.534-6.01,2.367l-30.883,13.142a29.958,29.958,0,0,1-8.533,2.658A13.835,13.835,0,0,1,9573.28,2135Z" transform="translate(-9492.722 -2070.966)"/></g><g transform="translate(8886.604 1215.394)"><path class="f" d="M9746.4,2372.921a.721.721,0,0,1-.351-1.351,42.8,42.8,0,0,0,10.517-8.656c.165-.173.328-.349.493-.525,1.948-2.077,4.154-4.43,7.171-4.763a.72.72,0,0,1,.158,1.432c-2.486.274-4.414,2.329-6.277,4.316-.166.178-.333.356-.5.531a45.049,45.049,0,0,1-10.865,8.926A.716.716,0,0,1,9746.4,2372.921Z" transform="translate(-9745.677 -2357.621)"/></g><g transform="translate(8971.48 1182.368)"><path class="f" d="M10169.466,2201.954a.719.719,0,0,1-.613-.342,6.381,6.381,0,0,0-9.567-1.506.721.721,0,1,1-.936-1.1,7.822,7.822,0,0,1,11.728,1.845.72.72,0,0,1-.611,1.1Z" transform="translate(-10158.097 -2197.145)"/></g><g transform="translate(8970.695 1174.322)"><path class="f" d="M10155,2162a.72.72,0,0,1-.459-1.277,12.137,12.137,0,0,1,12.749-1.534.72.72,0,1,1-.622,1.3,10.819,10.819,0,0,0-11.211,1.349A.72.72,0,0,1,10155,2162Z" transform="translate(-10154.282 -2158.047)"/></g><g transform="translate(8901.018 1169.872)"><path class="f" d="M9816.428,2150.724a.721.721,0,0,1-.164-1.422,13.137,13.137,0,0,0,4.355-2.181c1.41-.983,2.793-2.072,4.129-3.125,1.453-1.145,2.955-2.329,4.52-3.4,3.674-2.51,7.035-3.859,10.275-4.126a11.39,11.39,0,0,1,10.23,4.209.72.72,0,0,1-1.166.846c-1.811-2.5-5.318-3.916-8.947-3.619-2.984.246-6.117,1.515-9.58,3.88-1.523,1.041-3.006,2.209-4.441,3.339-1.352,1.066-2.75,2.169-4.2,3.176a14.417,14.417,0,0,1-4.85,2.4A.735.735,0,0,1,9816.428,2150.724Z" transform="translate(-9815.708 -2136.427)"/></g><g transform="translate(8916.863 1176.772)"><path class="f" d="M9893.426,2186.743a.72.72,0,0,1-.354-1.348c2.875-1.619,4.959-4.473,6.977-7.233,2.383-3.262,4.85-6.635,8.686-8.158a.721.721,0,0,1,.533,1.339c-3.451,1.37-5.687,4.429-8.055,7.669-2.109,2.884-4.287,5.866-7.436,7.638A.713.713,0,0,1,9893.426,2186.743Z" transform="translate(-9892.704 -2169.952)"/></g><g transform="translate(8934.308 1151.36)"><path class="f" d="M9996.425,2076.367a.72.72,0,0,1-.632-1.065,40.394,40.394,0,0,0,4.785-16.422,15.329,15.329,0,0,0-.762-6.8,6.516,6.516,0,0,0-4.675-4.1,7.619,7.619,0,0,0-5.274,1.53,16.494,16.494,0,0,0-6.92,9.864c-.222.924-.365,1.9-.506,2.836-.13.886-.267,1.8-.468,2.705a19.55,19.55,0,0,1-3.193,7.105.72.72,0,1,1-1.168-.843,18.133,18.133,0,0,0,2.956-6.577c.188-.851.321-1.742.448-2.6.146-.97.294-1.973.529-2.958a17.938,17.938,0,0,1,7.531-10.734,8.973,8.973,0,0,1,6.288-1.749,7.864,7.864,0,0,1,5.782,4.977,16.653,16.653,0,0,1,.869,7.451,41.832,41.832,0,0,1-4.959,17.011A.719.719,0,0,1,9996.425,2076.367Z" transform="translate(-9977.476 -2046.474)"/></g><g transform="translate(8948.186 1153.315)"><path class="f" d="M10045.623,2062.87a.722.722,0,0,1-.71-.85,7.627,7.627,0,0,1,6.927-6.045.72.72,0,0,1,.063,1.439,6.136,6.136,0,0,0-5.572,4.864A.721.721,0,0,1,10045.623,2062.87Z" transform="translate(-10044.901 -2055.974)"/></g><g transform="translate(8942.957 1152.913)"><path class="f" d="M10020.218,2061.918h-.021a.721.721,0,0,1-.7-.742,10.783,10.783,0,0,1,2.857-6.928.721.721,0,1,1,1.054.983,9.32,9.32,0,0,0-2.472,5.99A.72.72,0,0,1,10020.218,2061.918Z" transform="translate(-10019.498 -2054.019)"/></g><g transform="translate(8927.729 1210.762)"><path class="f" d="M9946.754,2361.833a1.839,1.839,0,0,1-.413-.047.72.72,0,0,1-.54-.537,19.05,19.05,0,0,1,.264-7.6q.1-.587.2-1.172a53.158,53.158,0,0,0,.456-13.066.72.72,0,1,1,1.435-.128,54.6,54.6,0,0,1-.469,13.42q-.094.591-.2,1.186a20.1,20.1,0,0,0-.407,6.39,3.038,3.038,0,0,0,.78-.793,41.8,41.8,0,0,0,8.063-23.666.72.72,0,0,1,.719-.7h.017a.721.721,0,0,1,.705.736,43.238,43.238,0,0,1-8.345,24.489A2.984,2.984,0,0,1,9946.754,2361.833Z" transform="translate(-9945.509 -2335.115)"/></g><g transform="translate(8873.411 1157.96)"><path class="f" d="M9715.2,2100.208c-2.257,0-4.679-.844-7.09-4.13-9.139-12.463-19.116-15.631-25.875-16.095a.72.72,0,0,1,.1-1.437c7.063.484,17.474,3.771,26.939,16.68,2.92,3.981,5.628,3.806,8.375,3.244a.721.721,0,0,1,.29,1.412A13.669,13.669,0,0,1,9715.2,2100.208Z" transform="translate(-9681.567 -2078.544)"/></g><g transform="translate(8871.046 1149.681)"><path class="f" d="M9674.319,2048.272a.721.721,0,0,1-.694-.53,36.556,36.556,0,0,0-3.451-8.352.72.72,0,1,1,1.252-.711,38,38,0,0,1,3.589,8.681.721.721,0,0,1-.5.885A.74.74,0,0,1,9674.319,2048.272Z" transform="translate(-9670.08 -2038.315)"/></g><g transform="translate(8904.771 1144.119)"><path class="f" d="M9843.989,2042.324a.72.72,0,0,1-.7-.547,251.332,251.332,0,0,0-9.294-29.511.72.72,0,0,1,1.345-.517,253.034,253.034,0,0,1,9.347,29.681.72.72,0,0,1-.524.873A.736.736,0,0,1,9843.989,2042.324Z" transform="translate(-9833.948 -2011.287)"/></g><g transform="translate(8721.217 1187.399)"><path class="f" d="M9045.332,2296.1a99.724,99.724,0,0,1-30.312-4.6c-15.014-4.933-29.3-14.31-42.457-27.871-12.592-12.976-22.439-27.974-30.41-40.933a.72.72,0,1,1,1.227-.755c7.932,12.892,17.723,27.808,30.217,40.684,13,13.392,27.084,22.646,41.873,27.505a99.434,99.434,0,0,0,36.15,4.329c9.559-.627,23-2.991,32.74-10.694a.72.72,0,1,1,.893,1.13c-10.031,7.933-23.775,10.362-33.537,11C9049.611,2296.029,9047.477,2296.1,9045.332,2296.1Z" transform="translate(-8942.045 -2221.592)"/></g><g transform="translate(8841.705 1165.441)"><path class="f" d="M9584.937,2169.875a.724.724,0,0,1-.611-.337c-2.046-3.257.017-7.3,1-8.885.389-.632.816-1.255,1.229-1.859a15.034,15.034,0,0,0,2.751-5.445c.572-2.979-.854-6-2.151-8.009-.748-1.16-1.619-2.284-2.461-3.371a43.5,43.5,0,0,1-2.849-3.974,44.1,44.1,0,0,1-2.668-5.433,47.1,47.1,0,0,0-2.323-4.836,22.9,22.9,0,0,0-32.077-7.858,48.167,48.167,0,0,0-6.129,4.916c-3.054,2.732-6.21,5.558-10.186,6.928a.72.72,0,0,1-.471-1.362c3.7-1.276,6.613-3.881,9.7-6.64a49.441,49.441,0,0,1,6.319-5.058A24.343,24.343,0,0,1,9578.1,2127a48.351,48.351,0,0,1,2.4,4.985,31.693,31.693,0,0,0,5.334,9.1c.859,1.11,1.751,2.259,2.533,3.472,2.064,3.2,2.879,6.332,2.355,9.062a16.29,16.29,0,0,1-2.977,5.986c-.4.59-.82,1.2-1.193,1.8-.839,1.357-2.617,4.791-1,7.362a.72.72,0,0,1-.609,1.1Z" transform="translate(-9527.502 -2114.893)"/></g><g transform="translate(8777.31 1181.491)"><path class="f" d="M9246.809,2241.207a.719.719,0,0,1-.129-.012c-11.225-2.047-22.527-9.136-28.795-18.058a18.892,18.892,0,0,1-3-6.39,8.275,8.275,0,0,1,1-6.729c1.369-2.008,3.539-3.041,5.639-4.039a19.984,19.984,0,0,0,3.73-2.107,9.255,9.255,0,0,0,2.98-10.032.72.72,0,0,1,1.363-.467,10.736,10.736,0,0,1-3.457,11.634,21.087,21.087,0,0,1-4,2.273c-2.016.958-3.92,1.863-5.066,3.548-.7,1.031-2.631,4.9,1.988,11.48,6.061,8.629,17,15.486,27.875,17.468a.721.721,0,0,1-.131,1.43Z" transform="translate(-9214.602 -2192.885)"/></g><g transform="translate(8710.063 1195.039)"><path class="f" d="M8972.021,2355.99a110.777,110.777,0,0,1-20.775-1.9c-10.406-1.983-20.511-5.6-30.28-9.1-5.521-1.976-11-3.695-16.3-5.357-5.312-1.667-10.8-3.39-16.351-5.376a.719.719,0,0,1-.478-.711,485.114,485.114,0,0,1,9.2-74.254.721.721,0,0,1,1.413.287,483.956,483.956,0,0,0-9.15,73.5c5.351,1.9,10.657,3.566,15.8,5.179,5.311,1.667,10.8,3.39,16.349,5.376,9.721,3.479,19.771,7.077,30.065,9.039,33.274,6.34,67.314-4.477,96.284-15.982-.231-3.653-.4-7.371-.559-10.972-.17-3.766-.345-7.659-.592-11.466a.72.72,0,1,1,1.438-.093c.249,3.821.424,7.722.594,11.495s.344,7.659.589,11.466a.717.717,0,0,1-.451.716C9025.534,2347.1,8998.948,2355.99,8972.021,2355.99Z" transform="translate(-8887.84 -2258.713)"/></g><g transform="translate(8710.045 1270.299)"><path class="f" d="M8888.48,2656.442a.72.72,0,0,1-.72-.718,250.1,250.1,0,0,1,1.809-30.681.721.721,0,0,1,1.432.173,248.95,248.95,0,0,0-1.8,30.5.721.721,0,0,1-.719.722Z" transform="translate(-8887.76 -2624.409)"/></g><g transform="translate(8866.941 1273.282)"><path class="f" d="M9652.446,2667.954a.72.72,0,0,1-.717-.66c-.773-9.156-1.31-18.458-1.6-27.647a.721.721,0,0,1,1.44-.045c.287,9.164.823,18.44,1.593,27.572a.721.721,0,0,1-.657.778Z" transform="translate(-9650.132 -2638.903)"/></g><g transform="translate(8827.127 1151.797)"><path class="f" d="M9464.233,2062.659a.719.719,0,0,1-.685-.493,40.482,40.482,0,0,0-6.722-12.4.72.72,0,0,1,1.129-.9,41.949,41.949,0,0,1,6.96,12.844.721.721,0,0,1-.456.911A.71.71,0,0,1,9464.233,2062.659Z" transform="translate(-9456.671 -2048.595)"/></g></g></svg>