<svg xmlns="http://www.w3.org/2000/svg" width="244.633" height="328" viewBox="0 0 244.633 328"><defs><style>.a{fill:#8fb1d9;}.b{fill:#fff;}.c{fill:#fff5f5;}.d{fill:#d4edfc;}.e{fill:#465468;}</style></defs><g transform="translate(197.997 208.169)"><path class="a" d="M2667.307,1904.939a25.223,25.223,0,0,1-5.386-.675,8.9,8.9,0,0,1-5.8-1.969l-.04-.132q4.645-1.369,9.147-3.173c4.2-1.679,8.365-3.691,11.583-6.862,1.594-1.569,2.987-3.573,2.991-5.81.006-3.231-2.714-5.576-5.55-7.359l-.161.129q-1.314-.5-2.627-1.01a5.257,5.257,0,0,0,3.281-2.18l.325.054a26.748,26.748,0,0,0,8.253-14.67c1.147-1.089,1.3-3.068,1.2-4.742a48.4,48.4,0,0,0-1.859-10.644l-.159-.056a116.2,116.2,0,0,0,4.761-20.049,5.378,5.378,0,0,0,.971,1.014l.038-.023c5.214,8.377,10.3,17.021,12.579,26.614,2.343,9.882,1.277,21.087-5.156,28.948-2.035,2.488-4.548,4.581-6.382,7.22a9.246,9.246,0,0,1-.244,2.819,13.31,13.31,0,0,1-4.844,6.8A26.3,26.3,0,0,1,2667.307,1904.939Z" transform="translate(-2656.08 -1825.79)"/></g><g transform="translate(0.717 116.826)"><path class="a" d="M1739.432,1475.337a7.844,7.844,0,0,1-.693,2.1,4.151,4.151,0,0,1-3.662,2.443,5.814,5.814,0,0,1-2.61-1.01,61.163,61.163,0,0,1-27.781-38.106c-.375-1.61-.528-3.6.308-4.871a70,70,0,0,1-1.242-26.669c.691-4.709,1.958-9.53,5.053-13.146,3.327-3.887,8.325-5.877,13.206-7.408a119.355,119.355,0,0,1,18.087-4.158,80.9,80.9,0,0,0,9.164,7.926c14.543,10.76,32.471,16.241,46.932,27.114l.07-.091a11.086,11.086,0,0,0,2.364,1.424,5.138,5.138,0,0,0,1.689,2.509,12.55,12.55,0,0,0,2.227,3.005,3.282,3.282,0,0,0,1.132,3.525,5.41,5.41,0,0,0,4.506.716,4.489,4.489,0,0,0,7.6-2.138l3.1-.292a13.822,13.822,0,0,0,7.651,1.037l.023.135a24.057,24.057,0,0,1,9.168,5.86,1.292,1.292,0,0,0,.677.453,1.319,1.319,0,0,0,.669-.141,11.8,11.8,0,0,1,5.906-.671l.041-.01a8.266,8.266,0,0,0,4.44,4.97,15.315,15.315,0,0,0,8.528,1.559l.279-.137a3.826,3.826,0,0,0,2.312,1.792,7.168,7.168,0,0,0,5.189-1.114,3.168,3.168,0,0,0,4.97-1.074,4.288,4.288,0,0,0,3.835-.042,2.845,2.845,0,0,0,.6-.468l.215.083a21.834,21.834,0,0,0,12.484-3.637,11.715,11.715,0,0,0,4.417-4.813,7,7,0,0,0,.584-2.546,4.118,4.118,0,0,0,3.917-5.924,4.928,4.928,0,0,0,3.55-1.049c.886-.909.661-2.832-.592-3.031q2.931-.031,5.856-.24c.281-.019.567-.042.851-.079a15.34,15.34,0,0,1,4.56,1.19l.027-.062c9.992.029,18.524,8.236,21.943,17.624s2.753,19.726,1.612,29.652c-.317,2.761-.681,5.543-1.114,8.325a116.175,116.175,0,0,1-4.761,20.05c-2.848,8.24-6.928,15.877-12.943,22.169l-.07-.066a26.941,26.941,0,0,0-3.84,4.61,4.38,4.38,0,0,1-.35.476,17.325,17.325,0,0,1-6.537,8.127,23.082,23.082,0,0,1-2.709,1.64c-4.127,2.134-8.731,3.146-13.3,4.016q-5.34,1.015-10.747,1.795l-.768.108c.2.255.4.505.609.755-.027.13-.05.261-.075.393l.116.021c.056,4.326,2.768,8.16,5.773,11.271a11.216,11.216,0,0,0,4.444,3.175,11.967,11.967,0,0,0,6.063-.161c.365-.077.727-.155,1.091-.238-.211,2.062,1.354,3.846,2.757,5.384a87.086,87.086,0,0,1,17.828,29.985q.9,2.593,1.635,5.241H1753.34a57.681,57.681,0,0,1-.167-43.879l.11-.048a169.98,169.98,0,0,1-13.747-75.317Z" transform="translate(-1703.014 -1384.51)"/></g><g transform="translate(200.681 228.218)"><path class="b" d="M2685.03,1952.708a5.256,5.256,0,0,1-3.281,2.18c-.118.021-.238.035-.358.045a3.955,3.955,0,0,0-1.664.259,3.9,3.9,0,0,0-.938.967c-1.558,1.822-4.268,1.983-6.665,2.006q-1.456.012-2.912.027l-.161-.225a17.328,17.328,0,0,0,6.537-8.127,4.387,4.387,0,0,0,.35-.476,26.921,26.921,0,0,1,3.84-4.61l.07.066c6.015-6.293,10.1-13.929,12.943-22.169l.16.056a48.4,48.4,0,0,1,1.859,10.644c.1,1.675-.054,3.653-1.2,4.742a26.749,26.749,0,0,1-8.253,14.67Z" transform="translate(-2669.05 -1922.65)"/></g><g transform="translate(173.693 260.456)"><path class="c" d="M2556.157,2104.242c-.365.083-.727.161-1.091.238a11.967,11.967,0,0,1-6.063.161,11.215,11.215,0,0,1-4.444-3.175c-3.006-3.111-5.717-6.945-5.773-11.271l-.116-.021c.025-.132.048-.263.074-.393.052-.288.105-.575.159-.863q5.4-.773,10.747-1.795c4.566-.869,9.17-1.881,13.3-4.016a23.1,23.1,0,0,0,2.71-1.639l.161.226q1.456-.016,2.913-.027c2.4-.023,5.106-.184,6.665-2.006a3.9,3.9,0,0,1,.937-.967,3.962,3.962,0,0,1,1.664-.259c.12-.01.24-.025.358-.045q1.314.506,2.627,1.01l.161-.128c2.836,1.782,5.556,4.128,5.55,7.359,0,2.238-1.4,4.241-2.991,5.811-3.219,3.171-7.387,5.183-11.583,6.862q-4.5,1.8-9.147,3.173Q2559.6,2103.476,2556.157,2104.242Z" transform="translate(-2538.67 -2078.39)"/></g><g transform="translate(191.161 284.542)"><path class="b" d="M2644.885,2229.552a6.758,6.758,0,0,1-1.093,2.287l-.13.046a87.071,87.071,0,0,0-17.829-29.985c-1.4-1.538-2.968-3.323-2.757-5.384q3.437-.768,6.816-1.766l.039.133a8.9,8.9,0,0,0,5.8,1.968,25.219,25.219,0,0,0,5.386.675,1.8,1.8,0,0,0,1.53.824l.031-.047a22.866,22.866,0,0,1,9.96,14.123l-2.685.77a11.923,11.923,0,0,1,.3,9.319,38.928,38.928,0,0,1-2.649,3.885A39.412,39.412,0,0,1,2644.885,2229.552Z" transform="translate(-2623.057 -2194.75)"/></g><g transform="translate(94.074 61.75)"><path class="b" d="M2208.875,1157.52a3.027,3.027,0,0,0-1.07.157l.035.1a5.125,5.125,0,0,0-1.478,1.9,1.593,1.593,0,1,0,2.888,1.327,5.244,5.244,0,0,0,.523-2.6l-.909-.4Zm-9.739-8.317-.169.039c-2.739-7.069.1-15.442,5.487-20.772s12.882-8.034,20.345-9.362c4.633-.824,9.547-1.153,13.923.577a22.588,22.588,0,0,0,4.1,1.538c1.016.186,2.061.13,3.09.23a10.327,10.327,0,0,1,7.278,4.183l.014-.01a12.468,12.468,0,0,0,3.391,3.128l.389-.1a10.036,10.036,0,0,1,8.276,5.862,7.832,7.832,0,0,0,.8,1.608,8.846,8.846,0,0,0,1.478,1.321,7.508,7.508,0,0,1,2.631,5.231,2,2,0,0,0,.4,1.406,3.145,3.145,0,0,0,1.053.451,3.613,3.613,0,0,1,1.791,2.552,18.739,18.739,0,0,1-.11,10.664l.122.021a27.323,27.323,0,0,0,1.056,5.063,13.391,13.391,0,0,1,1.182,10.2,3.056,3.056,0,0,0-.205,1.5,3.257,3.257,0,0,0,.412.872c1.842,3.235,1.184,7.257.474,10.911q-.628,3.217-1.252,6.433a25.922,25.922,0,0,1-1.207,4.649,17.553,17.553,0,0,1-3.389,5.2c-1.486,1.643-3.378,3.186-5.6,3.227a1.741,1.741,0,0,1-.18,0v.006a2.035,2.035,0,0,1-1.179,1.884,4.214,4.214,0,0,1-1.437.412c-.284.037-.569.06-.851.078q-2.925.208-5.856.24c1.253.2,1.478,2.122.592,3.031a4.928,4.928,0,0,1-3.55,1.049,4.118,4.118,0,0,1-3.917,5.924,7,7,0,0,1-.584,2.546,11.712,11.712,0,0,1-4.417,4.813,21.833,21.833,0,0,1-12.484,3.637l-.215-.083a2.85,2.85,0,0,1-.6.468,4.288,4.288,0,0,1-3.836.042,3.168,3.168,0,0,1-4.97,1.074,7.167,7.167,0,0,1-5.189,1.114,3.826,3.826,0,0,1-2.312-1.793l-.28.137a15.314,15.314,0,0,1-8.528-1.559,8.267,8.267,0,0,1-4.44-4.97l-.041.01a11.8,11.8,0,0,0-5.906.671,1.317,1.317,0,0,1-.669.141,1.291,1.291,0,0,1-.677-.453,24.058,24.058,0,0,0-9.168-5.86l-.023-.135a13.821,13.821,0,0,1-7.65-1.037l-3.1.292a4.488,4.488,0,0,1-7.6,2.138,5.41,5.41,0,0,1-4.507-.716,3.281,3.281,0,0,1-1.132-3.525,12.528,12.528,0,0,1-2.227-3.005,5.356,5.356,0,0,1-1.146-6.93,6.994,6.994,0,0,1,1.663-12.122,3.312,3.312,0,0,1,2.277-4.515c-1.093-.1-1.521-1.648-.958-2.592a4.638,4.638,0,0,1,2.724-1.722c-.936-1.155-.348-3.014.849-3.9a4.088,4.088,0,0,1,.464-.3,8.229,8.229,0,0,1,3.794-.77,12.958,12.958,0,0,1,4.191-1.89,14.436,14.436,0,0,1,11.068,1.635,18.944,18.944,0,0,0,3.894.431,12.858,12.858,0,0,1-2.448-3.31c-1.923-3.8-1.52-8.329-.855-12.54a11.431,11.431,0,0,1,1.443-4.581c1.474-2.24,4.223-3.206,6.775-4.028l2.714-.875,4.666-1.505A6.539,6.539,0,0,0,2199.136,1149.2Zm-4.564,15.117a3.97,3.97,0,0,0-.25-1.368l.019-.008a7.649,7.649,0,0,0-5.261-4.248,3.3,3.3,0,0,0-2.882.484,3.882,3.882,0,0,0-1,2.633,5.577,5.577,0,0,0,.524,3.484,4.231,4.231,0,0,0,4.6,1.48A11.59,11.59,0,0,0,2194.572,1164.32Z" transform="translate(-2154.027 -1118.436)"/></g><g transform="translate(146.287 100.832)"><path class="c" d="M2408.893,1307.723l.909.4a5.239,5.239,0,0,1-.524,2.6,1.593,1.593,0,1,1-2.887-1.327,5.121,5.121,0,0,1,1.478-1.9l-.035-.1a3.024,3.024,0,0,1,1.07-.157Z" transform="translate(-2406.268 -1307.244)"/></g><g transform="translate(104.867 59.194)"><path class="d" d="M2235.77,1144.6l-2.714.876c-2.552.822-5.3,1.788-6.775,4.028a11.432,11.432,0,0,0-1.443,4.581c-.664,4.21-1.068,8.737.855,12.54a12.861,12.861,0,0,0,2.449,3.31,18.932,18.932,0,0,1-3.893-.431,14.437,14.437,0,0,0-11.068-1.635l-.012-.043c2.751-7.048,2.734-14.477-4.165-22.767l-.37-.029a34.774,34.774,0,0,0,.979-4.635c2.335-15.674.271-19.027-3.442-34.293l.044-.01c2.521,4.424,7.756,8.363,11.807,11.445,7.922,6.032,15.171,13.912,17.224,23.614h0A18.54,18.54,0,0,0,2235.77,1144.6Z" transform="translate(-2206.17 -1106.09)"/></g><g transform="translate(125.194 101.891)"><path class="a" d="M2313.542,1316.732a3.958,3.958,0,0,1,.25,1.368,11.6,11.6,0,0,1-4.243,2.457,4.232,4.232,0,0,1-4.6-1.48,5.578,5.578,0,0,1-.524-3.484,3.883,3.883,0,0,1,1-2.633,3.3,3.3,0,0,1,2.881-.484,7.65,7.65,0,0,1,5.262,4.247Z" transform="translate(-2304.367 -1312.358)"/></g><g transform="translate(101.3 98.132)"><path class="d" d="M2195.337,1294.229c6.9,8.29,6.916,15.719,4.165,22.768l.013.043a12.965,12.965,0,0,0-4.192,1.89,8.231,8.231,0,0,0-3.794.77l-.218-.5q-.922-.832-1.89-1.6l.408-.242a30.732,30.732,0,0,1,.062-14.957l-.1-.13a12.555,12.555,0,0,0,1.482-1.3,16,16,0,0,0,3.691-6.769Z" transform="translate(-2188.936 -1294.2)"/></g><g transform="translate(23.816 39.778)"><path class="c" d="M1885.9,1014.285c1.9-.687,3.809-1.348,5.721-2,1.457,8.278,2.834,14.479,4.039,19.426,3.714,15.266,5.777,18.619,3.442,34.293a34.761,34.761,0,0,1-.979,4.635,16,16,0,0,1-3.691,6.769,12.58,12.58,0,0,1-1.482,1.3c-3.79,2.842-8.978,3.525-13.807,3.859a65.4,65.4,0,0,1-13.2-.427c-9.164-1.246-18.162-4.585-24.15-10.849l.019-.019a13.124,13.124,0,0,0-4.4-3.67,20.013,20.013,0,0,1-15.336-1.716c-4.809-2.865-8.048-8.5-7.379-14.057.269-2.24,1.418-4.663,3.589-5.27,2.024-.567,4.113.638,6.214.648l.309.23a10.945,10.945,0,0,0,1.354-1.327c3.739-1.209,7.481-2.455,11.126-3.9,1.962-.778,3.9-1.617,5.788-2.538,2.24-1.087,2.259-9.8,4.351-11.168.936-.609,7.1-1.784,8-2.442,4.256-3.115,5.109,1.373,9.462-1.616a69.011,69.011,0,0,1,8.021-4.7c1.987-1,4.016-1.921,6.075-2.784C1881.259,1016.01,1883.571,1015.126,1885.9,1014.285Zm3.587,16.876a2.744,2.744,0,1,0-2.742,2.745A2.744,2.744,0,0,0,1889.487,1031.162Zm-26.594,14.353a2.744,2.744,0,1,0-2.743,2.743A2.744,2.744,0,0,0,1862.892,1045.515Z" transform="translate(-1814.608 -1012.29)"/></g><g transform="translate(6.777 0.725)"><path class="d" d="M1826.344,862.674c-1.912.648-3.823,1.308-5.721,2a21.055,21.055,0,0,0-7.046,1.368,20.737,20.737,0,0,0-6,3.49l.052.606a69.02,69.02,0,0,0-8.021,4.7c-4.353,2.989-8.3,6.547-12.552,9.662a13.647,13.647,0,0,0,1.993-6.411,21.424,21.424,0,0,0-11.254,11.975c-1.89.921-3.825,1.759-5.788,2.538-3.645,1.445-7.388,2.691-11.126,3.9a10.927,10.927,0,0,1-1.354,1.327l-.308-.23c-2.1-.01-4.19-1.215-6.214-.648-2.171.607-3.32,3.03-3.589,5.27-.668,5.558,2.571,11.192,7.38,14.057a20.012,20.012,0,0,0,15.336,1.716,13.121,13.121,0,0,1,4.4,3.67l-.019.019c5.988,6.264,14.986,9.6,24.15,10.849l-.023.174c9.391,2.691,19.052,5.7,26.661,11.724q.969.764,1.89,1.6l.217.5a4.072,4.072,0,0,0-.463.3c-1.2.884-1.784,2.743-.849,3.9a4.638,4.638,0,0,0-2.724,1.722c-.563.944-.134,2.49.958,2.592a3.312,3.312,0,0,0-2.277,4.515,6.993,6.993,0,0,0-1.662,12.122,5.144,5.144,0,0,0-.545,4.422,11.083,11.083,0,0,1-2.364-1.424l-.07.091c-14.461-10.874-32.389-16.355-46.932-27.114a80.913,80.913,0,0,1-9.163-7.926c-12.919-12.941-21.652-29.994-27.108-47.586a86.633,86.633,0,0,1-3.519-15.473,58.42,58.42,0,0,1,.65-17.808c1.917-9.975,6.893-19.869,15.552-25.179l.054.033a19.785,19.785,0,0,0,3.422-2.086l-.13-.174c7.241-6.017,17.116-7.9,26.53-7.827,11.575.089,23.324,2.931,32.9,9.441s16.75,16.916,18.027,28.42l.021.062Q1828.027,862.108,1826.344,862.674Z" transform="translate(-1732.292 -823.62)"/></g><g transform="translate(75.124 106.203)"><path class="c" d="M2089.513,1333.19l.1.13a30.736,30.736,0,0,0-.062,14.958l-.408.242c-7.609-6.026-17.27-9.033-26.661-11.724l.023-.174a65.375,65.375,0,0,0,13.2.426C2080.536,1336.715,2085.723,1336.032,2089.513,1333.19Z" transform="translate(-2062.48 -1333.19)"/></g><g transform="translate(93.207 55.905)"><path class="c" d="M2152.585,1090.2a2.745,2.745,0,1,1-2.745,2.745A2.744,2.744,0,0,1,2152.585,1090.2Z" transform="translate(-2149.84 -1090.2)"/></g><g transform="translate(66.613 70.258)"><path class="c" d="M2024.1,1159.54a2.744,2.744,0,1,1-2.745,2.745A2.744,2.744,0,0,1,2024.1,1159.54Z" transform="translate(-2021.36 -1159.54)"/></g><g transform="translate(49.847 38.929)"><path class="e" d="M1974.313,1080.2a61.519,61.519,0,0,1-16.116-2.079c-7.5-2.052-13.433-5.431-17.644-10.045a.724.724,0,0,1,1.07-.977c7.875,8.629,21.425,11.643,32.854,11.644,1.49,0,2.941-.051,4.341-.147,5.575-.385,11.229-1.25,14.818-4.943,2.966-3.053,3.949-7.485,4.474-11,1.945-13.048.849-17.3-1.8-27.557-1.486-5.755-3.519-13.636-5.7-26.056a.725.725,0,0,1,1.427-.251c2.172,12.363,4.2,20.213,5.677,25.944,2.622,10.158,3.818,14.794,1.83,28.133-.557,3.735-1.613,8.451-4.868,11.8-3.929,4.043-9.9,4.974-15.757,5.379C1977.381,1080.148,1975.842,1080.2,1974.313,1080.2Z" transform="translate(-1940.364 -1008.186)"/></g><g transform="translate(23.095 73.178)"><path class="e" d="M1828.891,1197.059a19.485,19.485,0,0,1-9.948-2.59c-5.223-3.11-8.4-9.182-7.728-14.766.285-2.367,1.515-5.155,4.114-5.881a7.914,7.914,0,0,1,4.029.238,10.838,10.838,0,0,0,2.384.385.724.724,0,0,1,0,1.449h0a12.071,12.071,0,0,1-2.709-.424,6.749,6.749,0,0,0-3.306-.253c-1.913.535-2.847,2.844-3.065,4.659-.607,5.033,2.285,10.522,7.031,13.348a19.535,19.535,0,0,0,15.645,1.386.725.725,0,0,1,.436,1.382A22.892,22.892,0,0,1,1828.891,1197.059Z" transform="translate(-1811.125 -1173.644)"/></g><g transform="translate(56.893 66.637)"><path class="e" d="M1975.127,1151.607a.725.725,0,0,1-.654-1.035,15.457,15.457,0,0,1,16.948-8.169.725.725,0,0,1-.33,1.411,13.963,13.963,0,0,0-15.309,7.379A.724.724,0,0,1,1975.127,1151.607Z" transform="translate(-1974.403 -1142.045)"/></g><g transform="translate(88.65 51.304)"><path class="e" d="M2128.549,1077.3a.735.735,0,0,1-.252-.045.725.725,0,0,1-.427-.932,13.075,13.075,0,0,1,11.673-8.347.724.724,0,0,1,.037,1.448,11.6,11.6,0,0,0-10.352,7.4A.725.725,0,0,1,2128.549,1077.3Z" transform="translate(-2127.825 -1067.973)"/></g><g transform="translate(65.888 69.534)"><path class="e" d="M2021.328,1162.979a3.468,3.468,0,1,1,3.469-3.468A3.472,3.472,0,0,1,2021.328,1162.979Zm0-5.488a2.019,2.019,0,1,0,2.019,2.019A2.022,2.022,0,0,0,2021.328,1157.492Z" transform="translate(-2017.86 -1156.043)"/></g><g transform="translate(92.483 55.181)"><path class="e" d="M2149.81,1093.64a3.469,3.469,0,1,1,3.468-3.468A3.472,3.472,0,0,1,2149.81,1093.64Zm0-5.488a2.02,2.02,0,1,0,2.02,2.02A2.021,2.021,0,0,0,2149.81,1088.152Z" transform="translate(-2146.342 -1086.703)"/></g><g transform="translate(51.315 53.179)"><path class="e" d="M1948.182,1092.441a.725.725,0,0,1-.69-.948,21.97,21.97,0,0,1,15.929-14.446.724.724,0,0,1,.31,1.415,20.5,20.5,0,0,0-14.861,13.477A.725.725,0,0,1,1948.182,1092.441Z" transform="translate(-1947.457 -1077.029)"/></g><g transform="translate(81.341 41.044)"><path class="e" d="M2093.238,1024.717a.725.725,0,0,1-.466-1.28,21.725,21.725,0,0,1,15.457-4.973.725.725,0,1,1-.109,1.445,20.269,20.269,0,0,0-14.417,4.639A.721.721,0,0,1,2093.238,1024.717Z" transform="translate(-2092.514 -1018.405)"/></g><g transform="translate(82.687 58.383)"><path class="e" d="M2109.237,1125.5a.725.725,0,0,1-.685-.488,6.518,6.518,0,0,1,.464-4.246c.455-1.322.847-2.463.34-3.414a4.55,4.55,0,0,0-1.492-1.389l-.062-.044c-5.619-3.933-8.657-8.429-8.787-13a.725.725,0,0,1,.7-.745h.021a.725.725,0,0,1,.724.7c.147,5.175,4.524,9.3,8.17,11.855l.062.043a5.749,5.749,0,0,1,1.94,1.894c.805,1.507.246,3.133-.247,4.567a5.327,5.327,0,0,0-.465,3.3.725.725,0,0,1-.685.961Z" transform="translate(-2099.013 -1102.17)"/></g><g transform="translate(80.681 83.388)"><path class="e" d="M2091.148,1235.308q-.568,0-1.13-.026a.724.724,0,0,1,.066-1.447c8,.367,17.571-3.41,19.739-10.358a.725.725,0,0,1,1.383.432c-1.141,3.658-4.063,6.7-8.448,8.808A27.53,27.53,0,0,1,2091.148,1235.308Z" transform="translate(-2089.327 -1222.969)"/></g><g transform="translate(59.517 16.912)"><path class="e" d="M2002.432,936.365a.725.725,0,0,1-.7-.9,27.336,27.336,0,0,0-2.124-18.235,37.2,37.2,0,0,0-12.219-14.092.724.724,0,1,1,.838-1.182,38.652,38.652,0,0,1,12.688,14.651,28.786,28.786,0,0,1,2.222,19.207A.724.724,0,0,1,2002.432,936.365Z" transform="translate(-1987.08 -901.823)"/></g><g transform="translate(54.276 19.651)"><path class="e" d="M1968.119,958.882a.724.724,0,0,1-.529-1.219c2.775-2.971,2.908-7.571,2.815-11.649-.312-13.67-2.338-19.489-4.479-23.74a30.626,30.626,0,0,0-3.993-6.025.725.725,0,0,1,1.1-.938,32.063,32.063,0,0,1,4.182,6.311c3.754,7.45,4.446,16.11,4.634,24.359.1,4.364-.058,9.3-3.2,12.671A.723.723,0,0,1,1968.119,958.882Z" transform="translate(-1961.76 -915.055)"/></g><g transform="translate(66.388 13.848)"><path class="e" d="M2042.124,919.033a.724.724,0,0,1-.723-.682,35.826,35.826,0,0,0-20.7-29.943.725.725,0,0,1,.59-1.324,37.309,37.309,0,0,1,21.554,31.182.725.725,0,0,1-.681.765Z" transform="translate(-2020.274 -887.021)"/></g><g transform="translate(45.423 23.41)"><path class="e" d="M1919.716,981.091a.725.725,0,0,1-.669-1,69.44,69.44,0,0,0,2.371-45.942.724.724,0,1,1,1.389-.414,70.89,70.89,0,0,1-2.421,46.91A.725.725,0,0,1,1919.716,981.091Z" transform="translate(-1918.992 -933.216)"/></g><g transform="translate(34.989 36.377)"><path class="e" d="M1869.311,1033.188a.724.724,0,0,1-.484-1.264c4.263-3.82,7.12-9.645,8.045-16.4.933-6.812-.13-13.624-1.16-18.8a.725.725,0,1,1,1.421-.283c1.052,5.285,2.136,12.252,1.175,19.277-.972,7.1-4,13.235-8.514,17.285A.722.722,0,0,1,1869.311,1033.188Z" transform="translate(-1868.586 -995.858)"/></g><g transform="translate(78.399 13.779)"><path class="e" d="M2099.593,910.205a.725.725,0,0,1-.686-.491,36.632,36.632,0,0,0-20.165-21.635.724.724,0,1,1,.563-1.335,38.1,38.1,0,0,1,20.974,22.5.724.724,0,0,1-.686.958Z" transform="translate(-2078.299 -886.687)"/></g><g transform="translate(122.264 95.332)"><path class="e" d="M2316.476,1320.2a.726.726,0,0,1-.238-.04,110.7,110.7,0,0,1-14.847-6.424c-3.87-2.023-7.723-4.433-9.7-8.338-1.991-3.937-1.62-8.566-.923-12.98a11.961,11.961,0,0,1,1.552-4.866c1.555-2.359,4.273-3.389,7.159-4.32l7.824-2.522a.724.724,0,1,1,.445,1.379l-7.824,2.522c-2.63.848-5.1,1.772-6.393,3.738a10.8,10.8,0,0,0-1.33,4.294c-.659,4.175-1.021,8.53.785,12.1,1.79,3.54,5.42,5.8,9.076,7.708a109.21,109.21,0,0,0,14.652,6.339.725.725,0,0,1-.238,1.409Z" transform="translate(-2290.213 -1280.671)"/></g><g transform="translate(124.469 101.166)"><path class="e" d="M2305.534,1318.656a4.572,4.572,0,0,1-3.982-1.969,6.218,6.218,0,0,1-.63-3.933,4.512,4.512,0,0,1,1.237-3.111,3.94,3.94,0,0,1,3.512-.65,8.411,8.411,0,0,1,5.98,5.162.429.429,0,0,0,.107.572.725.725,0,0,1-.111,1.019,12.8,12.8,0,0,1-4.7,2.739A5.832,5.832,0,0,1,2305.534,1318.656Zm-1.072-8.349a2,2,0,0,0-1.343.421,3.3,3.3,0,0,0-.754,2.158,4.968,4.968,0,0,0,.415,3.032,3.539,3.539,0,0,0,3.813,1.161,10.744,10.744,0,0,0,3.824-2.2.716.716,0,0,1-.124-.213,6.931,6.931,0,0,0-4.927-4.253A4.428,4.428,0,0,0,2304.462,1310.307Z" transform="translate(-2300.864 -1308.859)"/></g><g transform="translate(146.713 100.106)"><path class="e" d="M2413.109,1313.6a.725.725,0,0,1-.623-1.095,7.32,7.32,0,0,0,1.031-3.018,4.374,4.374,0,0,0-1.041-3.425,2.677,2.677,0,0,0-3.079-.622.725.725,0,0,1-.695-1.272,4.111,4.111,0,0,1,4.815.885,5.756,5.756,0,0,1,1.443,4.566,8.66,8.66,0,0,1-1.228,3.625A.725.725,0,0,1,2413.109,1313.6Z" transform="translate(-2408.325 -1303.734)"/></g><g transform="translate(145.563 100.364)"><path class="e" d="M2404.863,1310.641a1.994,1.994,0,0,1-.995-.26,2.505,2.505,0,0,1-.93-3.025,5.826,5.826,0,0,1,1.666-2.182.724.724,0,0,1,1.023.038.749.749,0,0,1,.088.116.723.723,0,0,1,.7-.064l.908.4a.725.725,0,0,1,.434.683,5.9,5.9,0,0,1-.626,2.957A2.773,2.773,0,0,1,2404.863,1310.641Zm.645-4.329a4.282,4.282,0,0,0-1.206,1.535,1.1,1.1,0,0,0,.282,1.274c.4.229,1.033-.116,1.3-.566a3.8,3.8,0,0,0,.4-1.763l-.458-.2A.72.72,0,0,1,2405.507,1306.312Z" transform="translate(-2402.773 -1304.98)"/></g><g transform="translate(137.23 61.018)"><path class="e" d="M2364.3,1147.164a.725.725,0,0,1-.676-.463c-2.673-6.9-.4-15.562,5.653-21.549,4.8-4.751,11.778-7.968,20.728-9.561,4.1-.728,9.424-1.317,14.315.618.415.164.825.346,1.222.522a9.126,9.126,0,0,0,4.518,1.125c.408.015.831.031,1.254.072a11.027,11.027,0,0,1,7.939,4.683.725.725,0,1,1-1.195.82,9.562,9.562,0,0,0-6.884-4.061c-.381-.037-.764-.051-1.169-.066a10.483,10.483,0,0,1-5.052-1.248c-.383-.17-.779-.346-1.167-.5-4.553-1.8-9.621-1.234-13.528-.538-8.655,1.54-15.371,4.624-19.963,9.164a21.955,21.955,0,0,0-5.6,9.418,16.546,16.546,0,0,0,.284,10.578.725.725,0,0,1-.675.986Z" transform="translate(-2362.517 -1114.901)"/></g><g transform="translate(196.308 71.238)"><path class="e" d="M2664.851,1195.176a.724.724,0,0,1-.687-.953,18.035,18.035,0,0,0,.215-10.592c-.337-1.168-.782-1.849-1.362-2.08-.081-.032-.178-.061-.281-.092a2.382,2.382,0,0,1-1-.5,2.475,2.475,0,0,1-.626-1.789l-.006-.1a6.807,6.807,0,0,0-2.374-4.719c-.131-.11-.267-.216-.4-.322a4.83,4.83,0,0,1-1.922-2.522c-.048-.117-.1-.234-.148-.35a9.326,9.326,0,0,0-7.666-5.431.724.724,0,1,1,.108-1.445,10.811,10.811,0,0,1,8.886,6.3c.054.124.106.25.159.376a3.478,3.478,0,0,0,1.475,1.934c.149.117.3.233.443.354a8.285,8.285,0,0,1,2.888,5.741l.006.11c.017.308.039.691.166.809a1.352,1.352,0,0,0,.429.174c.122.037.261.078.4.134a4.286,4.286,0,0,1,2.217,3.024,19.491,19.491,0,0,1-.233,11.451A.724.724,0,0,1,2664.851,1195.176Z" transform="translate(-2647.922 -1164.274)"/></g><g transform="translate(192.433 105.089)"><path class="e" d="M2641.627,1372.584a8.369,8.369,0,0,1-5.377-2.4,20.765,20.765,0,0,1-6.58-19.861c.219-.971.511-1.928.794-2.853a25.515,25.515,0,0,0,1.005-4.06c.339-2.538-.312-4.768-1.741-5.964a.724.724,0,1,1,.93-1.111c1.813,1.517,2.653,4.233,2.248,7.267a26.926,26.926,0,0,1-1.056,4.292c-.275.9-.559,1.83-.767,2.749a19.283,19.283,0,0,0,6.11,18.441,6.976,6.976,0,0,0,4.513,2.052c1.621-.03,3.279-1.008,5.07-2.989a16.655,16.655,0,0,0,3.253-4.983,25.47,25.47,0,0,0,1.17-4.52l1.251-6.433c.743-3.82,1.273-7.491-.393-10.414l-.067-.116a3.351,3.351,0,0,1-.421-.955,3.427,3.427,0,0,1,.182-1.748l.033-.112a12.69,12.69,0,0,0-1.3-9.957.724.724,0,1,1,1.24-.749,14.162,14.162,0,0,1,1.448,11.113l-.035.117a2.268,2.268,0,0,0-.158,1.017,2.225,2.225,0,0,0,.26.547l.073.126c1.911,3.355,1.354,7.311.556,11.409l-1.252,6.432a26.533,26.533,0,0,1-1.245,4.778,18.065,18.065,0,0,1-3.525,5.419c-2.074,2.294-4.076,3.428-6.118,3.466Z" transform="translate(-2629.202 -1327.807)"/></g><g transform="translate(93.348 119.812)"><path class="e" d="M2155.745,1435.928a.72.72,0,0,1-.357-.094,5.8,5.8,0,0,1-2.707-3.766,5.914,5.914,0,0,1,.428-4,7.714,7.714,0,0,1,1.693-12.679,4,4,0,0,1,.351-2.722,4.124,4.124,0,0,1,1.341-1.55,2.407,2.407,0,0,1-.151-.256,2.748,2.748,0,0,1,.063-2.561,4.432,4.432,0,0,1,2.313-1.752,3.135,3.135,0,0,1-.127-1.4,4.03,4.03,0,0,1,1.576-2.682,7.691,7.691,0,0,1,4.457-1.2,15.09,15.09,0,0,1,16.076-.024.724.724,0,0,1-.793,1.213,13.57,13.57,0,0,0-14.638.125.726.726,0,0,1-.4.129,6.724,6.724,0,0,0-3.844.926,2.627,2.627,0,0,0-1,1.7,1.516,1.516,0,0,0,.285,1.161.724.724,0,0,1-.34,1.146,4.05,4.05,0,0,0-2.324,1.4,1.282,1.282,0,0,0-.015,1.162.535.535,0,0,0,.417.337.724.724,0,0,1,.06,1.435,2.594,2.594,0,0,0-1.755,3.48.724.724,0,0,1-.387,1,6.269,6.269,0,0,0-1.49,10.866.725.725,0,0,1,.165.989,4.585,4.585,0,0,0,1.456,6.262.725.725,0,0,1-.358,1.355Z" transform="translate(-2150.52 -1398.935)"/></g><g transform="translate(99.371 157.343)"><path class="e" d="M2189.412,1587.938a5.4,5.4,0,0,1-3.5-1.292,5.945,5.945,0,0,1-4.727-.929,4.157,4.157,0,0,1-1.536-2.728,3.293,3.293,0,0,1,.636-2.464.725.725,0,0,1,1.14.9,1.855,1.855,0,0,0-.338,1.391,2.716,2.716,0,0,0,.985,1.76,4.664,4.664,0,0,0,3.9.583.723.723,0,0,1,.683.2,3.764,3.764,0,0,0,6.384-1.839.724.724,0,0,1,1.417.3,5.342,5.342,0,0,1-3.656,3.928A5,5,0,0,1,2189.412,1587.938Z" transform="translate(-2179.615 -1580.249)"/></g><g transform="translate(100.114 150.799)"><path class="e" d="M2195.808,1552.24a.721.721,0,0,1-.442-.151,10.17,10.17,0,0,0-11.063-.651.725.725,0,1,1-.745-1.243,11.514,11.514,0,0,1,12.693.748.725.725,0,0,1-.443,1.3Z" transform="translate(-2183.206 -1548.637)"/></g><g transform="translate(115.142 159.457)"><path class="e" d="M2269.795,1593.492a5.277,5.277,0,0,1-1.73-.287c-.1-.035-.2-.073-.3-.111a2.611,2.611,0,0,0-.647-.191,2.645,2.645,0,0,0-.79.119l-.112.027a14.582,14.582,0,0,1-10.017-1.219.725.725,0,0,1,.669-1.286,13.109,13.109,0,0,0,9.008,1.1l.106-.026a3.055,3.055,0,0,1,2.3.126c.085.033.171.066.257.1a4.029,4.029,0,0,0,3.757-.644.725.725,0,0,1,.905,1.132A5.5,5.5,0,0,1,2269.795,1593.492Z" transform="translate(-2255.808 -1590.462)"/></g><g transform="translate(135.101 143.009)"><path class="e" d="M2369.216,1542.521a16.154,16.154,0,0,1-7.257-1.723c-2.671-1.355-5.143-4.007-4.954-7.014a5.494,5.494,0,0,1-2.617-6.115l.037-.126a1.709,1.709,0,0,0,.109-.575,1.367,1.367,0,0,0-.256-.172l-.136-.081c-1.695-1.042-2.641-3.815-1.215-6.478a13.438,13.438,0,0,1,4.244-4.226l.365-.269c1.489-1.1,3.126-2.425,3.7-4.236a.725.725,0,0,1,1.38.441c-.676,2.117-2.429,3.635-4.223,4.961l-.368.271a12.378,12.378,0,0,0-3.825,3.742c-.787,1.47-.695,3.7.7,4.559l.109.065a2.025,2.025,0,0,1,.755.657,2.08,2.08,0,0,1,.051,1.749l-.033.115a4.018,4.018,0,0,0,2.271,4.611.724.724,0,0,1,.447.8c-.432,2.5,1.756,4.835,4.116,6.032a14.669,14.669,0,0,0,8.122,1.485.724.724,0,1,1,.156,1.44A15.579,15.579,0,0,1,2369.216,1542.521Z" transform="translate(-2352.231 -1511.003)"/></g><g transform="translate(170.363 141.327)"><path class="e" d="M2523.749,1535.037q-.229,0-.458,0a.725.725,0,0,1,.015-1.449h.015a21.118,21.118,0,0,0,12.068-3.516,10.969,10.969,0,0,0,4.154-4.5,5.474,5.474,0,0,0-.459-5.522.725.725,0,0,1,.021-.937,4.011,4.011,0,0,0-1.869-6.509.725.725,0,0,1-.319-1.2,2.319,2.319,0,0,0,.075-2.661,6.6,6.6,0,0,0-2.576-2.175,24.842,24.842,0,0,0-5.59-2.266.724.724,0,0,1,.377-1.4,26.275,26.275,0,0,1,5.916,2.4,7.869,7.869,0,0,1,3.121,2.706,4.025,4.025,0,0,1,.289,3.556,5.448,5.448,0,0,1,2.024,8.045,6.994,6.994,0,0,1,.316,6.543,12.364,12.364,0,0,1-4.677,5.124A22.617,22.617,0,0,1,2523.749,1535.037Z" transform="translate(-2522.582 -1502.876)"/></g><g transform="translate(154.415 160.43)"><path class="e" d="M2446.261,1598.984a.724.724,0,0,1-.439-1.3,13.171,13.171,0,0,1,14.6-.6.724.724,0,1,1-.779,1.222,11.68,11.68,0,0,0-12.941.529A.721.721,0,0,1,2446.261,1598.984Z" transform="translate(-2445.536 -1595.164)"/></g><g transform="translate(152.84 169.017)"><path class="e" d="M2442.533,1643.869a5.436,5.436,0,0,1-1.349-.166,4.57,4.57,0,0,1-2.834-2.267,3.374,3.374,0,0,1-.222-2.777.724.724,0,0,1,1.355.513,1.947,1.947,0,0,0,.153,1.595,3.124,3.124,0,0,0,1.907,1.531,6.389,6.389,0,0,0,4.651-1.04.724.724,0,0,1,.874.12,2.453,2.453,0,0,0,3.776-.816.724.724,0,0,1,.974-.411,3.583,3.583,0,0,0,3.176-.007,2.122,2.122,0,0,0,1-2.492.724.724,0,1,1,1.334-.566,3.577,3.577,0,0,1-1.605,4.311,4.821,4.821,0,0,1-3.848.32,3.985,3.985,0,0,1-5.407,1.042A8.565,8.565,0,0,1,2442.533,1643.869Z" transform="translate(-2437.925 -1636.646)"/></g><g transform="translate(163.716 127.07)"><path class="e" d="M2492.755,1439.778a8.212,8.212,0,0,1-1.712-.177.724.724,0,1,1,.3-1.417c2.6.55,5.146-.549,7.844-1.711.794-.343,1.615-.7,2.429-1a23.606,23.606,0,0,1,10.856-1.328.724.724,0,1,1-.164,1.439,22.152,22.152,0,0,0-10.187,1.246c-.78.291-1.584.636-2.361.972C2497.5,1438.777,2495.177,1439.778,2492.755,1439.778Z" transform="translate(-2490.469 -1433.997)"/></g><g transform="translate(187.767 148.42)"><path class="e" d="M2607.666,1551.213q-.167,0-.334-.012a.725.725,0,1,1,.1-1.445,3.394,3.394,0,0,0,3.293-4.879.725.725,0,0,1,.641-1.043,4.31,4.31,0,0,0,3.042-.831,1.417,1.417,0,0,0,.262-1.352.587.587,0,0,0-.449-.456.724.724,0,0,1,.1-1.44c1.933-.022,3.888-.1,5.813-.238a5.129,5.129,0,0,0,2-.411,1.349,1.349,0,0,0,.8-1.168.725.725,0,1,1,1.442-.146,2.76,2.76,0,0,1-1.564,2.6,6.464,6.464,0,0,1-2.574.573c-1.392.1-2.8.168-4.2.208,0,.008.005.016.008.025a2.877,2.877,0,0,1-.6,2.82,4.692,4.692,0,0,1-3.064,1.223,4.834,4.834,0,0,1-4.72,5.976Z" transform="translate(-2606.66 -1537.14)"/></g><g transform="translate(123.533 160.972)"><path class="e" d="M2307.015,1605.552a1.415,1.415,0,0,1-.213-.016,1.952,1.952,0,0,1-1.086-.664,23.341,23.341,0,0,0-8.889-5.682.724.724,0,1,1,.483-1.366,24.8,24.8,0,0,1,9.444,6.036,1.4,1.4,0,0,0,.279.245,2.209,2.209,0,0,0,.267-.093l.021-.008a12.458,12.458,0,0,1,6.27-.712.724.724,0,0,1-.207,1.434,11.027,11.027,0,0,0-5.54.629l-.021.008A2.195,2.195,0,0,1,2307.015,1605.552Z" transform="translate(-2296.344 -1597.782)"/></g><g transform="translate(20.842 42.273)"><path class="e" d="M1804.12,1056.9a.725.725,0,0,1-.683-.482,56.456,56.456,0,0,1-1.726-31.518.724.724,0,1,1,1.41.333,55,55,0,0,0,1.682,30.7.725.725,0,0,1-.683.967Z" transform="translate(-1800.241 -1024.342)"/></g><g transform="translate(6.051 10.055)"><path class="e" d="M1816.629,1011.232a.723.723,0,0,1-.435-.145c-7.256-5.456-15.559-9.628-23.588-13.663-7.913-3.977-16.1-8.089-23.34-13.449-16.3-12.064-28.936-31.386-36.532-55.878a86.679,86.679,0,0,1-3.547-15.6,58.971,58.971,0,0,1,.658-18.028,46.52,46.52,0,0,1,5.334-14.568,31.243,31.243,0,0,1,10.551-11.092.724.724,0,0,1,.758,1.235,29.815,29.815,0,0,0-10.058,10.589,45.047,45.047,0,0,0-5.162,14.11,57.509,57.509,0,0,0-.642,17.585,85.257,85.257,0,0,0,3.491,15.344c5.233,16.872,15.728,40.134,36.01,55.142,7.143,5.285,15.27,9.369,23.129,13.319,8.086,4.064,16.447,8.266,23.808,13.8a.725.725,0,0,1-.436,1.3Z" transform="translate(-1728.784 -868.697)"/></g><g transform="translate(74.399 109.083)"><path class="e" d="M2088.252,1361.877a.723.723,0,0,1-.486-.187c-7.567-6.847-17.687-10.134-28.264-13.163a.725.725,0,1,1,.4-1.393c10.747,3.078,21.04,6.426,28.837,13.482a.725.725,0,0,1-.486,1.262Z" transform="translate(-2058.977 -1347.105)"/></g><g transform="translate(38.205 101.757)"><path class="e" d="M1933.58,1347.051a.721.721,0,0,1-.3-.066c-13.461-6.143-27.38-12.5-38.772-22.492a54.305,54.305,0,0,1-10.274-11.672.724.724,0,1,1,1.223-.776,52.9,52.9,0,0,0,10.006,11.359c11.231,9.856,25.052,16.163,38.417,22.263a.725.725,0,0,1-.3,1.384Z" transform="translate(-1884.122 -1311.709)"/></g><g transform="translate(25.996)"><path class="e" d="M1903.317,859.434a.725.725,0,0,1-.719-.645c-1.192-10.741-7.814-21.172-17.714-27.9-8.822-6-20.059-9.219-32.5-9.315-11.07-.083-19.843,2.492-26.061,7.659a.725.725,0,0,1-.927-1.114c6.489-5.392,15.58-8.084,27-7.993,12.724.1,24.238,3.406,33.3,9.565,10.245,6.966,17.1,17.785,18.34,28.942a.726.726,0,0,1-.721.8Z" transform="translate(-1825.139 -820.12)"/></g><g transform="translate(104.185 58.469)"><path class="e" d="M2232.771,1139.8a.725.725,0,0,1-.712-.594c-1.541-8.383-7.291-16.415-17.09-23.874l-.214-.163c-4.114-3.131-9.234-7.027-11.784-11.5a.724.724,0,1,1,1.259-.718c2.4,4.218,7.394,8.014,11.4,11.065l.215.164c10.1,7.684,16.03,16.016,17.638,24.765a.725.725,0,0,1-.713.856Z" transform="translate(-2202.875 -1102.586)"/></g><g transform="translate(111.787 80.941)"><path class="e" d="M2249.585,1226.871a.725.725,0,0,1-.72-.655,18,18,0,0,0-8.9-13.715.724.724,0,1,1,.715-1.26,19.465,19.465,0,0,1,9.626,14.835.724.724,0,0,1-.651.791C2249.632,1226.87,2249.608,1226.871,2249.585,1226.871Z" transform="translate(-2239.598 -1211.147)"/></g><g transform="translate(106.977 97.436)"><path class="e" d="M2221.248,1315.053a.725.725,0,0,1-.674-.989c3.115-7.976,1.829-14.98-4.046-22.041a.724.724,0,1,1,1.114-.927c6.249,7.51,7.609,14.975,4.282,23.495A.725.725,0,0,1,2221.248,1315.053Z" transform="translate(-2216.359 -1290.836)"/></g><g transform="translate(185.332 165.923)"><path class="e" d="M2621.68,1640.094a4.072,4.072,0,0,1-2.582-1.331,65.762,65.762,0,0,1-4.721-5.263,55.418,55.418,0,0,0-5.421-5.9c-4.255-3.806-9.155-5.3-13.108-3.994a.724.724,0,0,1-.454-1.376c4.451-1.469,9.882.135,14.528,4.291a56.472,56.472,0,0,1,5.567,6.048,64.661,64.661,0,0,0,4.615,5.148,3.1,3.1,0,0,0,1.4.908,9.617,9.617,0,0,0-.925-5.809.724.724,0,0,1,1.292-.656,11.064,11.064,0,0,1,.955,7.291.725.725,0,0,1-.493.541A2.181,2.181,0,0,1,2621.68,1640.094Z" transform="translate(-2594.896 -1621.7)"/></g><g transform="translate(206.016 151.843)"><path class="e" d="M2699.887,1653.362a.724.724,0,0,1-.518-1.231c5.872-6,10.288-13.611,13.5-23.267,2.482-7.467,4.235-16.131,5.515-27.267,1.058-9.2,1.9-19.8-1.573-29.322-3-8.238-10.935-17.118-21.264-17.148a.724.724,0,0,1,0-1.449h0a21.579,21.579,0,0,1,13.9,5.475,30.412,30.412,0,0,1,8.719,12.626c3.576,9.816,2.727,20.623,1.651,29.982-1.292,11.239-3.065,20-5.58,27.56-3.282,9.869-7.808,17.662-13.838,23.823A.722.722,0,0,1,2699.887,1653.362Z" transform="translate(-2694.824 -1553.677)"/></g><g transform="translate(100.344 254.525)"><path class="e" d="M2230.346,2068.961c-16.554,0-31.782-2.389-45.544-7.162a.724.724,0,0,1,.474-1.369c23.6,8.184,51.6,9.281,83.234,3.26,4.377-.833,8.994-1.825,13.1-3.946,4.444-2.3,7.624-5.677,8.952-9.517a.724.724,0,1,1,1.369.474c-1.451,4.194-4.881,7.863-9.656,10.331-4.278,2.211-9.012,3.229-13.493,4.082A205.952,205.952,0,0,1,2230.346,2068.961Z" transform="translate(-2184.315 -2049.738)"/></g><g transform="translate(53.689 227.612)"><path class="e" d="M2020.3,1974.948a66.927,66.927,0,0,1-16.374-1.979,51.612,51.612,0,0,1-20.063-9.765c-13.359-10.808-19.757-28.386-24.9-42.51a.725.725,0,1,1,1.362-.5c5.08,13.956,11.4,31.324,24.447,41.88a50.18,50.18,0,0,0,19.506,9.487,68.4,68.4,0,0,0,21.993,1.689c12.527-1.021,17.809-3.99,21.886-8.132a.725.725,0,1,1,1.033,1.017c-5.95,6.047-13.418,7.795-22.8,8.56Q2023.321,1974.948,2020.3,1974.948Z" transform="translate(-1958.927 -1919.72)"/></g><g transform="translate(24.918 134.872)"><path class="e" d="M1847.952,1558.943a.721.721,0,0,1-.5-.2,132.364,132.364,0,0,1-13.337-14.511,73.779,73.779,0,0,1-10.051-16.871,52.784,52.784,0,0,1-4.127-19.387,39.6,39.6,0,0,1,4.309-19.1,32.983,32.983,0,0,1,14.094-13.886,27.366,27.366,0,0,1,19.236-2.534.724.724,0,0,1-.36,1.4,25.923,25.923,0,0,0-18.214,2.419,31.52,31.52,0,0,0-13.471,13.268,38.17,38.17,0,0,0-4.144,18.413,51.32,51.32,0,0,0,4.015,18.849c2.647,6.344,7.916,16.449,23.05,30.891a.724.724,0,0,1-.5,1.249Z" transform="translate(-1819.933 -1471.691)"/></g><g transform="translate(80.895 231.524)"><path class="e" d="M2124.024,1945.856a96.762,96.762,0,0,1-33.192-5.831.724.724,0,1,1,.5-1.36,95.664,95.664,0,0,0,55.917,2.868.725.725,0,0,1,.356,1.4A95.931,95.931,0,0,1,2124.024,1945.856Z" transform="translate(-2090.356 -1938.62)"/></g><g transform="translate(42.25 172.291)"><path class="e" d="M1910.774,1666.387a51.01,51.01,0,0,1-6.478-.4.724.724,0,1,1,.183-1.437c17.609,2.25,35.479-5.663,49.838-12.022a.725.725,0,0,1,.587,1.325C1942.124,1659.509,1926.591,1666.387,1910.774,1666.387Z" transform="translate(-1903.663 -1652.461)"/></g><g transform="translate(67.978 171.114)"><path class="e" d="M2028.681,1683.62a.724.724,0,0,1-.045-1.447c15.855-1,28.01-3.653,38.252-8.355,13-5.967,22.741-15.412,27.435-26.6a.724.724,0,1,1,1.336.561c-4.834,11.519-14.837,21.233-28.166,27.352-10.409,4.779-22.728,7.475-38.766,8.485Z" transform="translate(-2027.957 -1646.777)"/></g><g transform="translate(34.23 165.217)"><path class="e" d="M1867.5,1627.219q-.942,0-1.884-.03a.724.724,0,0,1,.023-1.448h.023a57.547,57.547,0,0,0,30.052-7.359.725.725,0,1,1,.71,1.263A59.02,59.02,0,0,1,1867.5,1627.219Z" transform="translate(-1864.919 -1618.289)"/></g><g transform="translate(208.251 193.452)"><path class="e" d="M2706.342,1809.672a.727.727,0,0,1-.7-.91c3.3-12.519,2.1-25.827.944-38.7-.317-3.515-.644-7.15-.875-10.712a5.4,5.4,0,0,1,1.225-4.083,2.129,2.129,0,0,1,1.811-.552.724.724,0,0,1-.216,1.433.687.687,0,0,0-.615.187,4.111,4.111,0,0,0-.759,2.922c.229,3.543.556,7.168.872,10.675,1.171,12.995,2.381,26.431-.986,39.2A.725.725,0,0,1,2706.342,1809.672Z" transform="translate(-2705.617 -1754.692)"/></g><g transform="translate(0 116.034)"><path class="e" d="M1702.28,1433.711a.724.724,0,0,1-.7-.552,71.222,71.222,0,0,1-1.286-27.077c1.177-8.021,3.542-11.552,5.218-13.51,3.479-4.064,8.564-6.069,13.542-7.63a120.472,120.472,0,0,1,18.652-4.252.724.724,0,1,1,.209,1.434,119.089,119.089,0,0,0-18.427,4.2c-4.771,1.5-9.633,3.4-12.874,7.189-3.219,3.761-4.3,8.8-4.885,12.779a69.793,69.793,0,0,0,1.06,25.686,7.8,7.8,0,0,0,3.264-3.586c8-14.354,15.551-26.981,27.025-36.147a.724.724,0,1,1,.9,1.132c-11.267,9-18.742,21.5-26.663,35.72-1.242,2.23-2.423,3.693-4.782,4.568A.719.719,0,0,1,1702.28,1433.711Z" transform="translate(-1699.552 -1380.682)"/></g><g transform="translate(1.359 166.605)"><path class="e" d="M1737.689,1671.314c-.063,0-.126,0-.189-.005a6.458,6.458,0,0,1-2.946-1.113,61.882,61.882,0,0,1-28.113-38.563c-.754-3.238-.181-5.564,1.616-6.548a.724.724,0,1,1,.7,1.271c-1.644.9-1.178,3.761-.9,4.949a60.434,60.434,0,0,0,27.447,37.649,5.212,5.212,0,0,0,2.276.909,3.465,3.465,0,0,0,2.981-2.05,11.62,11.62,0,0,0,.925-4.252.724.724,0,0,1,1.443.132,12.877,12.877,0,0,1-1.079,4.781A4.869,4.869,0,0,1,1737.689,1671.314Z" transform="translate(-1706.117 -1624.996)"/></g><g transform="translate(36.323 206.95)"><path class="e" d="M1891.159,1899.966a.726.726,0,0,1-.659-.423,170.6,170.6,0,0,1-15.279-78.952.725.725,0,0,1,1.447.069,169.141,169.141,0,0,0,15.149,78.279.725.725,0,0,1-.658,1.027Z" transform="translate(-1875.03 -1819.901)"/></g><g transform="translate(45.882 282.315)"><path class="e" d="M1926.522,2229.677a.725.725,0,0,1-.665-.436,58.193,58.193,0,0,1-.323-44.8.724.724,0,0,1,1.337.559,56.714,56.714,0,0,0,.316,43.667.725.725,0,0,1-.664,1.014Z" transform="translate(-1921.209 -2183.991)"/></g><g transform="translate(100.574 105.61)"><path class="e" d="M2187.046,1346.73a.725.725,0,0,1-.7-.55,31.409,31.409,0,0,1,.063-15.311.725.725,0,1,1,1.4.36,29.953,29.953,0,0,0-.06,14.6.724.724,0,0,1-.529.877A.714.714,0,0,1,2187.046,1346.73Z" transform="translate(-2185.427 -1330.324)"/></g><g transform="translate(102.299 105.314)"><path class="e" d="M2196.59,1342.981a.725.725,0,0,1-.676-.984,12.246,12.246,0,0,0-1.985-11.912.724.724,0,1,1,1.112-.929,13.55,13.55,0,0,1,2.226,13.361A.725.725,0,0,1,2196.59,1342.981Z" transform="translate(-2193.76 -1328.895)"/></g><g transform="translate(223.855 227.55)"><path class="e" d="M2781.728,1936.723a.725.725,0,0,1-.327-1.371c1.394-.7,1.566-2.845,1.464-4.516a47.614,47.614,0,0,0-1.831-10.484.724.724,0,1,1,1.39-.407,49.049,49.049,0,0,1,1.886,10.8c.187,3.062-.573,5.046-2.256,5.9A.717.717,0,0,1,2781.728,1936.723Z" transform="translate(-2781.003 -1919.424)"/></g><g transform="translate(220.662 242.356)"><path class="e" d="M2766.3,2002.244a.725.725,0,0,1-.557-1.187,8.023,8.023,0,0,0,.685-9.007.725.725,0,0,1,1.242-.747,9.512,9.512,0,0,1-.812,10.679A.723.723,0,0,1,2766.3,2002.244Z" transform="translate(-2765.579 -1990.952)"/></g><g transform="translate(200.118 250.961)"><path class="e" d="M2667.053,2046.043a.725.725,0,0,1-.007-1.449l2.913-.027c2.255-.021,4.773-.176,6.122-1.751.064-.075.126-.153.188-.232a2.681,2.681,0,0,1,2.529-1.228c.127,0,.254-.008.379-.018a4.787,4.787,0,0,0,3.679-2.883,12.978,12.978,0,0,0,.942-5.229.724.724,0,1,1,1.448.035,14.236,14.236,0,0,1-1.082,5.815,6.161,6.161,0,0,1-4.875,3.706c-.147.012-.3.017-.446.021a1.333,1.333,0,0,0-1.44.68c-.073.092-.146.184-.222.273-1.743,2.038-4.635,2.234-7.209,2.258l-2.913.027Z" transform="translate(-2666.329 -2032.521)"/></g><g transform="translate(175.735 270.269)"><path class="e" d="M2568.282,2135.847a.679.679,0,0,1-.086-.005c-4.608-.544-8.85-2.85-12.591-4.884-1.341-.729-2.369-1.329-3.365-1.91s-2.006-1.17-3.328-1.889a.725.725,0,0,1,.692-1.273c1.342.729,2.371,1.33,3.367,1.911s2.005,1.17,3.327,1.889c3.626,1.972,7.737,4.207,12.069,4.719a.724.724,0,0,1-.084,1.444Z" transform="translate(-2548.533 -2125.797)"/></g><g transform="translate(172.324 270.226)"><path class="e" d="M2548.186,2140.462a7.574,7.574,0,0,1-3.256-.665,11.793,11.793,0,0,1-3.4-2.779l-3.979-4.216c-1.814-1.922-3.689-3.909-5.347-6.042a.724.724,0,0,1,1.144-.889c1.616,2.078,3.467,4.04,5.257,5.936l3.979,4.216a10.541,10.541,0,0,0,2.959,2.463c1.849.872,4.077.515,6.013.052a.725.725,0,1,1,.337,1.409A16.131,16.131,0,0,1,2548.186,2140.462Z" transform="translate(-2532.056 -2125.592)"/></g><g transform="translate(173.084 259.783)"><path class="e" d="M2548.987,2103.124a8.286,8.286,0,0,1-2.538-.369,11.878,11.878,0,0,1-4.747-3.361c-3.972-4.115-5.927-7.964-5.976-11.764a.725.725,0,0,1,.715-.734h.01a.724.724,0,0,1,.724.715c.044,3.415,1.866,6.94,5.57,10.777a10.624,10.624,0,0,0,4.144,2.987,11.358,11.358,0,0,0,5.692-.18,103.28,103.28,0,0,0,16.937-5.141c3.779-1.513,8.081-3.492,11.343-6.7,1.838-1.81,2.772-3.592,2.776-5.3.007-3.336-3.32-5.693-6.575-7.557a.725.725,0,0,1,.72-1.258c3.616,2.072,7.312,4.74,7.3,8.818,0,2.105-1.084,4.233-3.208,6.325-3.444,3.393-7.908,5.452-11.821,7.018a104.627,104.627,0,0,1-17.176,5.213A18.981,18.981,0,0,1,2548.987,2103.124Z" transform="translate(-2535.727 -2075.141)"/></g><g transform="translate(202.658 257.077)"><path class="e" d="M2685.62,2093.036a25.88,25.88,0,0,1-6.476-.813.724.724,0,0,1,.363-1.4,25.537,25.537,0,0,0,22.123-4.828,12.478,12.478,0,0,0,4.6-6.415c.73-2.939-.24-6.465-2.6-9.434-2.188-2.757-5.187-4.787-8.087-6.75a.725.725,0,0,1,.812-1.2c2.991,2.024,6.083,4.117,8.41,7.049,2.634,3.318,3.706,7.312,2.868,10.684a13.865,13.865,0,0,1-5.089,7.189A27.037,27.037,0,0,1,2685.62,2093.036Z" transform="translate(-2678.601 -2062.07)"/></g><g transform="translate(228.992 207.671)"><path class="e" d="M2807.982,1888.5a.725.725,0,0,1-.6-1.134,35.519,35.519,0,0,1,3.832-4.46c.9-.94,1.837-1.911,2.666-2.924,5.694-6.958,7.567-17.546,5.011-28.322-2.258-9.519-7.207-17.933-12.962-27.161a.725.725,0,0,1,1.229-.767c5.824,9.339,10.833,17.861,13.142,27.594,2.66,11.213.679,22.268-5.3,29.574-.865,1.057-1.819,2.05-2.742,3.01a34.449,34.449,0,0,0-3.681,4.273A.724.724,0,0,1,2807.982,1888.5Z" transform="translate(-2805.822 -1823.387)"/></g><g transform="translate(190.435 285.512)"><path class="e" d="M2642.616,2241.927a.725.725,0,0,1-.7-.535,86.282,86.282,0,0,0-19.4-35.286c-1.365-1.5-3.234-3.547-2.934-6.03a.724.724,0,0,1,1.438.174c-.2,1.686,1.042,3.208,2.567,4.88a87.736,87.736,0,0,1,19.727,35.881.725.725,0,0,1-.509.889A.716.716,0,0,1,2642.616,2241.927Z" transform="translate(-2619.551 -2199.439)"/></g><g transform="translate(209.353 286.939)"><path class="e" d="M2719.461,2233.5a.724.724,0,0,1-.643-1.058,11.2,11.2,0,0,0,.177-9.753.725.725,0,0,1,.455-1.006l2.017-.579a22.225,22.225,0,0,0-10.164-13.423.725.725,0,0,1,.729-1.253,23.669,23.669,0,0,1,11.01,15.022.724.724,0,0,1-.507.855l-1.895.544a12.71,12.71,0,0,1-.535,10.259A.725.725,0,0,1,2719.461,2233.5Z" transform="translate(-2710.945 -2206.33)"/></g><g transform="translate(212.238 309.195)"><path class="e" d="M2731.831,2323.3a.741.741,0,0,1-.135-.012,8.574,8.574,0,0,1-6.8-8.761.724.724,0,0,1,1.446.1,7.18,7.18,0,0,0,5.619,7.241.724.724,0,0,1-.133,1.437Z" transform="translate(-2724.883 -2313.851)"/></g><g transform="translate(211.171 316.489)"><path class="e" d="M2720.452,2354.957a.724.724,0,0,1-.582-1.155,6.108,6.108,0,0,0,1.167-3.942.725.725,0,1,1,1.446-.089,7.577,7.577,0,0,1-1.448,4.893A.724.724,0,0,1,2720.452,2354.957Z" transform="translate(-2719.728 -2349.09)"/></g><g transform="translate(135.438 136.333)"><path class="e" d="M2354.582,1490.005a.725.725,0,0,1-.7-.907,20.217,20.217,0,0,0,.163-9.468.725.725,0,0,1,1.414-.317,21.678,21.678,0,0,1-.175,10.149A.725.725,0,0,1,2354.582,1490.005Z" transform="translate(-2353.857 -1478.747)"/></g><g transform="translate(74.428 281.593)"><path class="e" d="M2059.843,2210.524a.725.725,0,0,1-.525-1.223,64.871,64.871,0,0,0,15.689-28.252.725.725,0,1,1,1.4.365,66.324,66.324,0,0,1-16.041,28.884A.723.723,0,0,1,2059.843,2210.524Z" transform="translate(-2059.118 -2180.508)"/></g><g transform="translate(182.601 292.791)"><path class="e" d="M2589.208,2264.815a.724.724,0,0,1-.723-.695,77.911,77.911,0,0,0-6.717-28.5.724.724,0,1,1,1.321-.594,79.36,79.36,0,0,1,6.843,29.032.725.725,0,0,1-.694.753Z" transform="translate(-2581.704 -2234.602)"/></g><g transform="translate(96.127 280.412)"><path class="e" d="M2164.67,2197.683a.725.725,0,0,1-.627-1.087,57.216,57.216,0,0,0,7.119-21.162.724.724,0,1,1,1.437.183,58.69,58.69,0,0,1-7.3,21.7A.726.726,0,0,1,2164.67,2197.683Z" transform="translate(-2163.946 -2174.801)"/></g></svg>