<svg xmlns="http://www.w3.org/2000/svg" width="20.003" height="15.999" viewBox="0 0 20.003 15.999"><defs><style>.a{fill:#fff;}</style></defs><g transform="translate(-0.001 -0.004)"><g transform="translate(3.965 7.268)"><path class="a" d="M184.254,371.7c-3.392,0-6.394,4.144-5.385,6.891a2.758,2.758,0,0,0,.415.762h0a2.769,2.769,0,0,0,3.759.6c.057-.039.111-.079.165-.122a1.907,1.907,0,0,1,2.092,0q.08.064.165.122a2.772,2.772,0,0,0,3.759-.6h0a2.769,2.769,0,0,0,.415-.762C190.648,375.844,187.645,371.7,184.254,371.7Z" transform="translate(-178.671 -371.7)"/></g><g transform="translate(4.775 0.061)"><path class="a" d="M1.972,0C3.061,0,3.944,1.474,3.944,3.294S3.061,6.588,1.972,6.587,0,5.113,0,3.294.882,0,1.972,0Z" transform="translate(0 0.523) rotate(-7.614)"/></g><g transform="translate(10.224 0.003)"><path class="a" d="M3.287,0C5.1,0,6.575.884,6.575,1.975S5.1,3.951,3.287,3.951,0,3.067,0,1.975,1.471,0,3.287,0Z" transform="translate(0 6.474) rotate(-79.922)"/></g><g transform="translate(14.065 4.753)"><path class="a" d="M2.441,0a2.262,2.262,0,0,1,2.442,2.02A2.261,2.261,0,0,1,2.441,4.038,2.262,2.262,0,0,1,0,2.018,2.261,2.261,0,0,1,2.441,0Z" transform="matrix(0.5, -0.866, 0.866, 0.5, 0, 4.231)"/></g><g transform="translate(0.002 4.134)"><path class="a" d="M1.939,0A2.144,2.144,0,0,1,3.88,2.3,2.144,2.144,0,0,1,1.94,4.6,2.144,2.144,0,0,1,0,2.3,2.144,2.144,0,0,1,1.939,0Z" transform="matrix(0.926, -0.377, 0.377, 0.926, 0, 1.463)"/></g></g></svg>
