<svg xmlns="http://www.w3.org/2000/svg" xmlns:xlink="http://www.w3.org/1999/xlink" width="50" height="50" viewBox="0 0 50 50"><defs><style>.a{fill:#094f71;}.b{fill:#fff;}.c{fill:#0999d6;}.d{filter:url(#c);}.e{filter:url(#a);}</style><filter id="a" x="0" y="0" width="50" height="50" filterUnits="userSpaceOnUse"><feOffset dy="3" input="SourceAlpha"/><feGaussianBlur stdDeviation="3" result="b"/><feFlood flood-opacity="0.161"/><feComposite operator="in" in2="b"/><feComposite in="SourceGraphic"/></filter><filter id="c" x="4" y="4" width="42" height="42" filterUnits="userSpaceOnUse"><feOffset dy="3" input="SourceAlpha"/><feGaussianBlur stdDeviation="3" result="d"/><feFlood flood-opacity="0.161"/><feComposite operator="in" in2="d"/><feComposite in="SourceGraphic"/></filter></defs><g transform="translate(9 6)"><g class="e" transform="matrix(1, 0, 0, 1, -9, -6)"><circle class="a" cx="16" cy="16" r="16" transform="translate(9 6)"/></g><g class="d" transform="matrix(1, 0, 0, 1, -9, -6)"><circle class="b" cx="12" cy="12" r="12" transform="translate(13 10)"/></g><g transform="translate(6 8)"><g transform="translate(4.039 7.401)"><path class="c" d="M184.358,371.7c-3.455,0-6.514,4.222-5.486,7.021a2.811,2.811,0,0,0,.423.777h0a2.82,2.82,0,0,0,3.829.612c.058-.039.113-.081.168-.124a1.942,1.942,0,0,1,2.131,0q.081.065.168.124a2.824,2.824,0,0,0,3.829-.612h0a2.822,2.822,0,0,0,.423-.777C190.872,375.922,187.814,371.7,184.358,371.7Z" transform="translate(-178.671 -371.7)"/></g><g transform="translate(4.863 0.059)"><ellipse class="c" cx="2.009" cy="3.356" rx="2.009" ry="3.356" transform="translate(0 0.532) rotate(-7.614)"/></g><g transform="translate(10.415)"><ellipse class="c" cx="3.35" cy="2.013" rx="3.35" ry="2.013" transform="translate(0 6.596) rotate(-79.922)"/></g><g transform="translate(14.326 4.84)"><ellipse class="c" cx="2.488" cy="2.057" rx="2.488" ry="2.057" transform="matrix(0.5, -0.866, 0.866, 0.5, 0, 4.31)"/></g><g transform="translate(0 4.21)"><ellipse class="c" cx="1.977" cy="2.345" rx="1.977" ry="2.345" transform="matrix(0.926, -0.377, 0.377, 0.926, 0, 1.489)"/></g></g></g></svg>