<svg xmlns="http://www.w3.org/2000/svg" width="84.455" height="20" viewBox="0 0 84.455 20"><defs><style>.a{fill:#fff;}</style></defs><path class="a" d="M10.756,0a4.812,4.812,0,0,0,.736.1,10.027,10.027,0,0,1,4.85,2.131c.132.106.042.151-.021.216L11.948,6.985C11.163,7.8,10.377,8.613,9.6,9.431c-.1.107-.154.13-.276.012C8.336,8.492,7.341,7.55,6.349,6.6a1.082,1.082,0,0,0-1.156-.277,1.109,1.109,0,0,0-.407,1.852q1.944,1.863,3.9,3.717a1.1,1.1,0,0,0,1.654-.041q3.723-3.865,7.444-7.735c.2-.2.2-.2.358.02a10.048,10.048,0,0,1-5.652,15.63c-.37.093-.747.154-1.12.231H8.672c-.308-.062-.618-.118-.924-.188A10.019,10.019,0,0,1,.62,6.638,9.775,9.775,0,0,1,8.619.1,3.662,3.662,0,0,0,9.284,0ZM9.627,14.832h3.679a1.11,1.11,0,1,0,.009-2.22c-.455-.011-.909,0-1.364,0q-2.96,0-5.922,0a1.136,1.136,0,0,0-1,.468,1.056,1.056,0,0,0-.095,1.136,1.034,1.034,0,0,0,.975.617C7.151,14.835,8.389,14.832,9.627,14.832Z" transform="translate(-0.001)"/><path class="a" d="M870.681,59.456a.824.824,0,0,0-.044.074,1.2,1.2,0,0,1-1.319.706,1.23,1.23,0,0,1-1.007-1.131c-.009-.107-.01-.216-.01-.322q0-3.966,0-7.931a2.04,2.04,0,0,1,.062-.586,1.181,1.181,0,0,1,1.061-.855,1.161,1.161,0,0,1,1.2.679,1.182,1.182,0,0,0,.061.1Q870.681,54.824,870.681,59.456Z" transform="translate(-786.226 -44.735)"/><path class="a" d="M623.238,54.809V50.878a2.082,2.082,0,0,1,.07-.639,1.185,1.185,0,0,1,1.233-.841,1.163,1.163,0,0,1,1.11.95,2.143,2.143,0,0,1,.041.445c0,.88,0,1.759,0,2.639,0,.136.034.166.167.165q1.8-.009,3.609,0c.135,0,.169-.034.168-.168-.007-.868,0-1.735,0-2.6a1.942,1.942,0,0,1,.067-.585,1.192,1.192,0,0,1,1.25-.844,1.165,1.165,0,0,1,1.1.979,2.214,2.214,0,0,1,.035.41q0,4.021,0,8.043a1.963,1.963,0,0,1-.054.5,1.189,1.189,0,0,1-1.305.907,1.226,1.226,0,0,1-1.082-1.136c-.01-.119-.011-.239-.012-.358q0-1.374,0-2.747c0-.087.011-.162-.122-.162q-1.849.006-3.7,0c-.138,0-.118.078-.118.162,0,.981,0,1.962,0,2.944a1.276,1.276,0,0,1-.424,1.009,1.158,1.158,0,0,1-1.259.2,1.2,1.2,0,0,1-.756-1.068c-.012-.125-.01-.251-.01-.376Q623.236,56.758,623.238,54.809Z" transform="translate(-564.328 -44.726)"/><path class="a" d="M753.633,53.1c.487-.477.968-.941,1.44-1.414.7-.7,1.4-1.41,2.1-2.115a2.515,2.515,0,0,1,.637-.491,1.144,1.144,0,0,1,1.366.229,1.125,1.125,0,0,1,.182,1.369,2.961,2.961,0,0,1-.544.664c-.944.926-1.885,1.855-2.835,2.775-.121.117-.1.165.01.266q1.647,1.51,3.285,3.03a2.925,2.925,0,0,1,.59.695,1.117,1.117,0,0,1-.141,1.329,1.18,1.18,0,0,1-1.358.3,2.8,2.8,0,0,1-.762-.561l-3.755-3.552-.184-.172c-.055.056-.028.118-.028.173q0,1.382,0,2.764a2.6,2.6,0,0,1-.03.411,1.188,1.188,0,0,1-1.237,1.037,1.209,1.209,0,0,1-1.17-1.1,4.111,4.111,0,0,1-.021-.43q0-3.913,0-7.826a2.414,2.414,0,0,1,.05-.57,1.207,1.207,0,0,1,2.377.08,2.509,2.509,0,0,1,.033.428C753.632,51.31,753.633,52.2,753.633,53.1Z" transform="translate(-680.17 -44.322)"/><path class="a" d="M389.3,53.432q0-1.32,0-2.639a2.05,2.05,0,0,1,.048-.463,1.191,1.191,0,0,1,1.271-.933,1.176,1.176,0,0,1,1.118,1.068,3.621,3.621,0,0,1,.025.429q0,2.512,0,5.026a1.979,1.979,0,0,0,.373,1.246,1.9,1.9,0,0,0,2.053.665,1.866,1.866,0,0,0,1.285-1.67c.008-.119.008-.239.008-.359q0-2.468,0-4.936a2.257,2.257,0,0,1,.055-.552,1.171,1.171,0,0,1,1.277-.917,1.136,1.136,0,0,1,1.1,1.075,5.008,5.008,0,0,1,.031.519c0,1.639.008,3.279,0,4.918a4.171,4.171,0,0,1-2.235,3.866,4.345,4.345,0,0,1-6.344-3.046,4.65,4.65,0,0,1-.063-.785Z" transform="translate(-352.502 -44.725)"/><path class="a" d="M515.525,59.512a4.962,4.962,0,0,1-3.078-.912,2.261,2.261,0,0,1-.958-1.339,1.2,1.2,0,0,1,.88-1.48,1.272,1.272,0,0,1,.849.144,3.226,3.226,0,0,1,.658.463,3.739,3.739,0,0,0,1.044.684,1.524,1.524,0,0,0,1.035.06,1.139,1.139,0,0,0,.831-1.261.877.877,0,0,0-.445-.64,3.531,3.531,0,0,0-.81-.33c-.679-.228-1.377-.4-2.036-.681-.153-.066-.3-.139-.453-.215a2.394,2.394,0,0,1-1.337-2.518,3.134,3.134,0,0,1,2.752-2.865,4.923,4.923,0,0,1,3.077.4,2.831,2.831,0,0,1,.869.655,1.3,1.3,0,0,1,.254,1.372,1,1,0,0,1-1.536.5c-.225-.158-.435-.337-.656-.5a1.867,1.867,0,0,0-1.235-.451,1.3,1.3,0,0,0-.831.335.773.773,0,0,0,.054,1.251,2.421,2.421,0,0,0,.9.389,10.492,10.492,0,0,1,2.277.794,2.779,2.779,0,0,1,1.559,1.963,3.423,3.423,0,0,1-2.76,4.1A5.5,5.5,0,0,1,515.525,59.512Z" transform="translate(-463.113 -43.95)"/><path class="a" d="M290.578,60.947a1.234,1.234,0,0,1-.879-.386q-1.85-1.792-3.7-3.581l-4.584-4.426a1.256,1.256,0,0,1-.043-1.95q2-2.105,4.006-4.216a1.193,1.193,0,0,1,1.287-.366,1.226,1.226,0,0,1,.515,2.04q-1.011,1.07-2.027,2.134c-.379.4-.753.8-1.14,1.195-.107.109-.1.163.008.265q3.084,2.969,6.16,5.945c.435.42.872.837,1.3,1.263a1.228,1.228,0,0,1,.25,1.347A1.21,1.21,0,0,1,290.578,60.947Z" transform="translate(-254.373 -41.618)"/><path class="a" d="M253.165,55.765q0,2.019,0,4.037a1.237,1.237,0,0,1-.864,1.229,1.223,1.223,0,0,1-1.58-1.025,2.226,2.226,0,0,1-.016-.25q0-3.993,0-7.985a1.245,1.245,0,0,1,.9-1.292,1.228,1.228,0,0,1,1.561,1.213C253.169,53.049,253.165,54.407,253.165,55.765Z" transform="translate(-227.006 -45.665)"/></svg>