<svg xmlns="http://www.w3.org/2000/svg" width="84.455" height="20" viewBox="180 0 767.7 273.22"><defs><style>.cls-1{fill:#fff;}</style></defs><g id="Capa_2" data-name="Capa 2"><g id="Capa_1-2" data-name="Capa 1"><polygon class="cls-1" points="10.98 96.28 0 96.28 0 174.34 83.62 174.34 83.62 96.28 72.64 96.28 72.64 163.37 47.3 163.37 47.3 106.64 36.32 106.64 36.32 163.37 10.98 163.37 10.98 96.28"/><path class="cls-1" d="M83.62,41.63V83.27H0V41.63a41.81,41.81,0,0,1,83.62,0m-11,30.7V41.63a30.83,30.83,0,0,0-61.66,0v30.7Z"/><path class="cls-1" d="M47.3,262.59V235l36.32-35.17v-15L47.3,219.91v-4.75c0-12.62-10.61-22.89-23.65-22.89S0,202.54,0,215.16v58.06H83.62V262.59Zm-36.32,0V215.16A12.49,12.49,0,0,1,23.65,202.9a12.48,12.48,0,0,1,12.67,12.26v47.43Z"/><path class="cls-1" d="M316.05,102.34H199.25V68.53H374.48V0H132.13V170.87H316.05a16.91,16.91,0,0,1,0,33.82H132.13v68.53H316.05c46.15,0,83.69-38.33,83.69-85.44s-37.54-85.44-83.69-85.44"/><path class="cls-1" d="M633.9,68.53H767.7V0H633.9C560.12,0,500.09,61.28,500.09,136.61s60,136.61,133.81,136.61H767.7V102.51H625.59v68.54h75v33.64H633.9c-36.77,0-66.69-30.54-66.69-68.08s29.92-68.08,66.69-68.08"/><path class="cls-1" d="M408.1,134.78V135c0,20.69,16.42,37.45,36.68,37.45H445c20.25,0,36.67-16.76,36.67-37.45v-.24c0-20.69-16.42-37.45-36.67-37.45h-.24c-20.26,0-36.68,16.76-36.68,37.45"/></g></g></svg>